<svg xmlns="http://www.w3.org/2000/svg" xmlns:xlink="http://www.w3.org/1999/xlink" width="28.589" height="28.822" viewBox="0 0 28.589 28.822">
  <defs>
    <radialGradient id="radial-gradient" cx="0.499" cy="0.501" r="0.519" gradientTransform="matrix(0, 1, 0.998, 0, -35.681, 35.731)" gradientUnits="objectBoundingBox">
      <stop offset="0" stop-color="#f7b450"/>
      <stop offset="0.333" stop-color="#f7b450"/>
      <stop offset="0.648" stop-color="#ffc977"/>
      <stop offset="1" stop-color="#f90" stop-opacity="0"/>
    </radialGradient>
  </defs>
  <g id="bakerytoken-bake-logo" transform="translate(0.042 0.036)">
    <path id="Path_16" data-name="Path 16" d="M21.6,13.9a.382.382,0,0,1,.5.3l.4,1.5a.412.412,0,1,1-.8.2l-.4-1.5A.338.338,0,0,1,21.6,13.9ZM10.1,2.7c-.1-.2-.1-.5.1-.6l1.3-.9c.2-.1.5-.1.6.1A.592.592,0,0,1,12,2l-1.3.9C10.5,2.9,10.2,2.9,10.1,2.7Z" fill="#fff"/>
    <path id="Path_17" data-name="Path 17" d="M16.8,8a6.031,6.031,0,0,0-4.5.8,5.7,5.7,0,0,1,5.9,1.4,5.919,5.919,0,0,1,0,8.2,5.5,5.5,0,0,1-.9.7,5.178,5.178,0,0,0,2.2-1.4,5.907,5.907,0,0,0,1.4-5.9A7.576,7.576,0,0,1,16.8,8Z" fill="none" fill-rule="evenodd"/>
    <path id="Path_18" data-name="Path 18" d="M26.3,21h0A13.615,13.615,0,0,1,7.7,26.5,13.907,13.907,0,0,1,2.2,7.7,13.73,13.73,0,0,1,13.7.5a1.508,1.508,0,0,1,1.4.9,3.956,3.956,0,0,1,.4,2.2v.9a9.1,9.1,0,0,0,1,4,6.223,6.223,0,0,0-7.7,2.9A6.372,6.372,0,0,0,11.3,20a6.255,6.255,0,0,0,8.5-2.5h0a6.4,6.4,0,0,0,.3-5.4A8.6,8.6,0,0,0,24,13a9.079,9.079,0,0,0,2.3-.3,1.627,1.627,0,0,1,1.2.1c.3.2.5.4.5.7A15.519,15.519,0,0,1,26.3,21Z" stroke="#fff" stroke-width="1.072" fill="url(#radial-gradient)"/>
    <path id="Path_19" data-name="Path 19" d="M22.7,18.3l.5-.2h0a3.258,3.258,0,0,1-.4,2.6v.1a2.6,2.6,0,0,0-.4,1,2.818,2.818,0,0,0,0,1.3,1.143,1.143,0,0,0,.8.7,1.771,1.771,0,0,0,1.4-.4,13.916,13.916,0,0,0,3.3-9.8,1.02,1.02,0,0,0-.5-.8,1.627,1.627,0,0,0-1.2-.1A8.329,8.329,0,0,1,24,13a7.561,7.561,0,0,1-3.9-1,6.536,6.536,0,0,1-.2,5.3,3.508,3.508,0,0,1-.5.8,4.5,4.5,0,0,0,1.4-.7C21.5,16.9,22.4,17.4,22.7,18.3Zm0,0a2.854,2.854,0,0,1-.4,2.2,6.117,6.117,0,0,0-.5,1.2ZM13.1,8.1h0a4.457,4.457,0,0,1-3.3-.2A4.32,4.32,0,0,1,8,5.9a4.007,4.007,0,0,1-.3-2.6A2.453,2.453,0,0,1,8.9,1.6,13.873,13.873,0,0,1,14.1.5a1.411,1.411,0,0,1,1.2.8,2.777,2.777,0,0,1,.3,1.8,6.15,6.15,0,0,0-.1,1.4,9.1,9.1,0,0,0,1,4A5.748,5.748,0,0,0,13.1,8.1Z" fill="#fff" stroke="#fff" stroke-width="1.072"/>
    <circle id="Ellipse_8" data-name="Ellipse 8" cx="0.7" cy="0.7" r="0.7" transform="translate(3.1 10.5)" fill="#fff"/>
    <circle id="Ellipse_9" data-name="Ellipse 9" cx="0.7" cy="0.7" r="0.7" transform="translate(13.5 23)" fill="#fff"/>
    <circle id="Ellipse_10" data-name="Ellipse 10" cx="1.2" cy="1.2" r="1.2" transform="translate(8.6 23.1)" fill="#fff"/>
  </g>
</svg>
