<svg xmlns="http://www.w3.org/2000/svg" xmlns:xlink="http://www.w3.org/1999/xlink" width="44" height="44" viewBox="0 0 44 44">
  <g fill="#fff" clip-rule="evenodd">
      <path id="Path_11" data-name="Path 11" d="M22-44A22,22,0,0,1,44-22,22,22,0,0,1,22,0,22,22,0,0,1,0-22,22,22,0,0,1,22-44Zm5.7,6a4.225,4.225,0,0,0-4.2,4.2h0v5.2a9.7,9.7,0,0,0-1.7-.1c-.6,0-1.2.1-1.8.1h0v-5.2A4.225,4.225,0,0,0,15.8-38a4.2,4.2,0,0,0-4.1,5h0l1.1,6.1C8.9-25.2,6-22.2,6-18.5H6v2.3c0,3.1,2,5.7,4.8,7.4A20.871,20.871,0,0,0,21.8-6a20.871,20.871,0,0,0,11-2.8c2.9-1.7,4.9-4.3,4.9-7.4h0v-2.3c0-3.7-3-6.7-6.9-8.4h0L31.9-33A4.325,4.325,0,0,0,27.7-38Zm0,1.2a2.956,2.956,0,0,1,2.9,3.5h0l-1.3,7.2c4.3,1.6,7.1,4.4,7,7.7h0v2.3c0,4.9-6.5,8.9-14.5,8.9s-14.5-4-14.5-8.9h0v-2.3c0-3.2,2.8-6,7-7.6h0L13-33.2a2.889,2.889,0,0,1,2.8-3.5,2.9,2.9,0,0,1,2.9,2.9h0v6.5c.4,0,.9-.1,1.3-.1a10.869,10.869,0,0,1,1.8-.1c.6,0,1.1.1,1.7.1a5.7,5.7,0,0,1,1.3.1h0v-6.6A2.9,2.9,0,0,1,27.7-36.8ZM16.2-21.5c-.9,0-1.6,1.1-1.6,2.4s.7,2.4,1.6,2.4,1.6-1.1,1.6-2.4S17.1-21.5,16.2-21.5Zm11.1,0c-.9,0-1.6,1.1-1.6,2.4s.7,2.4,1.6,2.4,1.6-1.1,1.6-2.4S28.2-21.5,27.3-21.5Z" transform="translate(0 44)"/>
  </g>
</svg>