<svg id="pancakeswap-cake-logo" xmlns="http://www.w3.org/2000/svg" width="73.026" height="73.717" viewBox="0 0 73.026 73.717">
  <path id="Path_5" data-name="Path 5" d="M13.131,11.518a9.651,9.651,0,1,1,19.12-1.843V21.655c1.382,0,2.764-.23,4.147-.23a22.35,22.35,0,0,1,3.916.23V9.675A9.734,9.734,0,0,1,49.99,0a9.963,9.963,0,0,1,9.675,11.518L57.131,25.571c8.984,3.916,15.9,10.827,15.9,19.351v5.3c0,7.141-4.607,13.131-11.288,17.047-6.681,4.147-15.435,6.45-25.34,6.45s-18.66-2.3-25.34-6.45C4.607,63.351,0,57.361,0,50.22v-5.3C0,36.4,6.681,29.487,15.665,25.571Zm40.545,15.9L56.67,10.827A6.809,6.809,0,0,0,49.99,2.764a6.685,6.685,0,0,0-6.681,6.681v15.2a13.135,13.135,0,0,0-2.995-.23c-1.382,0-2.534-.23-3.916-.23a25.038,25.038,0,0,0-4.147.23c-.921,0-2.073.23-2.995.23V9.675a6.642,6.642,0,1,0-13.131,1.382L19.12,27.644C9.445,31.33,2.995,37.78,2.995,45.152v5.3c0,11.288,14.974,20.5,33.4,20.5s33.4-9.215,33.4-20.5v-5.3C70.032,37.55,63.581,31.1,53.676,27.414Z" fill="#fff" fill-rule="evenodd"/>
  <path id="Path_8" data-name="Path 8" d="M15.972,22.029c0,2.995-1.613,5.529-3.686,5.529S8.6,25.024,8.6,22.029,10.213,16.5,12.286,16.5,15.972,19.034,15.972,22.029Z" transform="translate(11.212 21.511)" fill="#fff"/>
  <path id="Path_9" data-name="Path 9" d="M27.072,22.029c0,2.995-1.613,5.529-3.686,5.529S19.7,25.024,19.7,22.029,21.313,16.5,23.386,16.5,27.072,19.034,27.072,22.029Z" transform="translate(25.682 21.511)" fill="#fff"/>
</svg>
