<svg width="24" height="24" viewBox="0 0 24 24" fill="none" xmlns="http://www.w3.org/2000/svg">
<path fill-rule="evenodd" clip-rule="evenodd" d="M12 24C18.6274 24 24 18.6274 24 12C24 5.37258 18.6274 0 12 0C5.37258 0 0 5.37258 0 12C0 18.6274 5.37258 24 12 24ZM13.4123 6.30194L8.62987 18.5454C8.62987 18.5454 8.53247 18.8377 8.2013 18.8961C7.90909 18.9546 7.69481 18.7986 7.58766 18.6234C7.5 18.4772 7.5 18.3214 7.5 18.3214V6.07791C7.5 5.75648 7.76298 5.4935 8.08442 5.4935L12.8474 5.48375C13.276 5.4935 13.5584 5.91233 13.4123 6.30194ZM15.8572 7.17856C15.6526 7.02271 15.1753 7.00323 14.9805 7.44154L10.7532 18.2532C10.5779 18.6916 10.8896 19.0714 11.289 19.0811H11.4546C15.0877 19.0811 18.039 16.2467 18.2337 12.6623C18.3507 10.5 17.4253 8.53245 15.9058 7.20777C15.9058 7.21752 15.8863 7.20777 15.8572 7.17856Z" fill="white"/>
</svg>
