<svg width="24" height="24" viewBox="0 0 24 24" fill="none" xmlns="http://www.w3.org/2000/svg">
<path fill-rule="evenodd" clip-rule="evenodd" d="M12 22C17.5228 22 22 17.5228 22 12C22 6.47715 17.5228 2 12 2C6.47715 2 2 6.47715 2 12C2 17.5228 6.47715 22 12 22ZM13.1769 7.25162L9.19156 17.4545C9.19156 17.4545 9.11039 17.6981 8.83442 17.7468C8.59091 17.7955 8.41234 17.6655 8.32305 17.5195C8.25 17.3977 8.25 17.2678 8.25 17.2678V7.06492C8.25 6.79707 8.46915 6.57792 8.73702 6.57792L12.7062 6.56979C13.0633 6.57792 13.2987 6.92694 13.1769 7.25162ZM15.2143 7.98213C15.0438 7.85226 14.6461 7.83602 14.4838 8.20128L10.961 17.211C10.8149 17.5763 11.0747 17.8928 11.4075 17.9009H11.5455C14.5731 17.9009 17.0325 15.5389 17.1948 12.5519C17.2922 10.75 16.5211 9.11038 15.2548 8.00648C15.2548 8.0146 15.2386 8.00648 15.2143 7.98213Z" fill="white"/>
</svg>
