<svg width="24" height="24" viewBox="0 0 24 24" fill="none" xmlns="http://www.w3.org/2000/svg">
<path fill-rule="evenodd" clip-rule="evenodd" d="M22 12C22 17.5228 17.5228 22 12 22C6.47715 22 2 17.5228 2 12C2 6.47715 6.47715 2 12 2C17.5228 2 22 6.47715 22 12ZM10.4011 7.90281C10.4011 8.83508 9.6416 9.59084 8.70477 9.59084C7.7679 9.59084 7.00842 8.83508 7.00842 7.90281C7.00842 6.97054 7.7679 6.21478 8.70477 6.21478C9.6416 6.21478 10.4011 6.97054 10.4011 7.90281ZM16.4739 9.59085H14.1246C13.8362 9.59085 13.5986 9.35453 13.5986 9.06757V6.72965C13.5986 6.44268 13.8362 6.20636 14.1246 6.20636H16.4739C16.7623 6.20636 16.9999 6.44268 16.9999 6.72965V9.06757C16.9999 9.36297 16.7623 9.59085 16.4739 9.59085ZM10.2993 11.0331H10.4011H12.9796C13.3782 11.0331 13.7005 11.3539 13.7005 11.7505V13.7002C13.7005 14.0969 13.3782 14.4176 12.9796 14.4176H11.122C10.7234 14.4176 10.4011 14.7383 10.4011 15.135V17.0762C10.4011 17.4729 10.0788 17.7936 9.68018 17.7936H7.72088C7.32225 17.7936 6.99994 17.4729 6.99994 17.0762V14.4176V11.7505C6.99994 11.3539 7.32225 11.0331 7.72088 11.0331H10.2993Z" fill="white"/>
</svg>
