<svg width="24" height="24" viewBox="0 0 24 24" fill="none" xmlns="http://www.w3.org/2000/svg">
<path fill-rule="evenodd" clip-rule="evenodd" d="M24 12C24 18.6274 18.6274 24 12 24C5.37258 24 0 18.6274 0 12C0 5.37258 5.37258 0 12 0C18.6274 0 24 5.37258 24 12ZM10.0814 7.08337C10.0814 8.2021 9.16992 9.109 8.04572 9.109C6.92148 9.109 6.01011 8.2021 6.01011 7.08337C6.01011 5.96464 6.92148 5.05774 8.04572 5.05774C9.16992 5.05774 10.0814 5.96464 10.0814 7.08337ZM17.3687 9.10902H14.5495C14.2034 9.10902 13.9184 8.82543 13.9184 8.48108V5.67558C13.9184 5.33122 14.2034 5.04763 14.5495 5.04763H17.3687C17.7148 5.04763 17.9998 5.33122 17.9998 5.67558V8.48108C17.9998 8.83556 17.7148 9.10902 17.3687 9.10902ZM9.95921 10.8397H10.0813H13.1755C13.6538 10.8397 14.0406 11.2246 14.0406 11.7007V14.0402C14.0406 14.5162 13.6538 14.9011 13.1755 14.9011H10.9464C10.4681 14.9011 10.0813 15.286 10.0813 15.762V18.0915C10.0813 18.5675 9.69456 18.9523 9.21622 18.9523H6.86506C6.3867 18.9523 5.99993 18.5675 5.99993 18.0915V14.9011V11.7007C5.99993 11.2246 6.3867 10.8397 6.86506 10.8397H9.95921Z" fill="white"/>
</svg>
