<svg width="24" height="24" viewBox="0 0 24 24" fill="none" xmlns="http://www.w3.org/2000/svg">
<path d="M17.0987 11.6819C17.1358 11.6693 17.1752 11.6649 17.2141 11.669C17.2531 11.6732 17.2907 11.6858 17.3243 11.706C17.3579 11.7261 17.3867 11.7534 17.4087 11.7858C17.4307 11.8182 17.4454 11.855 17.4517 11.8937L17.7341 12.9528C17.7528 13.0277 17.741 13.107 17.7013 13.1732C17.6616 13.2394 17.5972 13.2871 17.5223 13.3058C17.4474 13.3245 17.3681 13.3127 17.3019 13.273C17.2357 13.2333 17.188 13.1689 17.1693 13.094L16.8868 12.0349C16.8669 11.9984 16.8568 11.9573 16.8577 11.9157C16.8585 11.8741 16.8702 11.8334 16.8916 11.7977C16.9131 11.7621 16.9434 11.7326 16.9797 11.7123C17.016 11.6919 17.057 11.6815 17.0987 11.6819ZM8.979 3.77404C8.90839 3.63283 8.90839 3.42101 9.0496 3.35041L9.96748 2.71496C10.1087 2.64435 10.3205 2.64435 10.3911 2.78556C10.4341 2.86458 10.4504 2.95534 10.4377 3.04438C10.425 3.13342 10.3839 3.21598 10.3205 3.2798L9.40263 3.91525C9.26142 3.91525 9.0496 3.91525 8.979 3.77404Z" fill="white"/>
<path fill-rule="evenodd" clip-rule="evenodd" d="M11.5308 2.59907C9.92065 2.66873 8.35606 3.15494 6.98998 4.01023C5.62217 4.8666 4.50029 6.0636 3.73424 7.48396L3.73385 7.48467C2.54687 9.67428 2.27325 12.2442 2.97258 14.6347C3.67191 17.0251 5.28753 19.0424 7.4675 20.247C8.53869 20.8395 9.71717 21.2133 10.9341 21.3463C12.151 21.4793 13.3822 21.3691 14.5562 21.0219C15.7301 20.6748 16.8233 20.0977 17.7721 19.3243C18.7202 18.5515 19.5052 17.5982 20.0817 16.5195C20.8899 14.9403 21.2879 13.1832 21.2391 11.4098L21.239 11.4046V11.3994C21.239 11.3882 21.2385 11.38 21.2216 11.3582C21.1992 11.3294 21.1564 11.2898 21.0753 11.2342C20.9038 11.1549 20.7088 11.1413 20.5275 11.1966L20.5206 11.1987L20.5136 11.2005C19.9527 11.3484 19.3751 11.4238 18.795 11.4249C18.0578 11.4307 17.3271 11.31 16.6342 11.0702C16.7243 11.4932 16.7582 11.9275 16.7341 12.3618C16.6944 13.0756 16.4989 13.7721 16.1614 14.4024L16.1603 14.4044C15.859 14.9588 15.4513 15.4482 14.9605 15.8448C14.4697 16.2413 13.9055 16.537 13.3002 16.7151C12.6949 16.8931 12.0604 16.9499 11.4331 16.8823C10.8057 16.8146 10.1979 16.6238 9.64452 16.3208L9.64197 16.3194C8.52118 15.6945 7.6918 14.653 7.3336 13.4208C6.97554 12.1891 7.11712 10.8659 7.72763 9.73783C8.27267 8.71264 9.17278 7.9213 10.2594 7.51206C11.0849 7.20116 11.975 7.127 12.8312 7.28951C12.5678 6.57399 12.4259 5.8174 12.4133 5.05116L12.4132 5.04493L12.4133 4.38928L12.4154 4.36919C12.4649 3.9074 12.3801 3.44115 12.1713 3.02632L12.1669 3.01762L12.1629 3.0087C12.1087 2.88545 12.0193 2.78089 11.906 2.70805C11.7941 2.63612 11.6638 2.59828 11.5308 2.59907ZM11.5158 1.84229C11.799 1.83854 12.0771 1.91821 12.3153 2.07137C12.5507 2.22269 12.7369 2.43914 12.8515 2.6943C13.1196 3.23085 13.2301 3.83237 13.1702 4.42904V5.04177C13.1858 5.96584 13.4131 6.87404 13.8346 7.69659L14.2827 8.57117L13.3637 8.22307C12.4497 7.87686 11.4408 7.8759 10.5261 8.22039C9.61148 8.56487 8.85387 9.23113 8.39534 10.0943L8.39391 10.097C7.87762 11.0502 7.75779 12.1685 8.06041 13.2095C8.36289 14.2501 9.06305 15.1295 10.0093 15.6576C10.475 15.9123 10.9864 16.0728 11.5142 16.1297C12.0425 16.1867 12.5769 16.1389 13.0866 15.9889C13.5964 15.839 14.0716 15.5899 14.4849 15.256C14.8979 14.9224 15.241 14.5105 15.4946 14.0441C15.7797 13.5115 15.9448 12.923 15.9783 12.3198C16.0119 11.7163 15.9128 11.1128 15.6882 10.5516L15.3193 9.62994L16.2081 10.0721C17.01 10.4711 17.8946 10.6752 18.7901 10.668L18.7926 10.668C19.3062 10.6671 19.8175 10.6007 20.3143 10.4703C20.6858 10.3591 21.0859 10.3934 21.4332 10.5665L21.4545 10.5771L21.4743 10.5903C21.6972 10.7389 21.9931 10.9776 21.9959 11.3936C22.0473 13.2934 21.6203 15.1757 20.754 16.8674L20.751 16.8732C20.1271 18.0415 19.277 19.0741 18.2504 19.911C17.2237 20.7478 16.0409 21.3722 14.7708 21.7478C13.5006 22.1233 12.1685 22.2426 10.8518 22.0987C9.53523 21.9548 8.26038 21.5505 7.10143 20.9094C4.74669 19.6083 3.00153 17.4293 2.24613 14.8472C1.49077 12.2652 1.78627 9.48939 3.06825 7.12431C3.89653 5.5887 5.1095 4.29457 6.58833 3.3687C8.06727 2.44275 9.76138 1.91688 11.5047 1.8426L11.5102 1.84236L11.5158 1.84229Z" fill="white"/>
<path d="M17.8754 14.7885L18.2284 14.6473C18.3115 14.9561 18.3293 15.2789 18.2807 15.595C18.2321 15.911 18.1181 16.2135 17.946 16.4831V16.5537C17.8036 16.7667 17.7074 17.0072 17.6635 17.2597C17.592 17.5615 17.592 17.8758 17.6635 18.1776C17.7106 18.2996 17.7866 18.4083 17.885 18.4944C17.9834 18.5805 18.1012 18.6414 18.2284 18.6718C18.4038 18.6975 18.5826 18.6856 18.753 18.6369C18.9234 18.5882 19.0815 18.5039 19.2169 18.3894C20.8535 16.4679 21.6878 13.9902 21.5469 11.4701C21.5378 11.3544 21.501 11.2427 21.4396 11.1444C21.3781 11.046 21.2938 10.964 21.1938 10.9052C20.9308 10.7742 20.6276 10.7489 20.3466 10.8346C19.8406 10.9742 19.3181 11.0455 18.7932 11.0464C17.8284 11.0643 16.8768 10.8203 16.0396 10.3404C16.2789 10.9393 16.39 11.5818 16.3656 12.2264C16.3413 12.8709 16.1821 13.5032 15.8984 14.0825C15.8067 14.2858 15.6879 14.4758 15.5454 14.6473C15.9012 14.5416 16.2358 14.3743 16.5339 14.1531C17.0281 13.8 17.6635 14.1531 17.8754 14.7885ZM17.8754 14.7885C17.9353 15.0531 17.9411 15.3271 17.8926 15.594C17.8441 15.8609 17.7422 16.1153 17.5929 16.3419C17.4455 16.6109 17.3272 16.895 17.2399 17.1891L17.8754 14.7885ZM11.0972 7.58674C10.3312 7.84011 9.49706 7.78956 8.76722 7.44553C8.20406 7.12212 7.75882 6.62741 7.49632 6.03341C7.22223 5.46245 7.14764 4.81604 7.2845 4.19766C7.32912 3.94772 7.42814 3.71064 7.57455 3.50322C7.72097 3.2958 7.9112 3.1231 8.13177 2.99737C9.29411 2.50427 10.5408 2.24054 11.8033 2.2207C11.9822 2.22994 12.1554 2.28729 12.3045 2.3867C12.4536 2.48611 12.5732 2.6239 12.6505 2.78555C12.8623 3.17323 12.9369 3.62105 12.8624 4.05645C12.8012 4.38217 12.7775 4.71382 12.7917 5.04493C12.8079 6.02796 13.0495 6.99417 13.4978 7.86916C12.7449 7.53338 11.9075 7.43487 11.0972 7.58674Z" fill="white" stroke="white" stroke-width="1.072"/>
<path d="M4.53086 10.2697C4.80382 10.2697 5.0251 10.0485 5.0251 9.77549C5.0251 9.50253 4.80382 9.28125 4.53086 9.28125C4.2579 9.28125 4.03662 9.50253 4.03662 9.77549C4.03662 10.0485 4.2579 10.2697 4.53086 10.2697Z" fill="white"/>
<path d="M11.8738 19.0955C12.1468 19.0955 12.3681 18.8742 12.3681 18.6012C12.3681 18.3283 12.1468 18.107 11.8738 18.107C11.6009 18.107 11.3796 18.3283 11.3796 18.6012C11.3796 18.8742 11.6009 19.0955 11.8738 19.0955Z" fill="white"/>
<path d="M8.76719 19.8722C9.23512 19.8722 9.61446 19.4928 9.61446 19.0249C9.61446 18.5569 9.23512 18.1776 8.76719 18.1776C8.29926 18.1776 7.91992 18.5569 7.91992 19.0249C7.91992 19.4928 8.29926 19.8722 8.76719 19.8722Z" fill="white"/>
</svg>
