<svg width="24" height="24" viewBox="0 0 24 24" fill="none" xmlns="http://www.w3.org/2000/svg">
<path d="M12 2C14.6522 2 17.1957 3.05357 19.0711 4.92893C20.9464 6.8043 22 9.34784 22 12C22 14.6522 20.9464 17.1957 19.0711 19.0711C17.1957 20.9464 14.6522 22 12 22C9.34784 22 6.8043 20.9464 4.92893 19.0711C3.05357 17.1957 2 14.6522 2 12C2 9.34784 3.05357 6.8043 4.92893 4.92893C6.8043 3.05357 9.34784 2 12 2ZM14.5909 4.72727C14.0855 4.73025 13.6017 4.93235 13.2443 5.28973C12.8869 5.64711 12.6848 6.13096 12.6818 6.63636V9C12.4261 8.96222 12.1675 8.94701 11.9091 8.95455C11.6364 8.95455 11.3636 9 11.0909 9V6.63636C11.0879 6.13096 10.8858 5.64711 10.5285 5.28973C10.1711 4.93235 9.68722 4.73025 9.18182 4.72727C8.90118 4.72882 8.62433 4.79222 8.37098 4.91296C8.11764 5.03369 7.89403 5.2088 7.71608 5.42582C7.53813 5.64283 7.41021 5.89641 7.34143 6.1685C7.27266 6.44059 7.26472 6.72449 7.31818 7L7.81818 9.77273C6.04545 10.5455 4.72727 11.9091 4.72727 13.5909V14.6364C4.72727 16.0455 5.63636 17.2273 6.90909 18C8.42618 18.878 10.1569 19.3185 11.9091 19.2727C13.6613 19.3185 15.392 18.878 16.9091 18C18.2273 17.2273 19.1364 16.0455 19.1364 14.6364V13.5909C19.1364 11.9091 17.7727 10.5455 16 9.77273L16.5 7C16.544 6.72207 16.5277 6.43795 16.4524 6.16683C16.3771 5.89571 16.2445 5.64391 16.0635 5.42845C15.8825 5.213 15.6574 5.0389 15.4034 4.91794C15.1493 4.79697 14.8723 4.73195 14.5909 4.72727ZM14.5909 5.27273C14.7881 5.2731 14.9828 5.31686 15.1612 5.40092C15.3395 5.48497 15.4972 5.60726 15.623 5.7591C15.7488 5.91094 15.8397 6.08861 15.8891 6.2795C15.9386 6.47039 15.9454 6.66982 15.9091 6.86364L15.3182 10.1364C17.2727 10.8636 18.5455 12.1364 18.5 13.6364V14.6818C18.5 16.9091 15.5455 18.7273 11.9091 18.7273C8.27273 18.7273 5.31818 16.9091 5.31818 14.6818V13.6364C5.31818 12.1818 6.59091 10.9091 8.5 10.1818L7.90909 6.90909C7.86782 6.71838 7.86956 6.52087 7.9142 6.33092C7.95884 6.14097 8.04524 5.96335 8.16714 5.81098C8.28903 5.65861 8.44335 5.53533 8.61887 5.45008C8.79439 5.36484 8.9867 5.31978 9.18182 5.31818C9.53142 5.31818 9.86671 5.45706 10.1139 5.70427C10.3611 5.95148 10.5 6.28676 10.5 6.63636V9.59091C10.6818 9.59091 10.9091 9.54545 11.0909 9.54545C11.3619 9.50767 11.6356 9.49247 11.9091 9.5C12.1818 9.5 12.4091 9.54545 12.6818 9.54545C12.8799 9.53795 13.0781 9.55321 13.2727 9.59091V6.59091C13.2727 6.2413 13.4116 5.90602 13.6588 5.65881C13.906 5.41161 14.2413 5.27273 14.5909 5.27273ZM9.36364 12.2273C8.95455 12.2273 8.63636 12.7273 8.63636 13.3182C8.63636 13.9091 8.95455 14.4091 9.36364 14.4091C9.77273 14.4091 10.0909 13.9091 10.0909 13.3182C10.0909 12.7273 9.77273 12.2273 9.36364 12.2273ZM14.4091 12.2273C14 12.2273 13.6818 12.7273 13.6818 13.3182C13.6818 13.9091 14 14.4091 14.4091 14.4091C14.8182 14.4091 15.1364 13.9091 15.1364 13.3182C15.1364 12.7273 14.8182 12.2273 14.4091 12.2273Z" fill="white"/>
</svg>
