<?xml version="1.0" encoding="UTF-8"?>
<svg width="22px" height="22px" viewBox="0 0 22 22" version="1.1" xmlns="http://www.w3.org/2000/svg" xmlns:xlink="http://www.w3.org/1999/xlink">
    <title>Icon/22/Wallet/Blt/Single Color</title>
    <g id="Icon/22/Wallet/Blt/Single-Color" stroke="none" stroke-width="1" fill="none" fill-rule="evenodd">
        <rect id="Rectangle" x="0" y="0" width="22" height="22"></rect>
        <g id="工作區域-7" transform="translate(0.000000, 2.000000)" fill="#FFFFFF">
            <path d="M21.7563541,7.34314815 C19.8263199,3.40592593 15.7369055,0 10.9982657,0 C6.25962583,0 2.17021142,3.40592593 0.240177174,7.34314815 C-0.205352169,8.25612653 -0.0195994002,9.35055432 0.70239744,10.0664815 L5.10583937,13.965 C5.41602347,13.7617225 5.77304147,13.6406278 6.14318867,13.6131481 C6.4611284,13.5865075 6.78128666,13.6162894 7.08879959,13.7011111 C6.39774905,11.9531845 6.95784183,9.96023411 8.45916711,8.82500033 C9.96049239,7.68976656 12.0360389,7.68976656 13.5373642,8.82500033 C15.0386895,9.96023411 15.5987823,11.9531845 14.9077317,13.7011111 C15.2152447,13.6162894 15.5354029,13.5865075 15.8533427,13.6131481 C16.2236156,13.6400114 16.5807851,13.7611574 16.890692,13.965 L21.3047191,10.0664815 C22.0231218,9.34807881 22.2045728,8.2539402 21.7563541,7.34314815 Z" id="Path"></path>
            <path d="M11.0017941,13.5603704 C11.9085926,13.5603704 12.3672845,13.972037 12.8506751,14.5103704 C13.8562786,13.7228257 14.2505868,12.3861109 13.8327738,11.1810308 C13.4149608,9.97595071 12.2769185,9.1675454 10.9982657,9.1675454 C9.71961278,9.1675454 8.58157054,9.97595071 8.16375754,11.1810308 C7.74594454,12.3861109 8.14025273,13.7228257 9.1458562,14.5103704 C9.62924686,13.972037 10.0914671,13.5603704 10.9947373,13.5603704 L11.0017941,13.5603704 Z" id="Path"></path>
            <path d="M11.0088509,19 C11.4232697,18.9968862 11.8236939,18.8501019 12.1414669,18.5848148 L15.998007,15.3161111 C15.0065269,14.1655556 13.5281277,15.4005556 13.5281277,15.4005556 C13.3293527,15.5812798 13.0735023,15.687067 12.8048059,15.6996296 C12.572244,15.6976054 12.3520484,15.5948783 12.2014497,15.4181481 C11.936468,15.0271774 11.4926327,14.7946512 11.0194361,14.7988889 L10.9876805,14.7988889 C10.5132384,14.7934652 10.0678123,15.0261303 9.80213841,15.4181481 C9.65096465,15.5941255 9.43113315,15.6966827 9.19878218,15.6996296 C8.92840636,15.6955955 8.66827737,15.5958261 8.46487519,15.4181481 C8.46487519,15.4181481 6.97941922,14.1831481 5.99499591,15.3337037 L9.85506439,18.5848148 C10.1772235,18.8455388 10.5798347,18.987239 10.9947373,18.9859259 L11.0088509,19 Z" id="Path"></path>
        </g>
    </g>
</svg>