<svg width="24" height="24" viewBox="0 0 24 24" fill="none" xmlns="http://www.w3.org/2000/svg">
<path d="M18.2591 16.1441L14.4144 8.50923V5.10013H14.783C15.0971 5.10013 15.3526 4.84465 15.3526 4.53055C15.3526 4.21644 15.0971 3.96097 14.783 3.96097H13.2711V8.78564L17.2414 16.6634C17.3628 16.9021 17.2665 17.1074 17.2204 17.1827C17.1744 17.2581 17.0362 17.434 16.7681 17.434H7.06016C6.79212 17.434 6.65392 17.2581 6.60785 17.1827C6.56178 17.1074 6.46545 16.9021 6.58691 16.6634L10.5572 8.78564V7.26955H11.7801V6.69998H10.5572V6.19322H11.7801V5.62364H10.5572V3.96516H9.04531C8.7312 3.96516 8.47573 4.22063 8.47573 4.53474C8.47573 4.84884 8.7312 5.10432 9.04531 5.10432H9.41386V8.51341L5.5692 16.1483C5.30535 16.6718 5.33048 17.2791 5.6404 17.7816C5.94613 18.28 6.4822 18.5774 7.06435 18.5774H16.7681C17.3545 18.5774 17.8864 18.28 18.1921 17.7816C18.4978 17.2749 18.5229 16.6634 18.2591 16.1441Z" fill="white"/>
<path d="M12.0021 14.3432C12.3467 14.3432 12.6261 14.0638 12.6261 13.7192C12.6261 13.3745 12.3467 13.0952 12.0021 13.0952C11.6575 13.0952 11.3781 13.3745 11.3781 13.7192C11.3781 14.0638 11.6575 14.3432 12.0021 14.3432Z" fill="white"/>
<path d="M12.0021 11.9769C12.1964 11.9769 12.3539 11.8194 12.3539 11.6251C12.3539 11.4308 12.1964 11.2733 12.0021 11.2733C11.8078 11.2733 11.6503 11.4308 11.6503 11.6251C11.6503 11.8194 11.8078 11.9769 12.0021 11.9769Z" fill="white"/>
<path d="M12.0021 12.2701C12.0669 12.2701 12.1194 12.2176 12.1194 12.1528C12.1194 12.088 12.0669 12.0355 12.0021 12.0355C11.9374 12.0355 11.8849 12.088 11.8849 12.1528C11.8849 12.2176 11.9374 12.2701 12.0021 12.2701Z" fill="white"/>
<path d="M12.0021 12.6093C12.0669 12.6093 12.1194 12.5568 12.1194 12.492C12.1194 12.4273 12.0669 12.3748 12.0021 12.3748C11.9374 12.3748 11.8849 12.4273 11.8849 12.492C11.8849 12.5568 11.9374 12.6093 12.0021 12.6093Z" fill="white"/>
<path d="M12.0021 12.9527C12.0669 12.9527 12.1194 12.9002 12.1194 12.8355C12.1194 12.7707 12.0669 12.7182 12.0021 12.7182C11.9374 12.7182 11.8849 12.7707 11.8849 12.8355C11.8849 12.9002 11.9374 12.9527 12.0021 12.9527Z" fill="white"/>
<path d="M12.0022 16.165C12.1965 16.165 12.354 16.0075 12.354 15.8132C12.354 15.6189 12.1965 15.4614 12.0022 15.4614C11.8079 15.4614 11.6504 15.6189 11.6504 15.8132C11.6504 16.0075 11.8079 16.165 12.0022 16.165Z" fill="white"/>
<path d="M12.0022 15.4027C12.0669 15.4027 12.1194 15.3502 12.1194 15.2855C12.1194 15.2207 12.0669 15.1682 12.0022 15.1682C11.9374 15.1682 11.8849 15.2207 11.8849 15.2855C11.8849 15.3502 11.9374 15.4027 12.0022 15.4027Z" fill="white"/>
<path d="M12.0022 15.0635C12.0669 15.0635 12.1194 15.011 12.1194 14.9462C12.1194 14.8815 12.0669 14.829 12.0022 14.829C11.9374 14.829 11.8849 14.8815 11.8849 14.9462C11.8849 15.011 11.9374 15.0635 12.0022 15.0635Z" fill="white"/>
<path d="M12.0022 14.7201C12.0669 14.7201 12.1194 14.6676 12.1194 14.6028C12.1194 14.5381 12.0669 14.4856 12.0022 14.4856C11.9374 14.4856 11.8849 14.5381 11.8849 14.6028C11.8849 14.6676 11.9374 14.7201 12.0022 14.7201Z" fill="white"/>
<path d="M11.1854 12.0104C11.2779 12.0104 11.3529 11.9354 11.3529 11.8429C11.3529 11.7504 11.2779 11.6754 11.1854 11.6754C11.0929 11.6754 11.0179 11.7504 11.0179 11.8429C11.0179 11.9354 11.0929 12.0104 11.1854 12.0104Z" fill="white"/>
<path d="M12.7685 15.7211C12.861 15.7211 12.936 15.6461 12.936 15.5535C12.936 15.461 12.861 15.386 12.7685 15.386C12.676 15.386 12.601 15.461 12.601 15.5535C12.601 15.6461 12.676 15.7211 12.7685 15.7211Z" fill="white"/>
<path d="M13.4763 12.6051C13.6706 12.6051 13.8281 12.4476 13.8281 12.2533C13.8281 12.059 13.6706 11.9015 13.4763 11.9015C13.282 11.9015 13.1245 12.059 13.1245 12.2533C13.1245 12.4476 13.282 12.6051 13.4763 12.6051Z" fill="white"/>
<path d="M13.1035 12.7433C13.1683 12.7433 13.2208 12.6908 13.2208 12.6261C13.2208 12.5613 13.1683 12.5088 13.1035 12.5088C13.0388 12.5088 12.9863 12.5613 12.9863 12.6261C12.9863 12.6908 13.0388 12.7433 13.1035 12.7433Z" fill="white"/>
<path d="M12.8606 12.9862C12.9254 12.9862 12.9779 12.9337 12.9779 12.869C12.9779 12.8042 12.9254 12.7517 12.8606 12.7517C12.7958 12.7517 12.7433 12.8042 12.7433 12.869C12.7433 12.9337 12.7958 12.9862 12.8606 12.9862Z" fill="white"/>
<path d="M12.6219 13.2291C12.6867 13.2291 12.7392 13.1766 12.7392 13.1119C12.7392 13.0471 12.6867 12.9946 12.6219 12.9946C12.5571 12.9946 12.5046 13.0471 12.5046 13.1119C12.5046 13.1766 12.5571 13.2291 12.6219 13.2291Z" fill="white"/>
<path d="M10.511 15.5703C10.7053 15.5703 10.8628 15.4128 10.8628 15.2185C10.8628 15.0242 10.7053 14.8667 10.511 14.8667C10.3167 14.8667 10.1592 15.0242 10.1592 15.2185C10.1592 15.4128 10.3167 15.5703 10.511 15.5703Z" fill="white"/>
<path d="M10.888 14.963C10.9527 14.963 11.0052 14.9105 11.0052 14.8457C11.0052 14.781 10.9527 14.7285 10.888 14.7285C10.8232 14.7285 10.7707 14.781 10.7707 14.8457C10.7707 14.9105 10.8232 14.963 10.888 14.963Z" fill="white"/>
<path d="M11.1267 14.7201C11.1915 14.7201 11.244 14.6676 11.244 14.6028C11.244 14.5381 11.1915 14.4856 11.1267 14.4856C11.0619 14.4856 11.0094 14.5381 11.0094 14.6028C11.0094 14.6676 11.0619 14.7201 11.1267 14.7201Z" fill="white"/>
<path d="M11.3696 14.4772C11.4344 14.4772 11.4869 14.4247 11.4869 14.3599C11.4869 14.2951 11.4344 14.2426 11.3696 14.2426C11.3048 14.2426 11.2523 14.2951 11.2523 14.3599C11.2523 14.4247 11.3048 14.4772 11.3696 14.4772Z" fill="white"/>
<path d="M12.7434 11.9978C12.8359 11.9978 12.9109 11.9228 12.9109 11.8303C12.9109 11.7378 12.8359 11.6628 12.7434 11.6628C12.6508 11.6628 12.5758 11.7378 12.5758 11.8303C12.5758 11.9228 12.6508 11.9978 12.7434 11.9978Z" fill="white"/>
<path d="M11.244 15.742C11.3366 15.742 11.4116 15.667 11.4116 15.5744C11.4116 15.4819 11.3366 15.4069 11.244 15.4069C11.1515 15.4069 11.0765 15.4819 11.0765 15.5744C11.0765 15.667 11.1515 15.742 11.244 15.742Z" fill="white"/>
<path d="M14.071 14.0961C14.2653 14.0961 14.4228 13.9386 14.4228 13.7443C14.4228 13.55 14.2653 13.3925 14.071 13.3925C13.8767 13.3925 13.7192 13.55 13.7192 13.7443C13.7192 13.9386 13.8767 14.0961 14.071 14.0961Z" fill="white"/>
<path d="M13.5433 13.8615C13.608 13.8615 13.6605 13.809 13.6605 13.7443C13.6605 13.6795 13.608 13.627 13.5433 13.627C13.4785 13.627 13.426 13.6795 13.426 13.7443C13.426 13.809 13.4785 13.8615 13.5433 13.8615Z" fill="white"/>
<path d="M13.204 13.8615C13.2688 13.8615 13.3213 13.809 13.3213 13.7443C13.3213 13.6795 13.2688 13.627 13.204 13.627C13.1393 13.627 13.0868 13.6795 13.0868 13.7443C13.0868 13.809 13.1393 13.8615 13.204 13.8615Z" fill="white"/>
<path d="M12.8648 13.8615C12.9296 13.8615 12.9821 13.809 12.9821 13.7443C12.9821 13.6795 12.9296 13.627 12.8648 13.627C12.8 13.627 12.7475 13.6795 12.7475 13.7443C12.7475 13.809 12.8 13.8615 12.8648 13.8615Z" fill="white"/>
<path d="M9.8829 14.0961C10.0772 14.0961 10.2347 13.9386 10.2347 13.7443C10.2347 13.55 10.0772 13.3925 9.8829 13.3925C9.6886 13.3925 9.5311 13.55 9.5311 13.7443C9.5311 13.9386 9.6886 14.0961 9.8829 14.0961Z" fill="white"/>
<path d="M10.4106 13.8615C10.4754 13.8615 10.5279 13.809 10.5279 13.7443C10.5279 13.6795 10.4754 13.627 10.4106 13.627C10.3458 13.627 10.2933 13.6795 10.2933 13.7443C10.2933 13.809 10.3458 13.8615 10.4106 13.8615Z" fill="white"/>
<path d="M10.754 13.8615C10.8188 13.8615 10.8713 13.809 10.8713 13.7443C10.8713 13.6795 10.8188 13.627 10.754 13.627C10.6893 13.627 10.6367 13.6795 10.6367 13.7443C10.6367 13.809 10.6893 13.8615 10.754 13.8615Z" fill="white"/>
<path d="M11.0932 13.8615C11.158 13.8615 11.2105 13.809 11.2105 13.7443C11.2105 13.6795 11.158 13.627 11.0932 13.627C11.0285 13.627 10.976 13.6795 10.976 13.7443C10.976 13.809 11.0285 13.8615 11.0932 13.8615Z" fill="white"/>
<path d="M13.8574 13.0951C13.9499 13.0951 14.0249 13.0201 14.0249 12.9276C14.0249 12.8351 13.9499 12.7601 13.8574 12.7601C13.7649 12.7601 13.6898 12.8351 13.6898 12.9276C13.6898 13.0201 13.7649 13.0951 13.8574 13.0951Z" fill="white"/>
<path d="M10.1467 14.6782C10.2393 14.6782 10.3143 14.6032 10.3143 14.5107C10.3143 14.4182 10.2393 14.3432 10.1467 14.3432C10.0542 14.3432 9.97922 14.4182 9.97922 14.5107C9.97922 14.6032 10.0542 14.6782 10.1467 14.6782Z" fill="white"/>
<path d="M13.4428 15.5704C13.6371 15.5704 13.7946 15.4129 13.7946 15.2186C13.7946 15.0243 13.6371 14.8668 13.4428 14.8668C13.2485 14.8668 13.091 15.0243 13.091 15.2186C13.091 15.4129 13.2485 15.5704 13.4428 15.5704Z" fill="white"/>
<path d="M13.0701 14.9631C13.1349 14.9631 13.1874 14.9106 13.1874 14.8458C13.1874 14.781 13.1349 14.7285 13.0701 14.7285C13.0053 14.7285 12.9528 14.781 12.9528 14.8458C12.9528 14.9106 13.0053 14.9631 13.0701 14.9631Z" fill="white"/>
<path d="M12.8272 14.7202C12.8919 14.7202 12.9444 14.6677 12.9444 14.6029C12.9444 14.5381 12.8919 14.4856 12.8272 14.4856C12.7624 14.4856 12.7099 14.5381 12.7099 14.6029C12.7099 14.6677 12.7624 14.7202 12.8272 14.7202Z" fill="white"/>
<path d="M12.5884 14.4772C12.6532 14.4772 12.7057 14.4247 12.7057 14.36C12.7057 14.2952 12.6532 14.2427 12.5884 14.2427C12.5237 14.2427 12.4712 14.2952 12.4712 14.36C12.4712 14.4247 12.5237 14.4772 12.5884 14.4772Z" fill="white"/>
<path d="M10.4818 12.6051C10.6761 12.6051 10.8336 12.4476 10.8336 12.2533C10.8336 12.0591 10.6761 11.9016 10.4818 11.9016C10.2875 11.9016 10.13 12.0591 10.13 12.2533C10.13 12.4476 10.2875 12.6051 10.4818 12.6051Z" fill="white"/>
<path d="M10.8546 12.7434C10.9193 12.7434 10.9718 12.6908 10.9718 12.6261C10.9718 12.5613 10.9193 12.5088 10.8546 12.5088C10.7898 12.5088 10.7373 12.5613 10.7373 12.6261C10.7373 12.6908 10.7898 12.7434 10.8546 12.7434Z" fill="white"/>
<path d="M11.0933 12.9863C11.158 12.9863 11.2105 12.9338 11.2105 12.869C11.2105 12.8042 11.158 12.7517 11.0933 12.7517C11.0285 12.7517 10.976 12.8042 10.976 12.869C10.976 12.9338 11.0285 12.9863 11.0933 12.9863Z" fill="white"/>
<path d="M11.3362 13.2292C11.401 13.2292 11.4535 13.1767 11.4535 13.1119C11.4535 13.0472 11.401 12.9947 11.3362 12.9947C11.2714 12.9947 11.2189 13.0472 11.2189 13.1119C11.2189 13.1767 11.2714 13.2292 11.3362 13.2292Z" fill="white"/>
<path d="M13.8658 14.6531C13.9583 14.6531 14.0333 14.5781 14.0333 14.4856C14.0333 14.3931 13.9583 14.3181 13.8658 14.3181C13.7733 14.3181 13.6983 14.3931 13.6983 14.4856C13.6983 14.5781 13.7733 14.6531 13.8658 14.6531Z" fill="white"/>
<path d="M10.1217 13.1538C10.2142 13.1538 10.2892 13.0788 10.2892 12.9863C10.2892 12.8938 10.2142 12.8188 10.1217 12.8188C10.0291 12.8188 9.95413 12.8938 9.95413 12.9863C9.95413 13.0788 10.0291 13.1538 10.1217 13.1538Z" fill="white"/>
<path d="M12.0021 23C9.06206 23 6.30211 21.8567 4.22482 19.7794C2.14753 17.7021 1 14.9379 1 11.9979C1 9.05787 2.14335 6.29792 4.22064 4.22064C6.29792 2.14335 9.06206 1 11.9979 1C14.9338 1 17.6979 2.14335 19.7752 4.22064C21.8525 6.29792 22.9958 9.06206 22.9958 11.9979C22.9958 14.9379 21.8525 17.6979 19.7752 19.7752C17.6979 21.8525 14.9379 23 12.0021 23ZM12.0021 1.91719C9.30915 1.91719 6.77955 2.96421 4.87398 4.86979C2.9684 6.77537 1.92138 9.30497 1.92138 11.9979C1.92138 14.6908 2.9684 17.2204 4.87398 19.126C6.77955 21.0316 9.30915 22.0786 12.0021 22.0786C14.695 22.0786 17.2246 21.0316 19.1302 19.126C21.0358 17.2204 22.0828 14.6908 22.0828 11.9979C22.0828 9.30497 21.0316 6.77537 19.1302 4.86979C17.2246 2.9684 14.695 1.91719 12.0021 1.91719Z" fill="white"/>
</svg>
