<svg width="24" height="24" viewBox="0 0 24 24" fill="none" xmlns="http://www.w3.org/2000/svg">
<path fill-rule="evenodd" clip-rule="evenodd" d="M11.9168 5.95593L11.9106 0.703556L12.0692 0.703369L12.0754 5.95574L11.9168 5.95593Z" fill="white"/>
<path fill-rule="evenodd" clip-rule="evenodd" d="M17.2817 14.8502L21.747 17.4785L21.6666 17.6151L17.2013 14.9869L17.2817 14.8502Z" fill="white"/>
<path fill-rule="evenodd" clip-rule="evenodd" d="M6.82256 14.9869L2.35728 17.6151L2.27682 17.4785L6.74211 14.8502L6.82256 14.9869Z" fill="white"/>
<path fill-rule="evenodd" clip-rule="evenodd" d="M11.9294 5.80109C11.9663 5.77979 12.0118 5.77985 12.0486 5.80123L17.2621 8.82778C17.2988 8.84911 17.3214 8.88839 17.3213 8.93086C17.3213 8.97333 17.2986 9.01253 17.2618 9.03373L12.0483 12.0369C12.0115 12.058 11.9662 12.058 11.9294 12.0368L6.70894 9.0213C6.67215 9.00005 6.64949 8.96078 6.64949 8.91829C6.64949 8.8758 6.67216 8.83653 6.70896 8.81529L11.9294 5.80109ZM7.00629 8.91832L11.989 11.7965L16.9648 8.93026L11.9887 6.04155L7.00629 8.91832Z" fill="white"/>
<path fill-rule="evenodd" clip-rule="evenodd" d="M6.70892 8.8154C6.74574 8.79412 6.79111 8.79412 6.82794 8.81539L12.0484 11.8309C12.0852 11.8521 12.1078 11.8914 12.1078 11.9339V17.9311C12.1078 17.9735 12.0852 18.0128 12.0485 18.034C12.0118 18.0553 11.9665 18.0554 11.9297 18.0343L6.71592 15.042C6.67901 15.0208 6.65623 14.9815 6.65618 14.9389L6.64949 8.91852C6.64944 8.876 6.6721 8.83668 6.70892 8.8154ZM6.88762 9.1246L6.89401 14.8699L11.8699 17.7257V12.0025L6.88762 9.1246Z" fill="white"/>
<path fill-rule="evenodd" clip-rule="evenodd" d="M17.2619 8.82786C17.2986 8.84911 17.3213 8.88836 17.3213 8.93084V14.9523C17.3213 14.995 17.2984 15.0344 17.2614 15.0556L12.0479 18.0345C12.0111 18.0555 11.9658 18.0554 11.9291 18.0341C11.8925 18.0128 11.8699 17.9736 11.8699 17.9312V11.934C11.8699 11.8914 11.8926 11.8521 11.9295 11.8309L17.143 8.82777C17.1798 8.80657 17.2251 8.8066 17.2619 8.82786ZM12.1078 12.0027V17.7262L17.0834 14.8832V9.13663L12.1078 12.0027Z" fill="white"/>
<path fill-rule="evenodd" clip-rule="evenodd" d="M11.992 0.400024L21.9842 6.16917V17.7069L11.992 23.4761L2 17.7069V6.16917L11.992 0.400024ZM11.992 1.04071L2.55485 6.4895V17.3866L11.992 22.8354L21.4294 17.3866V6.4895L11.992 1.04071Z" fill="white"/>
<path fill-rule="evenodd" clip-rule="evenodd" d="M21.9629 6.20057C22.0394 6.33332 21.9938 6.50296 21.8611 6.57947L11.9918 12.2682L2.15428 6.57927C2.02164 6.50257 1.9763 6.33287 2.053 6.20024C2.1297 6.0676 2.2994 6.02226 2.43204 6.09896L11.9922 11.6275L21.584 6.09876C21.7168 6.02225 21.8864 6.06783 21.9629 6.20057Z" fill="white"/>
<path fill-rule="evenodd" clip-rule="evenodd" d="M12.008 11.6703C12.1612 11.6703 12.2854 11.7945 12.2854 11.9477V23.1556C12.2854 23.3088 12.1612 23.433 12.008 23.433C11.8547 23.433 11.7305 23.3088 11.7305 23.1556V11.9477C11.7305 11.7945 11.8547 11.6703 12.008 11.6703Z" fill="white"/>
</svg>
