<?xml version="1.0" encoding="UTF-8"?>
<svg width="22px" height="22px" viewBox="0 0 22 22" version="1.1" xmlns="http://www.w3.org/2000/svg" xmlns:xlink="http://www.w3.org/1999/xlink">
    <title>Icon/22/Wallet/Blt Locked/Single Color</title>
    <g id="Icon/22/Wallet/Blt-Locked/Single-Color" stroke="none" stroke-width="1" fill="none" fill-rule="evenodd">
        <path d="M10.9982657,2 C15.7369055,2 19.8263199,5.40592593 21.7563541,9.34314815 C22.2045728,10.2539402 22.0231218,11.3480788 21.3047191,12.0664815 L21.3047191,12.0664815 L21.0948326,12.2511766 C19.9703303,11.1673548 18.4358561,10.5 16.7442808,10.5 C15.7319631,10.5 14.7759093,10.7390055 13.9303164,11.1632444 C13.808802,11.0438575 13.6771637,10.9307104 13.5373642,10.8250003 C12.0360389,9.68976656 9.96049239,9.68976656 8.45916711,10.8250003 C6.95784183,11.9602341 6.39774905,13.9531845 7.08879959,15.7011111 C6.78128666,15.6162894 6.4611284,15.5865075 6.14318867,15.6131481 C5.77304147,15.6406278 5.41602347,15.7617225 5.10583937,15.965 L5.10583937,15.965 L0.70239744,12.0664815 C-0.0195994002,11.3505543 -0.205352169,10.2561265 0.240177174,9.34314815 C2.17021142,5.40592593 6.25962583,2 10.9982657,2 Z" id="Combined-Shape" fill="#FFFFFF"></path>
        <path d="M10.9982657,11.1675454 C11.6993353,11.1675454 12.3581346,11.4105677 12.8791275,11.8287484 C11.7070647,12.746773 10.8743428,14.0726698 10.5989731,15.5906477 C9.94469585,15.6937871 9.55277708,16.0571984 9.1458562,16.5103704 C8.14025273,15.7228257 7.74594454,14.3861109 8.16375754,13.1810308 C8.58157054,11.9759507 9.71961278,11.1675454 10.9982657,11.1675454 Z" id="Combined-Shape" fill="#FFFFFF"></path>
        <path d="M5.99499591,17.3337037 C6.97941922,16.1831481 8.46487519,17.4181481 8.46487519,17.4181481 C8.66827737,17.5958261 8.92840636,17.6955955 9.19878218,17.6996296 C9.43113315,17.6966827 9.65096465,17.5941255 9.80213841,17.4181481 C9.97409359,17.1644179 10.2213509,16.9774439 10.5030392,16.8785751 L10.5,16.695312 C10.5,18.2231857 11.0574511,19.6218807 11.981568,20.7021081 C11.6951999,20.8933949 11.3569627,20.9973844 11.0088509,21 L11.0088509,21 L10.9947373,20.9859259 C10.5798347,20.987239 10.1772235,20.8455388 9.85506439,20.5848148 L9.85506439,20.5848148 Z" id="Combined-Shape" fill="#FFFFFF"></path>
        <g id="Group-6" transform="translate(11.500000, 11.500000)" fill="#FFFFFF">
            <path d="M5.25,0 C8.14949494,0 10.5,2.35050506 10.5,5.25 C10.5,8.14949494 8.14949494,10.5 5.25,10.5 C2.35050506,10.5 0,8.14949494 0,5.25 C0,2.35050506 2.35050506,0 5.25,0 Z M5.25,1.96875 L5.10654902,1.97497924 C4.20767479,2.05221141 3.50112698,2.83786998 3.5,3.79618943 L3.5,3.79618943 L3.499375,4.62475 L3.47426144,4.625 C3.06563348,4.625 2.734375,4.93967904 2.734375,5.32786842 L2.734375,5.32786842 L2.734375,7.85816308 C2.734375,8.24633928 3.06563348,8.56101832 3.47426144,8.56101832 L3.47426144,8.56101832 L7.02573856,8.56101832 C7.43436652,8.56101832 7.765625,8.24633928 7.765625,7.8581499 L7.765625,7.8581499 L7.765625,5.32785524 C7.765625,4.93967904 7.43436652,4.625 7.02573856,4.625 L7.02573856,4.625 L6.999375,4.62475 L7,3.79618943 L6.99403464,3.6463888 C6.92007415,2.70772829 6.16769779,1.96992685 5.25,1.96875 L5.25,1.96875 Z M5.25,2.81218156 L5.35989217,2.81880159 C5.8285354,2.87564205 6.19230963,3.29154814 6.19230963,3.79618943 L6.19230963,3.79618943 L6.191375,4.62475 L4.307375,4.62475 L4.30770299,3.79618943 L4.31404016,3.68143197 C4.36846334,3.19204184 4.76675507,2.81218156 5.25,2.81218156 L5.25,2.81218156 Z" id="Combined-Shape"></path>
            <path d="M6.125,6.3635068 C6.12677314,5.9487648 5.7854441,5.61112778 5.36260494,5.609375 C4.93976578,5.60763581 4.59553694,5.94242856 4.59375,6.35717056 C4.5925223,6.64385014 4.75779636,6.90619857 5.01973987,7.03335983 L4.90152291,7.84439833 C4.88967968,7.92653006 4.94796273,8.00252267 5.03169794,8.01413911 C5.03878953,8.01512475 5.04595289,8.015625 5.05311624,8.015625 L5.66561934,8.015625 C5.75018717,8.01643424 5.81940905,7.94986149 5.82024166,7.86691309 C5.82031344,7.85938001 5.819811,7.85186101 5.81873434,7.84439833 L5.70051739,7.03335983 C5.95930271,6.90625489 6.12335655,6.64735619 6.125,6.3635068 Z" id="Path" fill-rule="nonzero"></path>
        </g>
    </g>
</svg>