<svg xmlns="http://www.w3.org/2000/svg" width="22" height="22" viewBox="0 0 22 22">
    <g fill="none" fill-rule="evenodd">
        <g fill="#FFF" fill-rule="nonzero">
            <g>
                <path d="M21.242 15.233c.31 0 .464.374.245.593l-3.357 3.355c-.13.13-.307.203-.491.203H.648c-.31 0-.464-.374-.245-.593l3.357-3.355c.13-.13.307-.203.49-.203h16.992zm-3.603-6.306c.184 0 .36.073.491.203l3.357 3.355c.22.218.064.593-.245.593H4.25c-.184 0-.36-.074-.491-.204L.403 9.52c-.22-.22-.064-.593.245-.593zM21.242 2.7c.31 0 .464.374.245.593L18.13 6.648c-.13.13-.307.203-.491.203H.648c-.31 0-.464-.374-.245-.593L3.76 2.903c.13-.13.307-.203.49-.203h16.992z" transform="translate(-243 -83) translate(243 83)"/>
            </g>
        </g>
    </g>
</svg>
