<svg width="24" height="24" viewBox="0 0 24 24" fill="none" xmlns="http://www.w3.org/2000/svg">
<path fill-rule="evenodd" clip-rule="evenodd" d="M24 12C24 18.6274 18.6274 24 12 24C5.37258 24 0 18.6274 0 12C0 5.37258 5.37258 0 12 0C18.6274 0 24 5.37258 24 12ZM12 8.71563L8.31811 17.065C8.30496 17.094 8.29249 17.1223 8.28038 17.1499C8.18039 17.3773 8.10439 17.5502 7.86583 17.5502H5.43403C5.08538 17.5502 4.89308 17.4546 5.06239 17.0654L11.0086 3.39444L11.026 3.36191C11.1381 3.15135 11.2186 3 11.4735 3H12.5266C12.7812 3 12.8617 3.15133 12.9739 3.36219L12.9911 3.39444L18.9377 17.0654C19.1068 17.4546 18.9147 17.5502 18.566 17.5502H16.1342C15.8953 17.5502 15.8195 17.3774 15.7197 17.1502L15.7196 17.15C15.7075 17.1224 15.6951 17.094 15.682 17.065L12 8.71563ZM9.57316 16.5374L12.005 21.4012L14.3552 16.5374H9.57316Z" fill="white"/>
</svg>
