<svg id="kin_logo_32_32_Purple" xmlns="http://www.w3.org/2000/svg" width="31" height="32" viewBox="0 0 31 32">
    <path id="Combined-Shape" fill="#1d51ce" fill-rule="evenodd"/>
    <path id="Fill-1" d="M21,15.9v.2a5.13,5.13,0,0,0,5.1,5.132h2.8A2.106,2.106,0,0,1,31,23.343V32H22.259a2.106,2.106,0,0,1-2.1-2.113V26.33a5.13,5.13,0,0,0-5.1-5.132h-.2a5.13,5.13,0,0,0-5.1,5.132V32H0V0H9.771V5.739a5.129,5.129,0,0,0,5.1,5.132h.2a5.129,5.129,0,0,0,5.1-5.132V2.113A2.106,2.106,0,0,1,22.259,0H31V8.657a2.106,2.106,0,0,1-2.1,2.113H26.1A5.13,5.13,0,0,0,21,15.9" fill="#fff" fill-rule="evenodd"/>
</svg>
