<svg width="22px" height="22px" viewBox="0 0 22 22" version="1.1" xmlns="http://www.w3.org/2000/svg" xmlns:xlink="http://www.w3.org/1999/xlink">
    <title>Icon/22/Wallet/Ray</title>
    <g id="Icon/22/Wallet/Ray" stroke="none" stroke-width="1" fill="none" fill-rule="evenodd">
        <g id="Group-12" transform="translate(2.000000, 0.500000)" fill="#FFFFFF" fill-rule="nonzero">
            <polygon id="Path" points="17.06043 7.88124095 17.06043 15.2037808 8.99996824 19.9052513 0.935067162 15.2037808 0.935067162 5.79623847 8.99996824 1.09019876 15.1948176 4.70603971 16.1298784 4.16093713 8.99996824 0 0 5.25113588 0 15.748877 8.99996824 21 18 15.748877 18 7.33614478"></polygon>
            <path d="M6.74325998,15.2083372 L5.39460163,15.2083372 L5.39460163,10.6385522 L9.89012734,10.6385522 C10.3154552,10.6338033 10.7217935,10.4600194 11.0213077,10.1548067 C11.3208218,9.84965804 11.4893779,9.43759512 11.4905211,9.00775592 C11.4929345,8.79527494 11.4523515,8.58446249 11.3711854,8.38841013 C11.2899559,8.19229359 11.1699851,8.01510845 11.0184497,7.867636 C10.8718682,7.71541466 10.6963894,7.59470287 10.5024928,7.51275234 C10.3085961,7.43073764 10.1002826,7.38921689 9.89012734,7.39062872 L5.39460163,7.39062872 L5.39460163,6.00064633 L9.89457305,6.00064633 C10.6824172,6.00541447 11.4366644,6.32377015 11.993776,6.88666826 C12.550824,7.44960487 12.8658982,8.21173839 12.8705979,9.00775592 C12.8754247,9.6171547 12.6915627,10.212756 12.3446699,10.7111975 C12.0254041,11.1881406 11.5754978,11.5606722 11.0499508,11.7832285 C10.5295481,11.9500174 9.98647233,12.0328022 9.44053857,12.0285667 L6.74325998,12.0285667 L6.74325998,15.2083372 Z" id="Path"></path>
            <path d="M12.8391604,15.0947487 L11.265695,15.0947487 L10.0519514,12.955243 C10.532152,12.9255304 11.0058112,12.8276646 11.45902,12.6645336 L12.8391604,15.0947487 Z" id="Path"></path>
            <polygon id="Path" points="16.1208599 6.35950879 17.0514115 6.88191936 17.9820266 6.35950879 17.9820266 5.25567942 17.0514115 4.71057683 16.1208599 5.25567942"></polygon>
        </g>
    </g>
</svg>