<svg width="24" height="24" viewBox="0 0 24 24" fill="none" xmlns="http://www.w3.org/2000/svg">
<path fill-rule="evenodd" clip-rule="evenodd" d="M20.7607 15.3441C18.8208 20.3575 13.1816 22.8736 8.16545 20.9635C3.14881 19.0536 0.654862 13.4408 2.59472 8.42689C4.53459 3.413 7.2808 8.15216 12.297 10.0622C17.313 11.9718 22.7006 10.3302 20.7602 15.3437L20.7607 15.3441Z" fill="url(#paint0_linear)"/>
<path fill-rule="evenodd" clip-rule="evenodd" d="M6.90359 20.3184C2.06883 17.7645 7.42969 15.4282 10.0055 10.6149C12.5818 5.80156 11.3979 0.333026 16.2326 2.88697C21.0674 5.44092 22.8984 11.4136 20.3227 16.2274C17.7464 21.0407 11.7383 22.8724 6.90359 20.3184Z" fill="url(#paint1_linear)"/>
<path fill-rule="evenodd" clip-rule="evenodd" d="M7.69623 1.35083C7.81024 1.38727 7.92364 1.42882 8.0367 1.47693C9.90045 2.26811 10.7957 4.35988 10.0364 6.14897C9.97111 6.30274 9.89466 6.45152 9.80762 6.59409C9.69238 6.55737 9.57893 6.51526 9.46764 6.4679C7.6034 5.67681 6.70819 3.58504 7.4679 1.79538C7.534 1.63962 7.61047 1.49154 7.69623 1.35083V1.35083Z" fill="url(#paint2_linear)"/>
<defs>
<linearGradient id="paint0_linear" x1="12.9213" y1="15.0463" x2="4.76927" y2="6.74573" gradientUnits="userSpaceOnUse">
<stop stop-color="#F27038"/>
<stop offset="1" stop-color="#C45B26"/>
</linearGradient>
<linearGradient id="paint1_linear" x1="6.19934" y1="23.5973" x2="23.9054" y2="2.12182" gradientUnits="userSpaceOnUse">
<stop stop-color="#E05B21"/>
<stop offset="1" stop-color="#F4B544"/>
</linearGradient>
<linearGradient id="paint2_linear" x1="8.0755" y1="1.28395" x2="10.3606" y2="6.22885" gradientUnits="userSpaceOnUse">
<stop stop-color="#1AB381"/>
<stop offset="1" stop-color="#008D5F"/>
</linearGradient>
</defs>
</svg>
