<svg xmlns="http://www.w3.org/2000/svg" xmlns:xlink="http://www.w3.org/1999/xlink" width="22" height="22" viewBox="0 0 22 22">
    <defs>
        <path id="d499iie7ta" d="M18.643 6.236c-.932-.896-2.222-2.264-3.272-3.234l-.062-.046c-.103-.086-.22-.154-.345-.2C12.432 2.264.646-.03.416 0 .352.01.29.034.236.071L.177.12C.104.197.05.29.016.392L0 .434v.265c1.327 3.846 6.565 16.443 7.597 19.4.062.2.18.582.4.601h.05c.119 0 .622-.692.622-.692s8.998-11.36 9.909-12.569c.118-.149.222-.309.31-.478.047-.27-.047-.545-.245-.725zM10.978 7.56l3.84-3.315 2.253 2.16-6.093 1.155zm-1.492-.217l-6.612-5.64 10.698 2.053-4.086 3.587zm.597 1.478l6.767-1.135-7.737 9.703.97-8.568zM1.976 2.264L8.933 8.41l-1.007 8.985-5.95-15.13z"/>
    </defs>
    <g fill="none" fill-rule="evenodd">
        <g>
            <g>
                <path d="M0 0H22V22H0z" transform="translate(-95 -14) translate(95 14)"/>
                <g transform="translate(-95 -14) translate(95 14) translate(2 1)">
                    <mask id="45qonzir1b" fill="#fff">
                        <use xlink:href="#d499iie7ta"/>
                    </mask>
                    <use fill="#FFF" fill-rule="nonzero" xlink:href="#d499iie7ta"/>
                    <g mask="url(#45qonzir1b)">
                        <path d="M0 0H22V22H0z" transform="translate(-2 -1)"/>
                    </g>
                </g>
            </g>
        </g>
    </g>
</svg>
