<svg xmlns="http://www.w3.org/2000/svg" width="22" height="22" viewBox="0 0 22 22">
    <g fill="none" fill-rule="evenodd">
        <g fill="#FFF" fill-rule="nonzero">
            <g>
                <path d="M20.643 7.236c-.932-.896-2.222-2.264-3.272-3.234l-.062-.046c-.103-.086-.22-.154-.345-.2C14.432 3.264 2.646.97 2.416 1c-.064.01-.126.034-.18.071l-.059.049c-.073.077-.128.17-.161.272L2 1.434v.265c1.327 3.846 6.565 16.443 7.597 19.4.062.2.18.582.4.601h.05c.119 0 .622-.692.622-.692s8.998-11.36 9.909-12.569c.118-.149.222-.309.31-.478.047-.27-.047-.545-.245-.725zM12.978 8.56l3.84-3.315 2.253 2.16-6.093 1.155zm-1.492-.217l-6.612-5.64 10.698 2.053-4.086 3.587zm.597 1.478l6.767-1.135-7.737 9.703.97-8.568zM3.976 3.264l6.957 6.146-1.007 8.985-5.95-15.13z" transform="translate(-95 -14) translate(95 14)"/>
            </g>
        </g>
    </g>
</svg>
