<svg width="24" height="24" viewBox="0 0 24 24" fill="none" xmlns="http://www.w3.org/2000/svg">
<path fill-rule="evenodd" clip-rule="evenodd" d="M23.7342 10.0107C21.6287 5.71556 17.1675 2 11.9981 2C6.82868 2 2.3675 5.71556 0.262011 10.0107C-0.224021 11.0067 -0.0213811 12.2006 0.766252 12.9816L5.57001 17.2345C5.90839 17.0128 6.29786 16.8807 6.70166 16.8507C7.0485 16.8216 7.39777 16.8541 7.73324 16.9467C6.97936 15.0398 7.59037 12.8657 9.22818 11.6273C10.866 10.3888 13.1302 10.3888 14.768 11.6273C16.4058 12.8657 17.0169 15.0398 16.263 16.9467C16.5984 16.8541 16.9477 16.8216 17.2946 16.8507C17.6985 16.88 18.0881 17.0122 18.4262 17.2345L23.2415 12.9816C24.0252 12.1979 24.2232 11.0043 23.7342 10.0107Z" fill="#92C9EE"/>
<path fill-rule="evenodd" clip-rule="evenodd" d="M12.002 16.7931C12.9912 16.7931 13.4916 17.2422 14.0189 17.8295C15.1159 16.9703 15.5461 15.5121 15.0903 14.1975C14.6345 12.8828 13.393 12.0009 11.9981 12.0009C10.6032 12.0009 9.36171 12.8828 8.90592 14.1975C8.45012 15.5121 8.88028 16.9703 9.9773 17.8295C10.5046 17.2422 11.0089 16.7931 11.9943 16.7931H12.002Z" fill="#347EB8"/>
<path fill-rule="evenodd" clip-rule="evenodd" d="M12.0097 22.7273C12.4618 22.7239 12.8986 22.5637 13.2452 22.2743L17.4524 18.7085C16.3708 17.4533 14.758 18.8006 14.758 18.8006C14.5411 18.9978 14.262 19.1132 13.9689 19.1269C13.7152 19.1247 13.475 19.0126 13.3107 18.8198C13.0216 18.3933 12.5374 18.1396 12.0212 18.1442H11.9866C11.469 18.1383 10.9831 18.3921 10.6932 18.8198C10.5283 19.0118 10.2885 19.1236 10.035 19.1269C9.74008 19.1225 9.4563 19.0136 9.23441 18.8198C9.23441 18.8198 7.61391 17.4725 6.54 18.7277L10.751 22.2743C11.1024 22.5588 11.5416 22.7133 11.9943 22.7119L12.0097 22.7273Z" fill="#347EB8"/>
<path opacity="0.5" fill-rule="evenodd" clip-rule="evenodd" d="M10.7741 12.237C11.0635 13.0846 11.6895 13.7764 12.5054 14.1502C13.3214 14.524 14.2556 14.547 15.089 14.2137C14.7996 13.3661 14.1736 12.6743 13.3576 12.3005C12.5417 11.9267 11.6075 11.9037 10.7741 12.237Z" fill="#92C9EE"/>
</svg>
