<svg width="24" height="24" viewBox="0 0 24 24" fill="none" xmlns="http://www.w3.org/2000/svg">
<path fill-rule="evenodd" clip-rule="evenodd" d="M12 6.52L8.11584 10.4042L8.11592 10.404L5.856 8.144L12 2L18.146 8.14584L15.886 10.4058L12 6.52ZM4.26008 9.73962L2 12L4.25992 14.2596L6.52 11.9995L4.26008 9.73962ZM8.11583 13.5961L12 17.48L15.8859 13.5942L18.1471 15.853L18.146 15.8542L12 22L5.85599 15.856L5.85279 15.8528L8.11583 13.5961ZM19.7401 9.74088L17.48 12.001L19.74 14.2609L22 12.0008L19.7401 9.74088Z" fill="#F3BA2F"/>
<path d="M14.2922 11.9988H14.2931L12 9.70551L10.305 11.4L10.1103 11.5948L9.70872 11.9965L9.70552 11.9996L9.70872 12.0029L12 14.2945L14.2933 12.0012L14.2944 11.9999L14.2923 11.9988" fill="#F3BA2F"/>
</svg>
