<svg width="24" height="24" viewBox="0 0 24 24" fill="none" xmlns="http://www.w3.org/2000/svg">
<path d="M12 23C18.0753 23 23 18.0753 23 12C23 5.9247 18.0753 1 12 1C5.9247 1 1 5.9247 1 12C1 18.0753 5.9247 23 12 23Z" fill="#070A0E"/>
<path fill-rule="evenodd" clip-rule="evenodd" d="M7.35469 15.6883C7.02579 15.487 6.82449 15.1295 6.82449 14.7445V12.5951C6.82449 12.3399 7.03239 12.1331 7.28759 12.1342C7.36899 12.1342 7.44929 12.1562 7.51969 12.1969L12.3696 15.025C12.6534 15.19 12.8283 15.4936 12.8283 15.8225V18.0489C12.8294 18.3547 12.5819 18.6033 12.2761 18.6033C12.1738 18.6033 12.0726 18.5747 11.9857 18.5219L7.35469 15.6883ZM14.5839 11.6084C14.8677 11.7734 15.0415 12.0781 15.0426 12.4059V16.9247C15.0426 17.0578 14.9711 17.181 14.8545 17.2459L13.793 17.8432C13.7798 17.8509 13.7655 17.8564 13.7501 17.8608V15.3517C13.7501 15.0272 13.5796 14.7258 13.3002 14.5586L9.04099 12.011V9.1785C9.04099 8.9233 9.24889 8.7165 9.50409 8.7176C9.58549 8.7176 9.66579 8.7396 9.73619 8.7803L14.5839 11.6084ZM16.7069 8.271C16.9918 8.436 17.1667 8.7407 17.1667 9.0696V15.6696C17.1656 15.8049 17.0908 15.9292 16.972 15.9941L15.9655 16.5375V11.9428C15.9655 11.6183 15.795 11.318 15.5178 11.1508L11.164 8.5394V5.85319C11.164 5.77179 11.186 5.69149 11.2256 5.62109C11.3543 5.40109 11.637 5.32629 11.857 5.45389L16.7069 8.271Z" fill="#00D395"/>
</svg>
