<svg width="24" height="24" viewBox="0 0 24 24" fill="none" xmlns="http://www.w3.org/2000/svg">
<path d="M12 23C18.0751 23 23 18.0751 23 12C23 5.92487 18.0751 1 12 1C5.92487 1 1 5.92487 1 12C1 18.0751 5.92487 23 12 23Z" fill="#103F68"/>
<path d="M11.9862 4.44986L18.5312 8.21942V15.7819L11.9938 19.5625L11.9409 19.5494L5.46875 15.7819V8.21942L11.9409 4.44986H11.9862ZM11.9649 5.23223L6.15625 8.61473V15.3866L11.9643 18.7684L12.6737 18.358L17.8438 15.3845V8.61611L12.6737 5.62548L11.9649 5.23223ZM7.05619 12.5266L8.77563 11.241L10.2957 12.2117V13.958L11.4459 15.0662L11.4452 15.586L10.3369 16.6241H9.40125L7.05688 12.5266H7.05619ZM12.4895 15.5874L12.4874 15.0649L13.6335 13.958V12.2117L15.1371 11.2286L16.8531 12.5273L14.5204 16.6124H13.5964L12.4895 15.5874ZM10.8601 12.2117L10.3005 10.7467H13.6266L13.078 12.2117L13.2403 13.8494L11.9567 13.8521L10.6883 13.8542L10.8601 12.2117ZM11.9567 10.3452L8.79556 10.3438L9.38338 7.71755H14.5149L15.1336 10.3472L11.9567 10.3452Z" fill="white"/>
</svg>
