<svg width="24" height="24" viewBox="0 0 24 24" fill="none" xmlns="http://www.w3.org/2000/svg">
<path fill-rule="evenodd" clip-rule="evenodd" d="M5.15102 19.2461V19.2975L5.14854 19.2994V19.3081H11.1202C11.7961 19.3174 12.4696 19.2635 13.1337 19.1445C13.8332 19.0076 14.5147 18.792 15.1645 18.4996C15.4463 18.3691 15.7167 18.2113 15.9895 18.0522C16.0585 18.0119 16.1277 17.9715 16.1973 17.9315C16.5182 17.7028 16.8255 17.455 17.1179 17.1917C17.9184 16.4681 18.5379 15.5655 18.9251 14.5587C18.9511 14.446 19.0614 14.3735 19.1748 14.3952H20.8011C20.9305 14.3952 20.9733 14.3518 20.9733 14.2056V13.1641C20.982 13.0644 20.982 12.9634 20.9733 12.8637C20.9733 12.8376 20.98 12.8116 20.9867 12.7857C21 12.7339 21.0133 12.6823 20.9733 12.6307H19.6147C19.4505 12.6307 19.4505 12.6134 19.4505 12.4672C19.4976 11.943 19.4976 11.4171 19.4505 10.8929C19.4418 10.738 19.4765 10.738 19.5967 10.738H20.7843C20.9225 10.738 20.9739 10.7034 20.9739 10.5658V9.15452C20.9696 9.06103 20.9675 9.01365 20.9427 8.98963C20.9172 8.96494 20.8678 8.96494 20.7676 8.96494H19.2274C19.1073 8.98539 18.992 8.90423 18.9703 8.78404C18.7938 8.32249 18.5689 7.88076 18.2981 7.46753C18.0256 7.05988 17.7183 6.67701 17.3775 6.32325C16.9246 5.87099 16.416 5.47821 15.8634 5.15295C15.0301 4.6691 14.1188 4.33021 13.1703 4.15488C12.71 4.07001 12.2447 4.01859 11.7763 4H5.32325C5.15102 4 5.15102 4.03469 5.15102 4.17223V8.81006C5.15102 8.97362 5.11633 8.97362 4.98746 8.97362H3.13754C3 8.97362 3 8.99902 3 9.09381V10.6079C3 10.7455 3.04275 10.7455 3.14621 10.7455H5.01348C5.15102 10.7455 5.15102 10.7709 5.15102 10.8743V12.4919C5.15102 12.6382 5.10765 12.6382 4.99614 12.6382H3V14.2731C3 14.4106 3.04275 14.4106 3.14621 14.4106H5.01348C5.15102 14.4106 5.15102 14.4274 5.15102 14.5395V16.5617V17.2413V19.2461ZM17.0343 8.82617C17.0492 8.86458 17.0492 8.90733 17.0343 8.94636H17.0758C17.0585 8.99778 16.9723 9.01513 16.9723 9.01513H7.04308C6.87953 9.01513 6.87953 8.98044 6.87953 8.85157V5.79727C6.87953 5.68514 6.89687 5.63372 7.02573 5.63372H11.6462C12.1381 5.62938 12.6288 5.6808 13.1089 5.7886C14.0605 6.01411 14.9459 6.46265 15.6905 7.09644C15.8392 7.20733 15.9718 7.33805 16.0864 7.48364C16.3293 7.72464 16.5424 7.9929 16.7233 8.28408C16.8435 8.45445 16.9469 8.63598 17.0343 8.82617ZM17.4463 12.6289H12.2149H7.08645C6.88014 12.6289 6.88014 12.6289 6.88014 12.4312V10.8998C6.88014 10.7789 6.91484 10.7362 7.0437 10.7362H17.455C17.5671 10.7362 17.6185 10.7789 17.6185 10.8824C17.6613 11.4152 17.6613 11.9505 17.6185 12.4827C17.6105 12.6289 17.5578 12.6289 17.4463 12.6289ZM17.0343 14.4187C16.8881 14.4026 16.7406 14.4026 16.5944 14.4187H7.05237C6.92351 14.4187 6.88014 14.4187 6.88014 14.5909V17.5771C6.88014 17.7146 6.88014 17.7493 7.05237 17.7493H11.4579C11.6685 17.7654 11.8792 17.7506 12.0855 17.7066C12.7248 17.6607 13.3536 17.522 13.9534 17.2933C14.1714 17.2178 14.3821 17.1193 14.5809 17.0009H14.641C15.6738 16.4638 16.5127 15.62 17.0417 14.5841C17.0417 14.5841 17.1018 14.454 17.0343 14.4199V14.4187Z" fill="#F5AC37"/>
</svg>
