<svg width="24" height="24" viewBox="0 0 24 24" fill="none" xmlns="http://www.w3.org/2000/svg">
<g clip-path="url(#clip0)">
<path d="M7.65401 5.0011C12.4354 4.99963 17.217 4.99963 21.999 5.0011C22.0004 6.54662 22.0004 8.09187 21.999 9.63686C17.2175 9.63833 12.4358 9.63833 7.65401 9.63686C7.65248 8.09134 7.65248 6.54609 7.65401 5.0011Z" fill="#02A6C2"/>
<path d="M2.006 11.3809C3.54858 11.3729 5.09142 11.3729 6.63453 11.3809C6.64253 12.9235 6.64253 14.4663 6.63453 16.0094C5.09149 16.0174 3.54864 16.0175 2.006 16.0098C1.998 14.467 1.998 12.924 2.006 11.3809Z" fill="#5FCADE"/>
<path d="M7.65762 11.3809C11.1087 11.3736 14.5596 11.3736 18.0102 11.3809C18.0176 12.9235 18.0176 14.4664 18.0102 16.0095C14.5592 16.0167 11.1083 16.0167 7.65762 16.0095C7.65042 14.4668 7.65042 12.924 7.65762 11.3809Z" fill="#5FCADE"/>
<path d="M7.66192 17.7621C9.20188 17.7454 10.7416 17.7454 12.281 17.7621C12.297 19.3011 12.2972 20.8408 12.2817 22.3813C10.7417 22.3965 9.20208 22.3962 7.66272 22.3805C7.64672 20.8416 7.64645 19.3022 7.66192 17.7621Z" fill="#ABEBF4"/>
</g>
<defs>
<clipPath id="clip0">
<rect width="20" height="17.3924" fill="white" transform="translate(2 5)"/>
</clipPath>
</defs>
</svg>
