<svg width="24" height="24" viewBox="0 0 24 24" fill="none" xmlns="http://www.w3.org/2000/svg">
<path fill-rule="evenodd" clip-rule="evenodd" d="M21.9091 9.27273C21.9091 9.27273 21.9091 9.36364 21.8182 9.36364C21.6364 10.0909 19.5455 14.0909 18.8182 14.8182L18.7273 14.9091L18 15.6364L22 17.5455C19.7273 20.1818 16.1818 21.9091 12.0909 21.9091C8 21.9091 4.45455 20.1818 2.18182 17.5455L2 17.3636L5.81818 15.6364L5.45455 15.2727L5 14.9091C4.45455 14.4545 2.45455 10.5455 2.18182 9.54545L2.09091 9.45455C3.27273 10.2727 6.54545 11.0909 10.4545 11.2727H10.8182H11.1818H11.8182H12.4545H12.7273H13.0909C17 11.0909 20.0909 10.3636 21.4545 9.54545L21.5455 9.45455L21.9091 9.27273ZM6.54545 12L6.81818 12.9091C7 13.4545 7.18182 14 7.36364 14.4545L7.54545 14.8182L8 15.6364C8.09091 15.7273 8.09091 15.8182 8.18182 15.9091L8.27273 16L8.63636 16.2727C9.27273 16.6364 9.90909 17 10.7273 17.1818L11 17.2727L11.8182 17.4545H12H12.0909H12.2727L13.0909 17.2727C13.9091 17.0909 14.5455 16.8182 15.1818 16.4545L15.4545 16.2727L15.8182 16C15.9091 15.9091 16 15.8182 16 15.7273L16.0909 15.6364L16.5455 14.8182C16.8182 14.2727 17 13.8182 17.1818 13.2727L17.2727 12.8182L17.4545 12C16.9091 13 15.9091 13.6364 14.7273 13.8182H14.5455H14.3636C13.4545 13.7273 12.6364 13.1818 12.1818 12.4545L12.0909 12.2727H12L11.9091 12.4545C11.4545 13.1818 10.6364 13.6364 9.72727 13.8182H9.54545H9.36364H9.18182C8 13.7273 7 13 6.54545 12ZM12 2C12.7273 2 13.7273 2.54545 15.1818 3.72727L15.3636 3.90909L16 4.45455L17.7273 5.90909L18.9091 6.27273C19.0909 6.36364 19.2727 6.36364 19.4545 6.45455L19.8182 6.54545H20.0909L20.4545 6.63636L20.6364 6.72727L20.8182 6.81818C21.6364 7.09091 22 7.45455 22 7.90909V8V8.09091L21.9091 8.18182L21.8182 8.27273C20.5455 9.18182 17.2727 10 13.2727 10.1818H12.9091H12.6364H12H11.3636H10.9091C6.72727 10 3.36364 9.18182 2.09091 8.27273C2 8.18182 2 8 2 7.90909C2 7.36364 2.45455 7 3.36364 6.63636C3.18182 6.45455 3.18182 6.36364 3 6.18182C3.27273 5.90909 3.72727 5.63636 4.09091 5.54545C4.81818 5.45455 5.27273 5.63636 5.72727 5.72727C5.36364 5.54545 4.63636 4.81818 4.45455 4.54545C4.09091 3.81818 4.36364 3.27273 4.54545 3V2.90909L4.63636 2.81818L4.72727 2.72727H4.81818C5 2.72727 5.72727 2.72727 6 3C6.54545 3.81818 6.45455 4.72727 6.72727 5.18182C6.90909 4.72727 6.81818 4.27273 7.18182 3.72727C7.45455 3.09091 8.54545 2.36364 9.36364 2.54545C9.36364 2.81818 9.54545 3 9.45455 3.36364C10.5455 2.45455 11.3636 2 12 2Z" fill="#06803F"/>
</svg>
