<svg width="24" height="24" viewBox="0 0 24 24" fill="none" xmlns="http://www.w3.org/2000/svg">
<path d="M12 22C17.5228 22 22 17.5228 22 12C22 6.47715 17.5228 2 12 2C6.47715 2 2 6.47715 2 12C2 17.5228 6.47715 22 12 22Z" fill="url(#paint0_linear)"/>
<path d="M7.07799 15V10.2933L10.6473 12.9797V15H11.5583V12.79C11.5582 12.7079 11.539 12.6269 11.5022 12.5535C11.4655 12.48 11.4123 12.4161 11.3467 12.3667L7.01799 9.10768C6.93882 9.04888 6.84489 9.01318 6.74664 9.00455C6.6484 8.99592 6.54968 9.0147 6.46147 9.05881C6.37326 9.10291 6.299 9.17062 6.24696 9.25439C6.19491 9.33816 6.16712 9.43473 6.16666 9.53335V15H7.07799ZM16.9493 15V10.2933L13.38 12.9797V15H12.469V12.79C12.4692 12.7079 12.4884 12.6269 12.5251 12.5535C12.5618 12.48 12.6151 12.4161 12.6807 12.3667L17.0093 9.10901C17.0884 9.05027 17.1822 9.01459 17.2803 9.0059C17.3785 8.99722 17.4771 9.01589 17.5653 9.05984C17.6534 9.10378 17.7277 9.17129 17.7798 9.25487C17.832 9.33845 17.86 9.43484 17.8607 9.53335V15H16.9493Z" fill="white"/>
<defs>
<linearGradient id="paint0_linear" x1="12" y1="2" x2="12" y2="22" gradientUnits="userSpaceOnUse">
<stop stop-color="#4FA89B"/>
<stop offset="1" stop-color="#6ACEBB"/>
</linearGradient>
</defs>
</svg>
