<svg width="24" height="24" viewBox="0 0 24 24" fill="none" xmlns="http://www.w3.org/2000/svg">
<path d="M12 10.9623C14.751 10.9623 16.9811 8.73214 16.9811 5.98113C16.9811 3.23013 14.751 1 12 1C9.24899 1 7.01886 3.23013 7.01886 5.98113C7.01886 8.73214 9.24899 10.9623 12 10.9623Z" fill="#88BDF3"/>
<path d="M12 23C14.751 23 16.9811 20.7699 16.9811 18.0189C16.9811 15.2679 14.751 13.0378 12 13.0378C9.24899 13.0378 7.01886 15.2679 7.01886 18.0189C7.01886 20.7699 9.24899 23 12 23Z" fill="#3075EE"/>
<path d="M18.0189 16.9811C20.7699 16.9811 23 14.751 23 12C23 9.24899 20.7699 7.01886 18.0189 7.01886C15.2678 7.01886 13.0377 9.24899 13.0377 12C13.0377 14.751 15.2678 16.9811 18.0189 16.9811Z" fill="#5795F1"/>
<path d="M5.98113 16.9811C8.73214 16.9811 10.9623 14.751 10.9623 12C10.9623 9.24899 8.73214 7.01886 5.98113 7.01886C3.23013 7.01886 1 9.24899 1 12C1 14.751 3.23013 16.9811 5.98113 16.9811Z" fill="#205FEC"/>
<path d="M10.8274 10.8273C9.93955 10.6114 9.12819 10.1555 8.48209 9.50942C7.836 8.86333 7.38007 8.05197 7.16418 7.16412C8.05046 7.38329 8.86006 7.84032 9.50563 8.48589C10.1512 9.13146 10.6082 9.94106 10.8274 10.8273Z" fill="#134BEF"/>
<path d="M7.15381 16.8462C7.36969 15.9584 7.82562 15.147 8.47172 14.5009C9.11781 13.8548 9.92917 13.3989 10.817 13.183C10.5978 14.0693 10.1408 14.8789 9.49525 15.5244C8.84968 16.17 8.04008 16.627 7.15381 16.8462Z" fill="#0932E8"/>
<path d="M13.1727 13.1727C14.0605 13.3886 14.8719 13.8445 15.518 14.4906C16.1641 15.1367 16.62 15.948 16.8359 16.8359C15.9496 16.6167 15.14 16.1597 14.4944 15.5141C13.8489 14.8685 13.3918 14.0589 13.1727 13.1727Z" fill="#164BEA"/>
<path d="M16.8463 7.15378C16.6304 8.04162 16.1744 8.85298 15.5283 9.49907C14.8822 10.1452 14.0709 10.6011 13.183 10.817C13.4022 9.93071 13.8592 9.12111 14.5048 8.47554C15.1504 7.82997 15.96 7.37295 16.8463 7.15378Z" fill="#3170F1"/>
</svg>
