<svg width="24" height="24" viewBox="0 0 24 24" fill="none" xmlns="http://www.w3.org/2000/svg">
<circle cx="12" cy="12" r="11" fill="white"/>
<path d="M10.6338 1.05829C5.88881 1.70292 2.06984 5.27929 1.19669 9.89767C0.649859 12.8118 1.2496 15.7347 2.91654 18.2337C3.49865 19.0991 4.95391 20.565 5.79179 21.1213C7.07066 21.9602 8.37598 22.5077 9.88416 22.8344C10.9249 23.0552 13.0769 23.0552 14.1177 22.8344C16.2697 22.3752 18.0072 21.4745 19.5418 20.0263C21.1647 18.481 22.2407 16.6089 22.7169 14.4984C23.546 10.8425 22.5317 7.12488 19.9652 4.39624C18.457 2.80674 16.2697 1.59695 14.1 1.18192C13.1916 1.0053 11.4541 0.943491 10.6338 1.05829ZM13.1034 1.93251C15.7229 2.23275 18.2012 3.575 19.8152 5.5707C20.856 6.86879 21.4557 8.06975 21.8526 9.7034C22.0466 10.4805 22.0819 10.8337 22.0907 11.911C22.0907 13.4476 21.932 14.3924 21.4293 15.664C18.7745 22.49 9.99882 24.3356 4.85689 19.1521C1.95519 16.238 1.09967 11.9993 2.64313 8.17571C3.42809 6.2065 5.06857 4.30793 6.88544 3.27476C8.86989 2.13562 10.9337 1.69409 13.1034 1.93251Z" fill="black"/>
<path d="M4.88808 9.40316C3.74011 9.81819 3.00718 11.2399 3.27209 12.5645C3.40455 13.2268 3.55467 13.5359 3.96971 13.9686C4.5172 14.5602 4.87042 14.6927 5.83295 14.6927C6.60121 14.6927 6.71601 14.6662 7.13987 14.4366C7.92579 13.995 8.35849 13.2974 8.45563 12.3084C8.57925 10.9485 7.79334 9.67691 6.63653 9.35017C6.18618 9.22655 5.32078 9.25304 4.88808 9.40316ZM6.82197 10.507C7.34298 10.8867 7.60789 11.7609 7.42245 12.5292C7.06923 14.0127 5.11768 14.3041 4.44656 12.9707C4.04035 12.176 4.25228 10.9308 4.87042 10.4981C5.3826 10.1273 6.29214 10.1361 6.82197 10.507Z" fill="black"/>
<path d="M16.8358 9.43847C15.1757 10.1008 14.7077 12.5468 15.9616 14.0304C16.6416 14.8428 18.2487 14.9929 18.964 14.3041L19.1583 14.1187L19.1848 14.3659C19.2113 14.5867 19.2378 14.6043 19.6528 14.6043H20.0943L20.1208 13.2091L20.1473 11.8227H18.9022H17.6659V12.2642V12.7058H18.4165C19.2289 12.7058 19.2554 12.7234 19.0258 13.2003C18.8669 13.527 18.3017 13.8537 17.8779 13.8537C16.8623 13.8537 16.253 13.1385 16.253 11.9817C16.2619 10.7012 17.0831 9.9683 18.2046 10.2332C18.6373 10.3392 19.0788 10.7189 19.0788 10.9926C19.0788 11.0809 19.2113 11.1163 19.6086 11.1163H20.1296L20.006 10.7189C19.7323 9.79169 19.0523 9.32367 17.9308 9.28835C17.4363 9.27069 17.1626 9.30601 16.8358 9.43847Z" fill="black"/>
<path d="M9.18857 11.9994V14.6485H9.6301H10.0716L10.0893 12.8647L10.1158 11.0721L10.7692 12.8647L11.4227 14.6573L11.8642 14.6309L12.3058 14.6044L12.9504 12.8383L13.595 11.0721L13.6215 12.8383L13.648 14.6044L14.116 14.6309L14.5752 14.6573L14.5575 12.0258L14.5311 9.39434H13.9217H13.3036L12.5972 11.3547C12.2086 12.4409 11.8642 13.2974 11.8377 13.2533C11.8024 13.218 11.4845 12.3791 11.1313 11.3812C10.7781 10.3834 10.4425 9.51797 10.3984 9.45615C10.3454 9.39434 10.0981 9.35019 9.75372 9.35019H9.18857V11.9994Z" fill="black"/>
</svg>
