<svg width="24" height="24" viewBox="0 0 24 24" fill="none" xmlns="http://www.w3.org/2000/svg">
<path d="M12 23C18.0751 23 23 18.0751 23 12C23 5.92487 18.0751 1 12 1C5.92487 1 1 5.92487 1 12C1 18.0751 5.92487 23 12 23Z" fill="url(#paint0_linear)"/>
<path d="M12.4953 4.00967C14.9917 4.00967 17.0154 6.06718 17.0154 8.60523V11.2477C17.0154 13.7857 14.9917 15.8433 12.4953 15.8433C12.1031 15.8433 11.7226 15.7925 11.3599 15.6971L11.3599 16.0091C11.3599 17.8657 9.87236 19.3744 8.02589 19.4044L7.96985 19.4048V9.29456L7.97504 9.29449L7.97518 8.60523C7.97518 6.06718 9.9989 4.00967 12.4953 4.00967ZM12.4953 7.45635C11.8712 7.45635 11.3653 7.97075 11.3653 8.60523V11.2477C11.3653 11.8822 11.8712 12.3966 12.4953 12.3966C13.1194 12.3966 13.6253 11.8822 13.6253 11.2477V8.60523C13.6253 7.97075 13.1194 7.45635 12.4953 7.45635Z" fill="white"/>
<defs>
<linearGradient id="paint0_linear" x1="12" y1="1" x2="12" y2="23" gradientUnits="userSpaceOnUse">
<stop stop-color="#7E46F2"/>
<stop offset="1" stop-color="#46279A"/>
</linearGradient>
</defs>
</svg>
