<svg width="24" height="24" viewBox="0 0 24 24" fill="none" xmlns="http://www.w3.org/2000/svg">
<path d="M12 23C18.0751 23 23 18.0751 23 12C23 5.92487 18.0751 1 12 1C5.92487 1 1 5.92487 1 12C1 18.0751 5.92487 23 12 23Z" fill="url(#paint0_linear)"/>
<path d="M8.37679 9.26516C8.28886 9.15601 8.15546 9.09537 8.01295 9.09537H5.07497C5.05072 9.09537 5.02949 9.08628 5.0113 9.07112C4.99614 9.05596 4.98705 9.03777 4.98705 9.01654V7.03666C4.98705 7.01544 4.99614 6.99725 5.0113 6.98209C5.02949 6.9639 5.05072 6.9548 5.07497 6.95783H8.17971C8.96196 6.95783 9.63809 7.27922 10.2081 7.91897L10.9631 8.84069L9.49256 10.6326L8.37679 9.26516ZM13.804 7.90987C14.371 7.27619 15.0502 6.95783 15.8415 6.95783H18.9372C18.9584 6.9548 18.9796 6.9639 18.9948 6.97602C19.0099 6.99118 19.016 7.01241 19.013 7.03666V9.01654C19.013 9.03777 19.0069 9.05596 18.9948 9.07112C18.9796 9.08931 18.9584 9.09841 18.9372 9.09537H15.9992C15.8597 9.09234 15.7263 9.15601 15.6353 9.26516L13.4705 11.8999L15.6444 14.5529C15.7324 14.653 15.8627 14.7136 15.9961 14.7106H18.9341C18.9553 14.7076 18.9796 14.7197 18.9917 14.7348C19.0039 14.753 19.013 14.7773 19.0099 14.7985V16.7784C19.0099 16.7996 19.0039 16.8178 18.9917 16.833C18.9766 16.8512 18.9553 16.8603 18.9341 16.8572H15.8415C15.0502 16.8572 14.3771 16.5358 13.8131 15.8961L12.0121 13.6979L10.2111 15.8961C9.64416 16.5358 8.96499 16.8572 8.17365 16.8572H5.07497C5.05375 16.8603 5.02949 16.8481 5.01737 16.833C5.00221 16.8148 4.99614 16.7905 4.99917 16.7693V14.7894C4.99917 14.7682 5.00524 14.75 5.01737 14.7348C5.03252 14.7167 5.05375 14.7076 5.07497 14.7106H8.01295C8.15243 14.7106 8.28583 14.6469 8.37679 14.5408L10.5022 11.9454L13.804 7.90987Z" fill="#00D1FF"/>
<defs>
<linearGradient id="paint0_linear" x1="12.0015" y1="0.999936" x2="12.0015" y2="6.82133" gradientUnits="userSpaceOnUse">
<stop stop-color="#090220"/>
<stop offset="1" stop-color="#170659"/>
</linearGradient>
</defs>
</svg>
