<svg width="24" height="24" viewBox="0 0 24 24" fill="none" xmlns="http://www.w3.org/2000/svg">
<circle cx="12" cy="12" r="12" fill="white"/>
<path d="M8.79273 2.91973C8.53941 2.88354 8.52734 2.87148 8.64797 2.85942C8.87717 2.82323 9.40793 2.87148 9.78188 2.95592C10.6504 3.16099 11.4345 3.69175 12.2668 4.62059L12.484 4.87391L12.7976 4.82566C14.1366 4.60853 15.5117 4.77741 16.6577 5.30818C16.9713 5.45293 17.4659 5.74244 17.5262 5.81482C17.5504 5.83894 17.5866 5.99576 17.6107 6.15258C17.6951 6.71953 17.6589 7.14173 17.478 7.46743C17.3815 7.64837 17.3815 7.69662 17.4418 7.85344C17.49 7.97407 17.6348 8.05851 17.7675 8.05851C18.057 8.05851 18.3586 7.60012 18.5033 6.96079L18.5636 6.70747L18.6722 6.8281C19.2874 7.51568 19.7699 8.46865 19.8423 9.14417L19.8664 9.32511L19.7579 9.16829C19.5769 8.89085 19.408 8.7099 19.1789 8.55309C18.7687 8.27564 18.3344 8.1912 17.1885 8.13089C16.1511 8.07057 15.56 7.98613 14.981 7.79313C13.9918 7.46743 13.4852 7.04523 12.3151 5.48912C11.7964 4.80154 11.4707 4.42759 11.145 4.11395C10.4333 3.42637 9.72157 3.06448 8.79273 2.91973Z" fill="#FF007A"/>
<path d="M17.7795 4.4517C17.8037 3.99331 17.864 3.69174 17.9967 3.4143C18.0449 3.30573 18.0932 3.20923 18.1052 3.20923C18.1173 3.20923 18.0932 3.29367 18.057 3.39017C17.9605 3.65555 17.9484 4.0295 18.0087 4.4517C18.0932 4.99453 18.1294 5.06691 18.7084 5.65799C18.9738 5.93544 19.2874 6.28526 19.408 6.43001L19.6131 6.69539L19.408 6.50239C19.1547 6.26113 18.5757 5.80274 18.443 5.74243C18.3586 5.69418 18.3465 5.69418 18.2862 5.75449C18.2379 5.80274 18.2259 5.87512 18.2259 6.22494C18.2138 6.76777 18.1414 7.10553 17.9605 7.45535C17.864 7.6363 17.8519 7.60011 17.9364 7.39504C17.9967 7.23822 18.0087 7.16585 18.0087 6.64714C18.0087 5.59767 17.8881 5.34435 17.1523 4.92215C16.9713 4.81359 16.6577 4.65677 16.4768 4.57233C16.2838 4.48789 16.139 4.41551 16.1511 4.41551C16.1752 4.39139 16.8869 4.59646 17.1643 4.71709C17.5865 4.88597 17.6589 4.89803 17.7072 4.88597C17.7434 4.84978 17.7675 4.75327 17.7795 4.4517Z" fill="#FF007A"/>
<path d="M9.28733 6.24909C8.78069 5.54944 8.455 4.46378 8.52737 3.65557L8.5515 3.40225L8.67213 3.42638C8.88926 3.46257 9.26321 3.60732 9.44415 3.71589C9.92667 4.0054 10.1438 4.40347 10.3489 5.39262C10.4092 5.68213 10.4936 6.01989 10.5298 6.12846C10.5901 6.3094 10.8193 6.7316 11.0123 6.99699C11.145 7.18999 11.0606 7.28649 10.759 7.26237C10.3006 7.21412 9.68541 6.79192 9.28733 6.24909Z" fill="#FF007A"/>
<path d="M17.1643 11.4964C14.7759 10.5314 13.9315 9.69906 13.9315 8.28771C13.9315 8.08264 13.9436 7.91376 13.9436 7.91376C13.9556 7.91376 14.0401 7.98613 14.1486 8.07057C14.6311 8.45659 15.174 8.62547 16.6818 8.8426C17.5624 8.97529 18.069 9.07179 18.5274 9.22861C19.987 9.71112 20.8918 10.7003 21.1089 12.0393C21.1692 12.4253 21.133 13.1611 21.0365 13.5471C20.9521 13.8487 20.7108 14.4036 20.6505 14.4156C20.6384 14.4156 20.6143 14.3553 20.6143 14.2588C20.5902 13.7522 20.3369 13.2697 19.9147 12.8957C19.408 12.4615 18.7566 12.1358 17.1643 11.4964Z" fill="#FF007A"/>
<path d="M15.4755 11.8945C15.4514 11.7135 15.3911 11.4844 15.3549 11.3879L15.2946 11.2069L15.4032 11.3396C15.56 11.5205 15.6806 11.7377 15.7892 12.0392C15.8736 12.2684 15.8736 12.3408 15.8736 12.7148C15.8736 13.0767 15.8616 13.1611 15.7892 13.3662C15.6685 13.6919 15.5238 13.9211 15.2825 14.1744C14.8483 14.6207 14.2813 14.862 13.4731 14.9705C13.3284 14.9826 12.9182 15.0188 12.5563 15.0429C11.6516 15.0912 11.0485 15.1877 10.5056 15.3807C10.4333 15.4048 10.3609 15.4289 10.3488 15.4168C10.3247 15.3927 10.6987 15.1756 11.0002 15.0308C11.4224 14.8258 11.8567 14.7172 12.8097 14.5483C13.2801 14.4759 13.7626 14.3794 13.8832 14.3312C15.0775 13.9572 15.6685 13.0284 15.4755 11.8945Z" fill="#FF007A"/>
<path d="M16.5733 13.8366C16.2596 13.149 16.1873 12.4976 16.3561 11.8824C16.3803 11.8221 16.4044 11.7618 16.4285 11.7618C16.4527 11.7618 16.525 11.798 16.5974 11.8462C16.7422 11.9428 17.0437 12.1116 17.8158 12.5338C18.7928 13.0646 19.3477 13.4747 19.7337 13.9452C20.0715 14.3553 20.2766 14.8258 20.3731 15.4048C20.4334 15.7305 20.3972 16.5146 20.3128 16.8403C20.0474 17.8656 19.4442 18.6859 18.5637 19.1563C18.431 19.2287 18.3224 19.277 18.3103 19.277C18.2983 19.277 18.3465 19.1563 18.4189 19.0116C18.7084 18.3964 18.7446 17.8053 18.5275 17.1418C18.3948 16.7317 18.1173 16.2371 17.5624 15.4048C16.899 14.4398 16.7422 14.1864 16.5733 13.8366Z" fill="#FF007A"/>
<path d="M7.58645 17.5279C8.4791 16.78 9.57682 16.2492 10.5901 16.0803C11.0244 16.008 11.7481 16.0321 12.1462 16.1407C12.7855 16.3095 13.3646 16.6714 13.6661 17.1177C13.9556 17.552 14.0883 17.926 14.221 18.7583C14.2693 19.084 14.3296 19.4218 14.3417 19.4941C14.4382 19.9284 14.6312 20.2662 14.8724 20.4471C15.2464 20.7245 15.8978 20.7366 16.5371 20.4954C16.6457 20.4592 16.7422 20.423 16.7422 20.435C16.7663 20.4592 16.4406 20.6763 16.2235 20.7849C15.9219 20.9417 15.6806 20.9899 15.3549 20.9899C14.7759 20.9899 14.2813 20.6884 13.8833 20.0852C13.7988 19.9646 13.6299 19.6148 13.4852 19.2891C13.063 18.312 12.8459 18.0225 12.3513 17.6968C11.917 17.4193 11.3621 17.359 10.9399 17.5641C10.385 17.8295 10.2403 18.5412 10.6263 18.9754C10.7831 19.1564 11.0726 19.3011 11.3139 19.3373C11.7602 19.3976 12.1462 19.0478 12.1462 18.6015C12.1462 18.312 12.0376 18.1431 11.7481 18.0104C11.3621 17.8415 10.9399 18.0345 10.952 18.4085C10.952 18.5653 11.0244 18.6618 11.1812 18.7342C11.2777 18.7824 11.2777 18.7824 11.2053 18.7704C10.8555 18.698 10.771 18.2637 11.0485 17.9863C11.3863 17.6485 12.098 17.7933 12.3392 18.2637C12.4357 18.4567 12.4478 18.8427 12.3633 19.084C12.1583 19.6148 11.5793 19.8922 10.9882 19.7354C10.5901 19.6268 10.4212 19.5183 9.93871 19.0237C9.09431 18.1552 8.76861 17.9863 7.56232 17.8053L7.33313 17.7691L7.58645 17.5279Z" fill="#FF007A"/>
<path fill-rule="evenodd" clip-rule="evenodd" d="M3.6 0.6C6.41065 4.01379 8.38263 6.84016 8.59976 7.12967C8.7807 7.37093 8.70833 7.60012 8.40675 7.769C8.23787 7.86551 7.88805 7.96201 7.71917 7.96201C7.52616 7.96201 7.29697 7.86551 7.14015 7.70869C7.03159 7.60012 6.56113 6.91254 5.4996 5.25993C4.69139 3.99333 4.00381 2.94386 3.99174 2.9318C3.94349 2.90767 3.94349 2.90767 5.41516 5.53737C6.344 7.18999 6.64557 7.78107 6.64557 7.85344C6.64557 8.01026 6.59732 8.0947 6.40432 8.31183C6.07862 8.67372 5.93387 9.08386 5.8253 9.94032C5.70467 10.8933 5.37897 11.5688 4.45013 12.7148C3.9073 13.3903 3.82286 13.5109 3.69017 13.7884C3.52129 14.1261 3.47304 14.3191 3.44892 14.7534C3.42479 15.2118 3.47304 15.5013 3.60573 15.9356C3.72636 16.3216 3.85905 16.5749 4.18475 17.0695C4.4622 17.5037 4.63108 17.8294 4.63108 17.9501C4.63108 18.0466 4.6552 18.0466 5.08946 17.9501C6.12687 17.7088 6.98334 17.2987 7.45379 16.792C7.7433 16.4784 7.81567 16.3095 7.81567 15.8752C7.81567 15.5978 7.80361 15.5375 7.73123 15.3686C7.6106 15.1032 7.38141 14.8861 6.88683 14.5483C6.23544 14.102 5.95799 13.7401 5.88561 13.2576C5.8253 12.8475 5.89768 12.57 6.25956 11.8101C6.63351 11.026 6.73002 10.7003 6.79033 9.90413C6.82652 9.39749 6.88683 9.19242 7.03159 9.03561C7.1884 8.86672 7.3211 8.80641 7.69504 8.75816C8.31025 8.67372 8.70833 8.5169 9.02196 8.21533C9.29941 7.96201 9.42004 7.70869 9.4321 7.33474L9.44416 7.05729L9.28734 6.88841C8.72039 6.23702 3.22605 0.0812969 3.18986 0.0812969C3.1778 0.0812969 3.37081 0.310491 3.6 0.6ZM4.94471 15.2721C5.0774 15.0429 5.00502 14.7534 4.78789 14.6086C4.58282 14.476 4.26919 14.5363 4.26919 14.7172C4.26919 14.7655 4.29332 14.8137 4.36569 14.8378C4.47426 14.8982 4.48632 14.9585 4.40188 15.0912C4.31744 15.2239 4.31744 15.3445 4.42601 15.4289C4.59489 15.5616 4.82408 15.4892 4.94471 15.2721Z" fill="#FF007A"/>
<path fill-rule="evenodd" clip-rule="evenodd" d="M9.83016 8.92704C9.54065 9.01148 9.26321 9.32511 9.17877 9.63875C9.13052 9.83175 9.15464 10.1816 9.23908 10.2901C9.37177 10.459 9.4924 10.5073 9.83016 10.5073C10.4936 10.5073 11.0606 10.2178 11.1209 9.86794C11.1812 9.57843 10.9279 9.18036 10.5781 8.99942C10.3971 8.90291 10.0232 8.86673 9.83016 8.92704ZM10.6022 9.53018C10.6987 9.38543 10.6625 9.22861 10.4816 9.12005C10.1559 8.91498 9.66128 9.08386 9.66128 9.39749C9.66128 9.55431 9.9146 9.72319 10.1559 9.72319C10.3127 9.72319 10.5298 9.62669 10.6022 9.53018Z" fill="#FF007A"/>
</svg>
