<svg width="24" height="24" viewBox="0 0 24 24" fill="none" xmlns="http://www.w3.org/2000/svg">
<path fill-rule="evenodd" clip-rule="evenodd" d="M13.9548 7.3999V9.6313L13.956 9.6319C18.096 9.823 21.2082 10.6438 21.2082 11.6269C21.2082 12.61 18.096 13.4308 13.956 13.6219V20.77H10.266V13.6225C6.12 13.4308 3 12.6094 3 11.6254C3 10.6414 6.1185 9.82 10.266 9.6295V7.3999H5.1627V4H19.0575V7.3999H13.9548ZM13.956 13.0147V13.0165L13.9566 13.015C17.6124 12.8521 20.3424 12.2131 20.3424 11.4523C20.3424 10.6915 17.6136 10.0528 13.9566 9.8899V12.3814C13.8516 12.391 13.2795 12.4384 12.1416 12.4384C11.1942 12.4384 10.5078 12.3979 10.2678 12.3814V9.8899C6.6039 10.0525 3.8685 10.6897 3.8685 11.4532C3.8685 12.2167 6.6036 12.8548 10.2678 13.0171V13.0141C10.5039 13.0264 11.1738 13.0534 12.126 13.0534C13.317 13.0534 13.8519 13.0213 13.956 13.0147Z" fill="#53AE94"/>
</svg>
