<svg width="24" height="24" viewBox="0 0 24 24" fill="none" xmlns="http://www.w3.org/2000/svg">
<circle cx="12" cy="12" r="12" fill="white"/>
<path fill-rule="evenodd" clip-rule="evenodd" d="M12.9329 4.00228H12.3775V7.66572C13.4355 7.69003 14.492 7.61861 15.1776 7.69687L15.1332 9.86895C15.1332 9.86895 12.9651 9.98594 12.0688 9.99658C11.3793 10.0049 11.6474 10.3825 11.9355 10.4372C12.2235 10.4919 13.876 10.8786 14.4245 11.1423C14.9731 11.4059 15.3155 11.6156 15.491 12.9056C15.6664 14.1956 15.1968 16.0745 12.5108 16.1254H12.3775V20H12.9329C15.0725 20 17.1243 19.1571 18.6372 17.6569C20.1501 16.1566 21 14.1217 21 12C21 9.87827 20.1501 7.84344 18.6372 6.34315C17.1243 4.84285 15.0725 4 12.9329 4V4.00228Z" fill="#0E0D28"/>
<path fill-rule="evenodd" clip-rule="evenodd" d="M8.77764 15.9872L8.86651 13.784C8.86651 13.784 11.4199 13.882 12.2442 13.7445C12.8211 13.6685 12.5108 13.392 12.5108 13.392C12.5108 13.392 10.519 13.0349 9.84405 12.6869C9.16912 12.339 8.39995 11.6438 8.81824 9.36462C9.03581 8.19311 10.2508 7.73651 11.6183 7.67041V4.00317H6.5322C6.12584 4.00317 5.73611 4.16326 5.44877 4.44822C5.16143 4.73317 5 5.11965 5 5.52264V18.4814C5 18.8844 5.16143 19.2709 5.44877 19.5559C5.73611 19.8408 6.12584 20.0009 6.5322 20.0009H11.6222V16.1194C9.63874 16.0602 8.77764 15.9872 8.77764 15.9872Z" fill="#0E0D28"/>
</svg>
