<svg width="24" height="24" viewBox="0 0 24 24" fill="none" xmlns="http://www.w3.org/2000/svg">
<path fill-rule="evenodd" clip-rule="evenodd" d="M12 1C18.0742 1 23 5.9258 23 12C23 18.0742 18.0742 23 12 23C5.9258 23 1 18.0742 1 12C1 5.9258 5.9258 1 12 1Z" fill="#006AE3"/>
<path d="M11.5468 16.6376V7.4856H12.5434V16.6376H11.5468Z" fill="white"/>
<path d="M16.6199 10.5348L13.5422 11.351L12.8558 8.15656L13.7709 7.94976L14.1317 9.46336C14.1317 9.46336 14.9633 8.09936 13.8545 6.68696C13.2012 5.96096 12.891 5.93016 12.1584 5.81576C11.5138 5.72336 10.0156 5.94116 9.56896 7.69016C9.37977 8.81656 9.59316 9.65036 11.0452 10.7416L10.9638 11.956C10.9638 11.956 9.34237 10.8142 8.92437 10.0134C8.60097 9.37976 8.04657 8.12796 9.04757 6.38556C9.58656 5.51436 10.6492 4.67836 12.5214 4.76636C13.463 4.80596 15.7619 5.95656 15.4055 8.64496C15.3439 9.14876 15.0821 9.81976 15.0821 9.81976L16.3449 9.53816L16.6199 10.5348Z" fill="white"/>
<path d="M14.8622 17.6957C14.299 18.5515 13.2144 19.3589 11.3466 19.2225C10.405 19.1587 8.13901 17.9465 8.56581 15.2692C8.64061 14.7676 8.92001 14.1054 8.92001 14.1054L7.65061 14.3518L7.40201 13.3508L10.5018 12.616L11.1046 15.828L10.1828 16.0106L9.86161 14.486C9.86161 14.486 8.99481 15.8258 10.064 17.2689C10.6976 18.0125 11.0056 18.0499 11.7382 18.1841C12.3784 18.2941 13.8832 18.1137 14.376 16.378C14.5938 15.2582 14.4024 14.4178 12.9812 13.287L13.0956 12.0748C13.0956 12.0748 14.6862 13.2584 15.0822 14.0702C15.3858 14.7148 15.9072 15.982 14.8622 17.6957Z" fill="white"/>
</svg>
