<svg width="24" height="24" viewBox="0 0 24 24" fill="none" xmlns="http://www.w3.org/2000/svg">
<path d="M18.0268 15.8207C18.8108 16.8741 19.6192 17.9521 20.4277 19.03C18.8108 20.9409 16.8018 22.1659 14.3764 22.6803C11.6816 23.2438 9.13367 22.8273 6.65928 21.4554C8.86418 19.814 11.0201 18.197 13.2005 16.5801C13.6905 17.0456 14.156 17.5111 14.6214 17.9521C15.1359 18.442 14.9399 18.4665 15.6014 18.0991C16.5079 17.5846 17.2673 16.8741 17.8553 16.0166C17.8798 15.9676 17.9288 15.9186 17.9533 15.8697C17.9288 15.8697 17.9533 15.8697 18.0268 15.8207ZM8.3987 17.9766C7.78623 18.442 7.22275 18.8585 6.65928 19.2995C6.24279 19.618 5.82631 19.912 5.40983 20.2305C5.23834 20.3774 5.11584 20.3774 4.91985 20.206C3.05793 18.54 1.88198 16.4821 1.441 14.0322C1.00002 11.5578 1.392 9.20596 2.56795 6.97656C2.59245 6.92756 2.64145 6.85406 2.66595 6.80507C2.66595 6.78057 2.69045 6.78057 2.73944 6.75607C4.35637 8.88747 5.9978 11.0189 7.61474 13.1503C7.56574 13.2238 7.54124 13.2728 7.49224 13.3218C7.00226 13.8362 6.51228 14.3507 5.99781 14.8407C5.85081 14.9877 5.82631 15.1102 5.92431 15.2817C6.43879 16.2616 7.14926 17.0701 8.03122 17.7316C8.15371 17.8051 8.25171 17.8786 8.3987 17.9766ZM17.5368 2.76275C16.7528 3.32622 15.9689 3.8897 15.1849 4.42867C13.8375 5.38413 12.49 6.36409 11.1671 7.31954C10.9956 7.44204 10.8731 7.46654 10.7261 7.29504C10.2851 6.82956 9.81964 6.41308 9.37866 5.9476C9.25617 5.82511 9.13367 5.80061 8.96218 5.87411C7.90872 6.41308 7.07576 7.17255 6.38979 8.128C6.34079 8.177 6.29179 8.2505 6.24279 8.324C5.85081 7.80952 5.48333 7.34404 5.11584 6.85406C4.72386 6.33959 4.35637 5.82511 3.98889 5.33513C3.8664 5.16364 3.8419 5.04115 4.01339 4.86965C5.89981 2.78725 8.22721 1.5623 11.0201 1.26832C13.225 1.02333 15.3319 1.46431 17.2918 2.51776C17.3653 2.56676 17.4388 2.59126 17.5123 2.64025C17.5123 2.71375 17.5123 2.73825 17.5368 2.76275ZM21.5301 17.4621C21.0157 16.8006 20.5502 16.1881 20.0847 15.5757C19.0067 14.1547 17.9288 12.7093 16.8263 11.2884C16.6793 11.0924 16.6793 10.9699 16.8508 10.7984C17.3163 10.3329 17.7573 9.86743 18.2228 9.40195C18.3453 9.27945 18.3943 9.15696 18.2963 8.98547C17.7573 7.95651 17.0223 7.09905 16.0669 6.41308C15.9934 6.36408 15.9199 6.29059 15.8219 6.24159C15.8954 6.16809 15.9689 6.1191 16.0179 6.0701C16.9488 5.35963 17.8798 4.67366 18.8108 3.96319C18.9577 3.8407 19.0802 3.7917 19.2517 3.96319C21.5791 6.0701 22.8286 8.69148 22.9511 11.8518C23.0001 13.6893 22.5836 15.4287 21.7506 17.0701C21.6771 17.1681 21.6036 17.2906 21.5301 17.4621Z" fill="#231815"/>
</svg>
