<svg xmlns="http://www.w3.org/2000/svg" xmlns:xlink="http://www.w3.org/1999/xlink" width="22" height="22" viewBox="0 0 22 22">
    <defs>
        <path id="asq60nmcua" d="M15.464 14.198c.277 0 .505.211.532.482l.002.043-.004.115C15.66 18.848 12.21 22 8 22 3.835 22 .411 18.911.018 14.96L0 14.776v-.054l.001-.04c.026-.272.255-.485.532-.485h14.93zM.3 0c3.783 0 6.817 2.928 6.817 6.546v6.395c0 .294-.239.532-.533.532l-6.05.003c-.295.001-.534-.237-.534-.53V.298C0 .146.114.02.262.002L.3 0zm8.444 5.957c3.296.156 5.99 2.357 6.928 5.355l.035.114.041.12c.125.365.208.674.25 1.16.033.391-.257.734-.648.768l-.03.002h-3.078c-2.103 0-3.815-1.483-3.87-3.565l-.001-.103V6.319c0-.202.169-.372.373-.362z"/>
    </defs>
    <g fill="none" fill-rule="evenodd">
        <g>
            <g>
                <path d="M0 0H22V22H0z" transform="translate(-17 -14) translate(17 14)"/>
                <g transform="translate(-17 -14) translate(17 14) translate(3)">
                    <mask id="8qczj6cbcb" fill="#fff">
                        <use xlink:href="#asq60nmcua"/>
                    </mask>
                    <g fill="#FFF" mask="url(#8qczj6cbcb)">
                        <path d="M0 0H22V22H0z" transform="translate(-3)"/>
                    </g>
                </g>
            </g>
        </g>
    </g>
</svg>
