<svg width="24" height="24" viewBox="0 0 24 24" fill="none" xmlns="http://www.w3.org/2000/svg">
<path d="M17.1436 8.72322C16.7781 8.51649 16.3081 8.51649 15.8903 8.72322L12.9661 10.4287L10.9817 11.514L8.10966 13.2195C7.74413 13.4262 7.27415 13.4262 6.8564 13.2195L4.61097 11.8758C4.24543 11.6691 3.98433 11.2556 3.98433 10.7905V8.2064C3.98433 7.79295 4.19321 7.3795 4.61097 7.12109L6.8564 5.82906C7.22193 5.62233 7.69191 5.62233 8.10966 5.82906L10.3551 7.17277C10.7206 7.3795 10.9817 7.79295 10.9817 8.25809V9.96358L12.9661 8.82658V7.06941C12.9661 6.65596 12.7572 6.24251 12.3394 5.9841L8.16188 3.55507C7.79634 3.34834 7.32637 3.34834 6.90862 3.55507L2.62663 6.03578C2.20888 6.24251 2 6.65596 2 7.06941V11.9275C2 12.3409 2.20888 12.7544 2.62663 13.0128L6.8564 15.4418C7.22193 15.6485 7.69191 15.6485 8.10966 15.4418L10.9817 13.788L12.9661 12.651L15.8381 10.9972C16.2037 10.7905 16.6736 10.7905 17.0914 10.9972L19.3368 12.2892C19.7024 12.496 19.9634 12.9094 19.9634 13.3746V15.9586C19.9634 16.3721 19.7546 16.7855 19.3368 17.0439L17.1436 18.336C16.7781 18.5427 16.3081 18.5427 15.8903 18.336L13.6449 17.0439C13.2794 16.8372 13.0183 16.4238 13.0183 15.9586V14.3048L11.0339 15.4418V17.1473C11.0339 17.5608 11.2428 17.9742 11.6606 18.2326L15.8903 20.6616C16.2559 20.8684 16.7258 20.8684 17.1436 20.6616L21.3734 18.2326C21.7389 18.0259 22 17.6124 22 17.1473V12.2376C22 11.8241 21.7911 11.4107 21.3734 11.1523L17.1436 8.72322Z" fill="#8247E5"/>
</svg>
