<svg width="24" height="24" viewBox="0 0 24 24" fill="none" xmlns="http://www.w3.org/2000/svg">
<path d="M17.3296 11.7444C17.4751 11.6717 17.6932 11.8171 17.6932 11.9626L17.9841 13.0534C18.0568 13.1988 17.9114 13.417 17.766 13.417C17.6205 13.4897 17.4024 13.3442 17.4024 13.1988L17.1115 12.108C17.0388 11.9626 17.1115 11.7444 17.3296 11.7444ZM8.96693 3.59986C8.89421 3.45442 8.89421 3.23626 9.03964 3.16354L9.98499 2.50907C10.1304 2.43635 10.3486 2.43635 10.4213 2.58179C10.494 2.79995 10.494 2.94539 10.3486 3.09082L9.40324 3.7453C9.2578 3.7453 9.03964 3.7453 8.96693 3.59986Z" fill="white"/>
<path fill-rule="evenodd" clip-rule="evenodd" d="M13.8392 7.45394C12.7484 7.23578 11.5849 7.38122 10.5668 8.03569C12.0212 7.52665 13.6937 7.89025 14.8572 9.05376C16.4571 10.7263 16.4571 13.4169 14.8572 15.0167C14.6391 15.2349 14.4209 15.3803 14.2028 15.5258C14.7845 15.3076 15.3663 15.0167 15.8026 14.5077C16.9661 13.3442 17.257 11.6717 16.8207 10.2173C15.5844 9.78095 14.4936 8.76288 13.8392 7.45394Z" fill="#FFAE54"/>
<path d="M20.7475 16.9074C18.1296 21.7796 12.0212 23.5976 7.22174 20.907C2.34955 18.2891 0.604289 12.108 3.22218 7.23579C4.96744 4.03614 8.16709 2.14544 11.5849 2C12.0212 2 12.3848 2.21816 12.603 2.65447C12.8211 3.09079 12.9666 3.67254 12.8938 4.2543C12.8938 4.47245 12.8938 4.69061 12.8938 4.90877C12.8938 5.92684 13.1847 6.94491 13.621 7.81754C11.5122 7.01763 9.11244 7.89026 8.02165 9.9264C6.78543 12.1807 7.65806 14.944 9.83963 16.1803C12.0212 17.4165 14.8573 16.5439 16.0208 14.3623C16.6752 13.126 16.748 11.6717 16.2389 10.4354C17.1116 10.8717 18.0569 11.0899 19.075 11.0899C19.6567 11.0899 20.1658 11.0172 20.7475 10.8717C21.0384 10.799 21.402 10.799 21.6202 10.9445C21.8383 11.0899 21.9837 11.2353 21.9837 11.4535C22.0565 13.2715 21.6202 15.1622 20.7475 16.9074Z" fill="url(#paint0_radial)" stroke="#AC562A" stroke-width="1.0716"/>
<path d="M18.1296 14.944L18.4932 14.7986C18.7841 15.5258 18.4205 16.1803 18.2023 16.6893C18.2023 16.6893 18.2023 16.6893 18.2023 16.762C18.0569 17.0529 17.9115 17.271 17.9115 17.4892C17.8387 17.8528 17.8387 18.2164 17.9115 18.4346C17.9842 18.6527 18.2023 18.8709 18.4932 18.9436C18.7114 19.0163 19.075 18.9436 19.5113 18.6527C21.2566 16.6166 22.0565 13.9987 21.911 11.5262C21.911 11.3081 21.7656 11.0899 21.5474 10.9445C21.3293 10.799 20.9657 10.799 20.6748 10.8717C20.1658 11.0172 19.584 11.0899 19.075 11.0899C18.0569 11.0899 17.1116 10.8717 16.2389 10.3627C16.748 11.5989 16.6752 12.9806 16.0935 14.2168C16.0208 14.435 15.8753 14.5804 15.7299 14.7986C16.0208 14.7259 16.3116 14.5804 16.748 14.2896C17.257 13.926 17.9115 14.2896 18.1296 14.944ZM18.1296 14.944C18.3478 15.5258 18.0569 16.0348 17.8387 16.5439C17.6933 16.8347 17.5479 17.1256 17.4752 17.4165L18.1296 14.944ZM11.1486 7.52666C10.1305 7.81754 9.3306 7.6721 8.74884 7.38123C8.16709 7.01763 7.65805 6.50859 7.43989 5.92684C7.14902 5.27237 7.0763 4.61789 7.22174 4.03614C7.36718 3.45439 7.65805 3.01807 8.09437 2.79991C9.33059 2.29088 10.6395 2 11.8758 2C12.2394 2 12.5302 2.21816 12.7484 2.58175C12.9666 2.94535 13.0393 3.45439 12.9666 3.8907C12.8938 4.18158 12.8938 4.54517 12.8938 4.90877C12.8938 5.92684 13.1847 6.94491 13.621 7.81754C12.8211 7.45394 11.9485 7.38123 11.1486 7.52666Z" fill="#AC562A" stroke="#AC562A" stroke-width="1.0716"/>
<path d="M4.38565 10.29C4.66678 10.29 4.89469 10.0621 4.89469 9.78095C4.89469 9.49981 4.66678 9.27191 4.38565 9.27191C4.10452 9.27191 3.87662 9.49981 3.87662 9.78095C3.87662 10.0621 4.10452 10.29 4.38565 10.29Z" fill="#AC562A"/>
<path d="M11.9485 19.3799C12.2296 19.3799 12.4575 19.152 12.4575 18.8709C12.4575 18.5897 12.2296 18.3618 11.9485 18.3618C11.6673 18.3618 11.4394 18.5897 11.4394 18.8709C11.4394 19.152 11.6673 19.3799 11.9485 19.3799Z" fill="#AC562A"/>
<path d="M8.74884 20.1798C9.23078 20.1798 9.62147 19.7891 9.62147 19.3072C9.62147 18.8253 9.23078 18.4346 8.74884 18.4346C8.2669 18.4346 7.87621 18.8253 7.87621 19.3072C7.87621 19.7891 8.2669 20.1798 8.74884 20.1798Z" fill="#AC562A"/>
<defs>
<radialGradient id="paint0_radial" cx="0" cy="0" r="1" gradientUnits="userSpaceOnUse" gradientTransform="translate(11.9748 12.0933) rotate(90) scale(10.4555 10.3502)">
<stop offset="0.3335" stop-color="#F7B450"/>
<stop offset="0.6477" stop-color="#FFC977"/>
<stop offset="1" stop-color="#FF9900"/>
</radialGradient>
</defs>
</svg>
