<svg width="24" height="24" viewBox="0 0 24 24" fill="none" xmlns="http://www.w3.org/2000/svg">
<g clip-path="url(#clip0)">
<path fill-rule="evenodd" clip-rule="evenodd" d="M6.23659 5.83912C5.95268 4.36278 7.08833 3 8.56467 3C9.87066 3 10.9495 4.07886 10.9495 5.38486V8.33754C11.2902 8.33754 11.6309 8.28076 11.9716 8.28076C12.3123 8.28076 12.5962 8.28076 12.9369 8.33754V5.38486C12.9369 4.07886 14.0158 3 15.3218 3C16.7981 3 17.9338 4.36278 17.7066 5.83912L17.082 9.30284C19.2965 10.2681 21 11.9716 21 14.0726V15.3785C21 17.1388 19.8644 18.6151 18.2177 19.5804C16.571 20.6025 14.4132 21.1703 11.9716 21.1703C9.52997 21.1703 7.37224 20.6025 5.72555 19.5804C4.13565 18.6151 3 17.1388 3 15.3785V14.0726C3 11.9716 4.64669 10.2681 6.8612 9.30284L6.23659 5.83912ZM16.2303 9.7571L16.9685 5.66877C17.1388 4.64669 16.4006 3.68139 15.3218 3.68139C14.4132 3.68139 13.6751 4.41956 13.6751 5.32808V9.07571C13.4479 9.01893 13.164 9.01893 12.9369 9.01893C12.5962 9.01893 12.3123 8.96215 11.9716 8.96215C11.6309 8.96215 11.2902 8.96215 10.9495 9.01893C10.7224 9.01893 10.4385 9.07571 10.2114 9.07571V5.38486C10.2114 4.47634 9.47319 3.73817 8.56467 3.73817C7.54259 3.73817 6.74763 4.70347 6.97476 5.72555L7.71293 9.81388C5.32808 10.7224 3.73817 12.3123 3.73817 14.1293V15.4353C3.73817 18.2177 7.42902 20.489 11.9716 20.489C16.5142 20.489 20.205 18.2177 20.205 15.4353V14.1293C20.2618 12.2555 18.6719 10.6656 16.2303 9.7571Z" fill="#633001"/>
<path d="M20.2618 15.3786C20.2618 18.1609 16.571 20.4322 12.0284 20.4322C7.4858 20.4322 3.79495 18.1609 3.79495 15.3786V14.0726H20.3186V15.3786H20.2618Z" fill="#FEDC90"/>
<path fill-rule="evenodd" clip-rule="evenodd" d="M6.97476 5.72554C6.74763 4.70346 7.54259 3.73816 8.56467 3.73816C9.47319 3.73816 10.2114 4.47633 10.2114 5.38485V9.13248C10.7792 9.0757 11.347 9.01892 11.9716 9.01892C12.5394 9.01892 13.1073 9.0757 13.6751 9.13248V5.38485C13.6751 4.47633 14.4132 3.73816 15.3218 3.73816C16.3438 3.73816 17.1388 4.70346 16.9685 5.72554L16.2303 9.81387C18.6151 10.7224 20.2618 12.3123 20.2618 14.1293C20.2618 16.9117 16.571 19.183 12.0284 19.183C7.4858 19.183 3.79495 16.9117 3.79495 14.1293C3.79495 12.3123 5.38486 10.7224 7.76972 9.81387L6.97476 5.72554Z" fill="#D1884F"/>
<path d="M9.70032 13.7319C9.70032 14.47 9.30284 15.0946 8.7918 15.0946C8.28076 15.0946 7.88329 14.47 7.88329 13.7319C7.88329 12.9937 8.28076 12.3691 8.7918 12.3691C9.30284 12.3691 9.70032 12.9937 9.70032 13.7319Z" fill="#633001"/>
<path d="M16.0031 13.7319C16.0031 14.47 15.6057 15.0946 15.0946 15.0946C14.5836 15.0946 14.1861 14.47 14.1861 13.7319C14.1861 12.9937 14.5836 12.3691 15.0946 12.3691C15.6057 12.3691 16.0031 12.9937 16.0031 13.7319Z" fill="#633001"/>
</g>
<defs>
<clipPath id="clip0">
<rect width="18" height="18.1703" fill="white" transform="translate(3 3)"/>
</clipPath>
</defs>
</svg>
