<svg width="24" height="24" viewBox="0 0 24 24" fill="none" xmlns="http://www.w3.org/2000/svg">
<path d="M12 23C18.0751 23 23 18.0751 23 12C23 5.92487 18.0751 1 12 1C5.92487 1 1 5.92487 1 12C1 18.0751 5.92487 23 12 23Z" fill="#080A26"/>
<path d="M13.2946 6.7768L8.91072 18C8.91072 18 8.82143 18.2679 8.51786 18.3215C8.25 18.375 8.05357 18.2321 7.95536 18.0714C7.875 17.9375 7.875 17.7947 7.875 17.7947V6.57144C7.875 6.2768 8.11607 6.03573 8.41072 6.03573L12.7768 6.02679C13.1696 6.03573 13.4286 6.41965 13.2946 6.7768Z" fill="#FF0EA9"/>
<path d="M14.7321 7.82143C14.9107 7.41964 15.3482 7.4375 15.5357 7.58036C15.5625 7.60714 15.5803 7.61608 15.5803 7.60714C16.9732 8.82143 17.8215 10.625 17.7142 12.6071C17.5357 15.8928 14.8304 18.491 11.5 18.491H11.3482C10.9822 18.4821 10.6964 18.134 10.8571 17.7321L14.7321 7.82143Z" fill="#00DAFF"/>
</svg>
