<svg width="24" height="24" viewBox="0 0 24 24" fill="none" xmlns="http://www.w3.org/2000/svg">
<path d="M12 23C18.0751 23 23 18.0751 23 12C23 5.92487 18.0751 1 12 1C5.92487 1 1 5.92487 1 12C1 18.0751 5.92487 23 12 23Z" fill="#050A5A"/>
<path d="M8.37526 9.34989C9.40577 9.34989 10.2413 8.51856 10.2413 7.49306C10.2413 6.46756 9.40577 5.63623 8.37526 5.63623C7.3447 5.63623 6.50928 6.46756 6.50928 7.49306C6.50928 8.51856 7.3447 9.34989 8.37526 9.34989Z" fill="white"/>
<path d="M16.9213 9.34996H14.337C14.0198 9.34996 13.7585 9.09 13.7585 8.77434V6.20264C13.7585 5.88697 14.0198 5.62701 14.337 5.62701H16.9213C17.2385 5.62701 17.4998 5.88697 17.4998 6.20264V8.77434C17.4998 9.09928 17.2385 9.34996 16.9213 9.34996Z" fill="#00FFB9"/>
<path d="M10.2412 10.9364H10.1293H7.29298C6.85448 10.9364 6.49994 11.2892 6.49994 11.7256V14.6594V17.5839C6.49994 18.0202 6.85448 18.373 7.29298 18.373H9.44821C9.88669 18.373 10.2412 18.0202 10.2412 17.5839V15.4485C10.2412 15.0122 10.5958 14.6594 11.0342 14.6594H13.0775C13.516 14.6594 13.8705 14.3065 13.8705 13.8702V11.7256C13.8705 11.2892 13.516 10.9364 13.0775 10.9364H10.2412Z" fill="#00DAFF"/>
</svg>
