<?xml version="1.0" encoding="UTF-8"?>
<svg width="22px" height="22px" viewBox="0 0 22 22" version="1.1" xmlns="http://www.w3.org/2000/svg" xmlns:xlink="http://www.w3.org/1999/xlink">
    <title>Icon/22/Wallet/Single Color/Matic@1.5x</title>
    <g id="Symbols" stroke="none" stroke-width="1" fill="none" fill-rule="evenodd">
        <g id="Icon/22/Wallet/Single-Color/Matic" fill="#FFFFFF" fill-rule="nonzero">
            <g id="polygon-matic-logo" transform="translate(0.916667, 2.750000)">
                <path d="M15.1436031,5.32319486 C14.7780679,5.11646884 14.308094,5.11646884 13.8903394,5.32319486 L10.9660574,7.02868447 L8.98172324,8.11399604 L6.10966057,9.81948566 C5.74412533,10.0262117 5.27415144,10.0262117 4.85639687,9.81948566 L2.61096606,8.47576657 C2.24543081,8.26904055 1.9843342,7.85558853 1.9843342,7.390455 L1.9843342,4.80637982 C1.9843342,4.39292779 2.19321149,3.97947577 2.61096606,3.72106825 L4.85639687,2.42903066 C5.22193211,2.22230465 5.69190601,2.22230465 6.10966057,2.42903066 L8.35509138,3.77274975 C8.72062663,3.97947577 8.98172324,4.39292779 8.98172324,4.85806133 L8.98172324,6.56355094 L10.9660574,5.42655786 L10.9660574,3.66938675 C10.9660574,3.25593472 10.7571802,2.84248269 10.3394256,2.58407517 L6.1618799,0.15504451 C5.79634465,-0.0516815035 5.32637076,-0.0516815035 4.90861619,0.15504451 L0.626631854,2.63575668 C0.208877285,2.84248269 0,3.25593472 0,3.66938675 L0,8.52744807 C0,8.9409001 0.208877285,9.35435213 0.626631854,9.61275964 L4.85639687,12.0417903 C5.22193211,12.2485163 5.69190601,12.2485163 6.10966057,12.0417903 L8.98172324,10.3879822 L10.9660574,9.25098912 L13.8381201,7.59718101 C14.2036554,7.390455 14.6736292,7.390455 15.0913838,7.59718101 L17.3368146,8.8892186 C17.7023499,9.09594461 17.9634465,9.50939664 17.9634465,9.97453017 L17.9634465,12.5586053 C17.9634465,12.9720574 17.7545692,13.3855094 17.3368146,13.6439169 L15.1436031,14.9359545 C14.7780679,15.1426805 14.308094,15.1426805 13.8903394,14.9359545 L11.6449086,13.6439169 C11.2793734,13.4371909 11.0182768,13.0237389 11.0182768,12.5586053 L11.0182768,10.9047972 L9.03394256,12.0417903 L9.03394256,13.7472799 C9.03394256,14.1607319 9.24281984,14.574184 9.66057441,14.8325915 L13.8903394,17.2616222 C14.2558747,17.4683482 14.7258486,17.4683482 15.1436031,17.2616222 L19.3733681,14.8325915 C19.7389034,14.6258655 20,14.2124135 20,13.7472799 L20,8.83753709 C20,8.42408506 19.7911227,8.01063304 19.3733681,7.75222552 L15.1436031,5.32319486 Z" id="Path"></path>
            </g>
        </g>
    </g>
</svg>