<svg width="24" height="24" viewBox="0 0 24 24" fill="none" xmlns="http://www.w3.org/2000/svg">
<path d="M1.68255 16.3166C1.65735 16.3737 1.6279 16.4289 1.59443 16.4817C1.41997 16.7677 1.31495 17.0889 1.28743 17.4206C1.5667 17.9702 1.88887 18.4982 2.2511 18.9998C2.27064 18.8037 2.31508 18.6108 2.38339 18.4255C2.46152 18.1888 2.45858 17.9337 2.37501 17.6988C2.11204 17.254 1.88067 16.7922 1.68255 16.3166Z" fill="white"/>
<path d="M0.808288 9.13235C1.0338 9.0321 1.21871 8.86161 1.33392 8.6477C1.48895 8.14867 1.67926 7.6607 1.90349 7.18732C1.84221 7.20775 1.77938 7.22347 1.71558 7.23435C1.38741 7.29512 1.07903 7.43188 0.816414 7.63311C0.588513 8.21791 0.407427 8.81904 0.27478 9.43111C0.438159 9.30878 0.617585 9.20831 0.808288 9.13235Z" fill="white"/>
<path d="M8.88629 0.843313C9.08403 0.990279 9.32797 1.06578 9.57647 1.05692C10.0822 0.945473 10.5954 0.869291 11.1122 0.828957C11.0576 0.781817 11.0073 0.730229 10.9617 0.674751C10.7669 0.443059 10.5221 0.256038 10.2448 0.126984C9.61946 0.218342 9.00275 0.359067 8.40077 0.547772C8.57456 0.626277 8.73765 0.725553 8.88629 0.843313Z" fill="white"/>
<path d="M6.64182 1.73661C6.86312 1.83739 7.11321 1.86107 7.35028 1.80369C7.82355 1.58614 8.31238 1.40233 8.81292 1.25369C8.75162 1.21972 8.69336 1.18081 8.63873 1.13736C8.39565 0.948727 8.1121 0.815902 7.80914 0.748749C7.21676 0.968859 6.64371 1.23549 6.09561 1.54602C6.28527 1.58658 6.46883 1.65063 6.64182 1.73661Z" fill="white"/>
<path d="M1.64828 6.85983C1.88812 6.80905 2.10353 6.68127 2.26 6.49696C2.5173 6.04053 2.80698 5.60218 3.12692 5.18509C3.05954 5.19306 2.99159 5.19563 2.92378 5.19276C2.59823 5.18388 2.27517 5.25047 1.98119 5.38707C1.63231 5.91434 1.32648 6.46752 1.06653 7.04151C1.25123 6.95584 1.4469 6.89474 1.64828 6.85983Z" fill="white"/>
<path d="M4.63095 3.07966C4.87411 3.1325 5.12855 3.10117 5.35059 2.99105C5.76512 2.68205 6.20153 2.40198 6.65655 2.15294C6.59006 2.13255 6.52542 2.10681 6.46331 2.07596C6.183 1.94017 5.87437 1.86911 5.56135 1.86829C5.02901 2.20853 4.52508 2.58925 4.05428 3.00689C4.24892 3.00678 4.44275 3.03124 4.63095 3.07966Z" fill="white"/>
<path d="M2.94153 4.81255C3.1962 4.81322 3.44296 4.72627 3.63831 4.567C3.78593 4.4005 3.9388 4.23755 4.09691 4.07815C4.30361 3.87072 4.517 3.67271 4.73707 3.48409C4.66718 3.47791 4.59795 3.46599 4.53012 3.44845C4.22389 3.37349 3.90397 3.369 3.59565 3.43533C3.56341 3.46702 3.5309 3.49796 3.49916 3.53013C3.08283 3.94804 2.69805 4.39474 2.34784 4.86675C2.54241 4.82317 2.74204 4.80494 2.94153 4.81255Z" fill="white"/>
<path d="M0.45606 11.5303C0.662047 11.3799 0.810298 11.1664 0.877077 10.9241C0.925444 10.4112 1.00909 9.90195 1.12745 9.3999C1.07203 9.43233 1.01413 9.46054 0.954271 9.4843C0.643955 9.61328 0.36966 9.81252 0.154136 10.0655C0.0549371 10.6823 0.00341297 11.3055 0 11.9298C0.133446 11.7778 0.286774 11.6435 0.45606 11.5303Z" fill="white"/>
<path d="M19.3691 20.9199C19.1259 20.867 18.8715 20.8982 18.6494 21.0082C18.235 21.3171 17.7988 21.5971 17.344 21.8461C17.4103 21.8666 17.4748 21.8924 17.5367 21.9233C17.817 22.0591 18.1256 22.1301 18.4387 22.131C18.971 21.7908 19.475 21.4101 19.9457 20.9924C19.7511 20.9925 19.5573 20.9681 19.3691 20.9199Z" fill="white"/>
<path d="M23.5437 12.4694C23.338 12.6195 23.1899 12.8324 23.1229 13.0741C23.0745 13.5872 22.9909 14.0965 22.8726 14.5986C22.9279 14.5662 22.9857 14.538 23.0455 14.5142C23.356 14.3847 23.6304 14.1849 23.8461 13.9315C23.9453 13.3151 23.9967 12.6924 24 12.0685C23.8666 12.221 23.7132 12.3559 23.5437 12.4694Z" fill="white"/>
<path d="M15.1134 23.1564C14.9158 23.0097 14.6721 22.9341 14.4238 22.9426C13.9179 23.0541 13.4045 23.1304 12.8875 23.1708C12.942 23.2179 12.9924 23.2694 13.0381 23.3247C13.2328 23.5565 13.4776 23.7436 13.7549 23.8728C14.3803 23.7814 14.9971 23.6407 15.5992 23.452C15.4253 23.3735 15.2621 23.2742 15.1134 23.1564Z" fill="white"/>
<path d="M10.321 23.4646C10.1997 23.2484 10.0064 23.0791 9.77301 22.9844C9.26937 22.8827 8.7738 22.7461 8.29005 22.5758C8.31826 22.6375 8.34153 22.7013 8.35963 22.7666C8.44537 23.0627 8.59613 23.3371 8.80147 23.5708C9.40225 23.7355 10.0156 23.8531 10.6356 23.9225C10.5124 23.7826 10.4068 23.6289 10.321 23.4646Z" fill="white"/>
<path d="M22.2913 15.2379C22.2913 15.2379 22.3167 15.2345 22.3195 15.231C22.5407 14.5219 22.7898 13.7815 22.7898 13.0184C22.7898 12.6833 22.8101 12.3513 22.8101 12.008C22.8013 11.594 22.768 11.1807 22.7103 10.7704H22.7324V10.7546C22.6298 10.0055 22.4616 9.2663 22.2296 8.54519H22.2266C22.2266 8.54519 22.2212 8.54123 22.2207 8.53776C20.7794 4.26082 16.7419 1.17447 12.0008 1.17447C7.17838 1.17447 3.08426 4.36899 1.70973 8.76103C1.70973 8.76103 1.70796 8.76325 1.70643 8.76647C1.37998 9.81219 1.21456 10.8994 1.21559 11.9924C1.21359 12.406 1.2375 12.8193 1.28719 13.23H1.32275V13.2459C1.41568 13.9942 1.57421 14.7333 1.79658 15.4553H1.78541C1.78541 15.4553 1.78337 15.4587 1.78388 15.4619C3.2257 19.7381 7.25964 22.8245 11.9998 22.8245C16.8237 22.8247 20.917 19.63 22.2913 15.2379ZM2.93012 11.9999C2.93012 6.95857 6.99886 2.85737 12 2.85737C17.0012 2.85737 21.0699 6.95882 21.0699 11.9999C21.0699 17.0409 17.0012 21.1423 12 21.1423C6.99886 21.1423 2.93012 17.0411 2.93012 11.9999Z" fill="white"/>
<path d="M7.98207 22.8656C7.90896 22.6319 7.75851 22.4283 7.55419 22.2867C7.07931 22.08 6.62014 21.8406 6.18018 21.5703C6.19478 21.6355 6.2042 21.7018 6.20836 21.7684C6.23153 22.0812 6.32443 22.3853 6.48058 22.6594C7.03262 22.9463 7.60742 23.1895 8.19943 23.3867C8.10592 23.2221 8.03294 23.0471 7.98207 22.8656Z" fill="white"/>
<path d="M5.81755 21.7921C5.79335 21.5418 5.68404 21.3066 5.50699 21.1238C5.0903 20.8242 4.69511 20.4971 4.32419 20.1449C4.32503 20.2123 4.32044 20.2796 4.31047 20.3464C4.26788 20.6622 4.29692 20.9833 4.39554 21.2869C4.87553 21.6814 5.38658 22.0385 5.92395 22.355C5.86543 22.1722 5.82971 21.9832 5.81755 21.7921Z" fill="white"/>
<path d="M16.0177 1.13413C16.0905 1.36794 16.2409 1.57157 16.4453 1.71308C16.9202 1.91975 17.3794 2.15913 17.8193 2.42941C17.8048 2.3642 17.7954 2.298 17.7911 2.2314C17.768 1.91857 17.675 1.61446 17.5187 1.34032C16.9664 1.05271 16.3914 0.808855 15.7991 0.611115C15.8932 0.776284 15.9666 0.951882 16.0177 1.13413Z" fill="white"/>
<path d="M23.1925 14.8674C22.9671 14.9674 22.7822 15.1378 22.6671 15.3516C22.5121 15.8506 22.3217 16.3386 22.0973 16.8119C22.1586 16.7916 22.2214 16.776 22.2852 16.7652C22.6138 16.7037 22.9225 16.5664 23.1854 16.3647C23.413 15.7803 23.5939 15.1797 23.7265 14.5681C23.563 14.6906 23.3834 14.7913 23.1925 14.8674Z" fill="white"/>
<path d="M21.0582 19.1872C20.8036 19.1861 20.5568 19.273 20.3617 19.4325C20.2139 19.5992 20.0609 19.7622 19.9028 19.9216C19.6961 20.129 19.4827 20.327 19.2627 20.5157C19.3325 20.5218 19.4016 20.5336 19.4694 20.5511C19.7756 20.6262 20.0955 20.6306 20.4038 20.5642C20.4361 20.5327 20.4686 20.5015 20.5006 20.4696C20.917 20.0517 21.3018 19.605 21.6522 19.133C21.4575 19.1765 21.2578 19.1947 21.0582 19.1872Z" fill="white"/>
<path d="M20.0753 3.7094C20.047 3.96478 20.1076 4.22199 20.2472 4.43984C20.5903 4.8155 20.9071 5.21317 21.1956 5.63017C21.2087 5.56675 21.2266 5.50436 21.2492 5.44354C21.3578 5.13639 21.395 4.80952 21.3581 4.48662C21.0897 4.15332 20.8036 3.83398 20.5008 3.52995C20.3654 3.3943 20.2275 3.26229 20.0872 3.13391C20.1072 3.3255 20.1032 3.51875 20.0753 3.7094Z" fill="white"/>
<path d="M22.3515 17.1397C22.1112 17.1903 21.8954 17.3182 21.7387 17.5028C21.4814 17.9592 21.1917 18.3975 20.8718 18.8147C20.9392 18.8068 21.0072 18.8043 21.075 18.8072C21.4003 18.8163 21.7232 18.7499 22.0171 18.6137C22.3666 18.0865 22.673 17.5333 22.9335 16.9592C22.7486 17.0445 22.5529 17.1052 22.3515 17.1397Z" fill="white"/>
<path d="M11.2669 0.436629C11.4356 0.627734 11.6682 0.754586 11.9236 0.794793C11.949 0.794793 11.9744 0.794793 11.9998 0.794793C12.4824 0.794887 12.9646 0.825811 13.4431 0.887367C13.4005 0.830752 13.3627 0.770815 13.3301 0.708161C13.1883 0.441959 12.989 0.208822 12.7461 0.0247518C12.4987 0.00965299 12.2501 0 12.0003 0C11.6182 0 11.2392 0.0177391 10.8634 0.0532173C11.0133 0.164695 11.1488 0.293434 11.2669 0.436629Z" fill="white"/>
<path d="M12.7331 23.5629C12.5643 23.3717 12.3316 23.2449 12.0762 23.2049C12.0508 23.2049 12.0254 23.2049 12 23.2049C11.5172 23.2049 11.035 23.174 10.5564 23.1124C10.5992 23.169 10.637 23.2291 10.6696 23.2918C10.8114 23.5581 11.0107 23.7912 11.2537 23.9752C11.501 23.9903 11.7499 24 11.9997 24C12.3816 24 12.7605 23.9822 13.1363 23.9468C12.9865 23.8351 12.8511 23.7062 12.7331 23.5629Z" fill="white"/>
<path d="M0.609845 13.9483C0.780618 13.7585 0.881668 13.5187 0.897041 13.2667C0.84985 12.846 0.826115 12.4231 0.825941 11.9998C0.825941 11.9081 0.82704 11.8165 0.829241 11.7251C0.781676 11.7688 0.730741 11.809 0.676883 11.8451C0.399691 12.037 0.172593 12.2897 0.0138702 12.5828C0.0433795 13.2057 0.12122 13.8255 0.246725 14.437C0.345496 14.2594 0.467562 14.0952 0.609845 13.9483Z" fill="white"/>
<path d="M3.9245 20.2904C3.95267 20.0349 3.89204 19.7776 3.75233 19.5597C3.40923 19.1841 3.09238 18.7865 2.8039 18.3696C2.79091 18.4331 2.77309 18.4956 2.75057 18.5565C2.64154 18.863 2.60406 19.1894 2.64088 19.5119C2.90955 19.8457 3.19604 20.1656 3.49916 20.4701C3.63459 20.6057 3.77239 20.7377 3.91256 20.8661C3.89265 20.6744 3.89666 20.4811 3.9245 20.2904Z" fill="white"/>
<path d="M18.1812 2.20791C18.2056 2.45814 18.3149 2.69329 18.4918 2.87622C18.9085 3.17596 19.3037 3.50312 19.6746 3.85542C19.6738 3.78801 19.6784 3.72065 19.6883 3.65394C19.7309 3.33812 19.7019 3.01702 19.6032 2.71335C19.1232 2.31886 18.6122 1.96174 18.0748 1.64529C18.1334 1.82797 18.1691 2.01688 18.1812 2.20791Z" fill="white"/>
<path d="M13.679 0.535129C13.8003 0.751196 13.9935 0.920555 14.2267 1.01532C14.7306 1.11701 15.2263 1.25357 15.7102 1.42398C15.6819 1.36223 15.6587 1.29842 15.6406 1.23314C15.5549 0.936951 15.4041 0.662466 15.1988 0.428695C14.598 0.264002 13.9847 0.146384 13.3646 0.0769653C13.4878 0.2169 13.5934 0.370718 13.679 0.535129Z" fill="white"/>
<path d="M1.26204 16.2812C1.38629 16.0673 1.43643 15.82 1.40501 15.576C1.23988 15.082 1.10965 14.5775 1.01522 14.0662C0.978164 14.1178 0.937165 14.1666 0.892576 14.2122C0.660351 14.4578 0.490032 14.7528 0.395126 15.0738C0.553032 15.6741 0.75805 16.2616 1.00837 16.8312C1.06843 16.6381 1.15368 16.4532 1.26204 16.2812Z" fill="white"/>
<path d="M23.3238 12.1548C23.6011 11.9628 23.8284 11.7101 23.9873 11.4169C23.9577 10.7939 23.8797 10.174 23.7542 9.5625C23.6551 9.74011 23.5327 9.90437 23.3901 10.0511C23.2192 10.2409 23.1182 10.4809 23.1031 10.733C23.1501 11.1538 23.1738 11.5766 23.174 11.9999C23.174 12.0916 23.1729 12.1832 23.1707 12.2746C23.2185 12.2309 23.2697 12.1909 23.3238 12.1548Z" fill="white"/>
<path d="M22.3175 7.68312C22.3427 7.62616 22.3721 7.57106 22.4056 7.51827C22.5803 7.2327 22.6855 6.91185 22.7131 6.58041C22.4335 6.02994 22.1109 5.50124 21.7482 4.99899C21.7286 5.19509 21.6841 5.38806 21.6159 5.57349C21.5375 5.81008 21.5404 6.0651 21.624 6.29997C21.8874 6.74499 22.1191 7.20713 22.3175 7.68312Z" fill="white"/>
<path d="M22.738 7.71851C22.6137 7.93237 22.5636 8.1796 22.595 8.42346C22.7601 8.9175 22.8903 9.42197 22.9848 9.93334C23.0218 9.88181 23.0628 9.83308 23.1074 9.78755C23.3398 9.54185 23.5102 9.24676 23.6051 8.92568C23.4473 8.3254 23.2423 7.73787 22.9919 7.16827C22.9318 7.36152 22.8464 7.54645 22.738 7.71851Z" fill="white"/>
<path d="M17.3582 22.2624C17.1369 22.1616 16.8868 22.1379 16.6497 22.1953C16.1765 22.4127 15.6878 22.5965 15.1873 22.7451C15.2484 22.7792 15.3065 22.8182 15.361 22.8616C15.6041 23.0503 15.8876 23.1832 16.1906 23.2503C16.7831 23.0302 17.3562 22.7635 17.9044 22.453C17.7147 22.4124 17.5312 22.3484 17.3582 22.2624Z" fill="white"/>
<path d="M16.5337 15.7191L14.4202 12.9256C14.768 12.7914 15.0894 12.5996 15.3702 12.3588C15.8826 11.9164 16.4938 11.0833 16.4938 9.62487C16.5112 9.18403 16.4321 8.74463 16.2617 8.33592C16.0913 7.92722 15.8335 7.55859 15.5055 7.2546C14.4606 6.31971 13.0835 6.34941 12.6417 6.34941H8.44244C8.12014 6.3517 7.8119 6.47833 7.58514 6.70159C7.35838 6.92485 7.23158 7.22657 7.23246 7.54074C7.23246 7.56549 7.23627 7.60336 7.23627 7.62885V8.69914H13.1528C13.4118 8.70695 13.6576 8.81235 13.8384 8.99318C14.0193 9.174 14.1212 9.41615 14.1226 9.66868V9.89343C14.1197 10.142 14.0161 10.3794 13.8345 10.5539C13.6529 10.7284 13.4079 10.8258 13.1528 10.8251H12.2194C11.9954 10.8253 11.7758 10.886 11.5851 11.0005C11.3943 11.115 11.2399 11.2788 11.1389 11.4737C11.038 11.6686 10.9944 11.887 11.0131 12.1046C11.0318 12.3222 11.112 12.5305 11.2448 12.7063L14.5835 17.1196C14.6778 17.2443 14.7964 17.3497 14.9325 17.4298C15.0686 17.5099 15.2196 17.563 15.3768 17.5862C15.534 17.6094 15.6943 17.6022 15.8486 17.565C16.0029 17.5278 16.1482 17.4613 16.2762 17.3693C16.4042 17.2774 16.5123 17.1618 16.5944 17.0291C16.6766 16.8964 16.7311 16.7493 16.7549 16.5961C16.7787 16.4429 16.7713 16.2866 16.7331 16.1362C16.6949 15.9857 16.6267 15.8441 16.5324 15.7194L16.5337 15.7191Z" fill="white"/>
<path d="M7.23616 10.8249V16.3637H7.25064C7.28848 16.7096 7.45712 17.0294 7.72367 17.2607C7.99022 17.492 8.33559 17.6183 8.69245 17.6149C9.04734 17.615 9.38995 17.4883 9.6556 17.2589C9.92124 17.0296 10.0915 16.7133 10.1343 16.3699L10.15 10.8254L7.23616 10.8249Z" fill="white"/>
</svg>
