<svg width="24" height="24" viewBox="0 0 24 24" fill="none" xmlns="http://www.w3.org/2000/svg">
<path d="M10.8319 11.8991H3.63403C2.72924 11.8991 2 12.6254 2 13.5266C2 15.1271 3.67454 16.1896 5.13302 15.5037L9.95409 13.3517C10.1161 13.2845 10.3052 13.3517 10.3592 13.5266V13.54C10.4132 13.7014 10.3457 13.8763 10.1972 13.9435C8.90074 14.495 3.526 16.7949 3.526 16.7949C2.6077 17.1984 2 18.113 2 19.1083V19.6597C2 20.8568 2.97232 21.8252 4.17421 21.8252H10.4808C11.5206 21.8252 12.3309 20.924 12.2228 19.8884L11.6151 13.9973C11.6016 13.8225 11.7367 13.6745 11.9122 13.688C12.0608 13.688 12.1823 13.809 12.1958 13.957L12.6009 20.0094C12.709 21.1392 13.6678 22 14.8022 22H15.3288C16.2876 22 16.9899 20.7492 16.4902 19.9287L15.5044 18.7317C15.2343 18.3013 15.3288 17.7364 15.7205 17.4001L15.842 17.2925C16.2336 16.9563 16.8413 17.0773 17.0844 17.5346L18.867 20.9106C19.2181 21.5831 19.9068 22 20.6631 22H20.6901C21.4058 22 22 21.4217 22 20.6954V14.3067C22 13.4862 21.3383 12.8272 20.5145 12.8272H15.842C15.707 12.8272 15.5854 12.7196 15.5854 12.5716C15.5854 12.4371 15.6935 12.3161 15.842 12.3161H19.9338C21.2302 12.3161 22.1621 11.0787 21.7974 9.84129L21.7839 9.78749C21.3923 8.48285 19.8123 7.97176 18.7319 8.80565L13.8839 12.5447C13.7893 12.612 13.6678 12.5851 13.6003 12.4909C13.5463 12.4102 13.5733 12.3026 13.6408 12.2488L21.2438 6.16947C21.7164 5.79287 21.9865 5.22798 21.9865 4.62273V4.54203C21.9865 3.89644 21.7299 3.26429 21.2708 2.80699L21.2573 2.79354C20.7711 2.2959 20.1094 2.01345 19.4072 2.01345C18.3268 2.01345 16.6658 2.01345 15.4639 2.01345C14.5591 2.01345 13.7758 2.60525 13.5192 3.46604L12.1283 8.1197C12.1013 8.2004 12.0203 8.2542 11.9257 8.2542C11.8177 8.24075 11.7367 8.1466 11.7502 8.039L12.3579 4.12508C12.5334 3.02219 11.6691 2.01345 10.5483 2.01345H9.50844C7.94193 2.01345 7.01013 3.77539 7.91492 5.06658L11.345 10.0027C11.4126 10.1237 11.372 10.2717 11.2505 10.3389C11.1425 10.3927 11.0209 10.3658 10.9534 10.2717L5.53815 2.88769C5.13302 2.33625 4.48481 2 3.79608 2C2.81026 2 2.0135 2.79354 2.0135 3.77539V4.28648C2.0135 5.34902 2.6077 6.31742 3.553 6.80161L7.8609 8.96705C8.25253 9.1688 8.40108 9.65299 8.158 10.0296C7.92843 10.3927 7.50979 10.3793 7.14517 10.1506L4.09318 8.61735C3.13437 8.13315 2 8.83255 2 9.89509C2 10.6886 2.64821 11.3342 3.44497 11.3342H10.8319C10.9939 11.3342 11.1155 11.4687 11.1155 11.6301C11.102 11.7781 10.9804 11.8991 10.8319 11.8991Z" fill="white"/>
</svg>
