<svg xmlns="http://www.w3.org/2000/svg" width="23" height="22" viewBox="0 0 23 22">
    <g fill="none" fill-rule="evenodd">
        <g>
            <g>
                <path d="M0 0H23V22H0z" transform="translate(-276 -14) translate(276 14)"/>
                <path fill="#FFF" fill-rule="nonzero" d="M14.41 1.789c5.016 2.502 6.916 8.355 4.243 13.072-2.673 4.717-8.905 6.512-13.92 4.01-1.355-.676-1.938-1.336-2.015-2.033C.166 14.19-.758 10.238.677 6.598c1.748-4.435 4.134-1.307 8.17.83 1.557-4.093 1.228-7.803 5.563-5.64zM5.294 0c.119.035.237.077.353.123C7.581.898 8.51 2.95 7.722 4.703c-.069.152-.148.297-.237.435-.12-.036-.237-.077-.353-.123C5.2 4.239 4.27 2.189 5.058.436c.068-.152.148-.298.236-.436z" transform="translate(-276 -14) translate(276 14) translate(2.045 1)"/>
            </g>
        </g>
    </g>
</svg>
