<svg xmlns="http://www.w3.org/2000/svg" width="23" height="22" viewBox="0 0 23 22">
    <g fill="none" fill-rule="evenodd">
        <g fill="#FFF" fill-rule="nonzero">
            <g>
                <path d="M16.455 2.789c5.016 2.502 6.916 8.355 4.243 13.072-2.672 4.717-8.905 6.512-13.92 4.01-1.354-.676-1.937-1.336-2.015-2.033-2.552-2.648-3.476-6.6-2.04-10.24 1.748-4.435 4.133-1.307 8.17.83 1.557-4.093 1.227-7.803 5.562-5.64zM7.34 1c.118.035.237.077.353.123 1.933.775 2.862 2.826 2.074 4.58-.068.152-.148.297-.236.435-.12-.036-.238-.077-.353-.123-1.934-.776-2.863-2.826-2.075-4.579.069-.152.148-.298.237-.436z" transform="translate(-276 -14) translate(276 14)"/>
            </g>
        </g>
    </g>
</svg>
