<svg width="24" height="24" viewBox="0 0 24 24" fill="none" xmlns="http://www.w3.org/2000/svg">
<path d="M5.99941 15.4336C6.11081 15.3177 6.26398 15.25 6.42644 15.25H21.1589C21.4281 15.25 21.5627 15.5883 21.3724 15.7864L18.4621 18.8164C18.3507 18.9323 18.1976 19 18.0351 19H3.30264C3.03343 19 2.89882 18.6617 3.08913 18.4636L5.99941 15.4336Z" fill="url(#paint0_linear)"/>
<path d="M5.99941 4.18363C6.11545 4.06765 6.26863 4 6.42644 4H21.1589C21.4281 4 21.5627 4.33827 21.3724 4.5364L18.4621 7.56637C18.3507 7.68235 18.1976 7.75 18.0351 7.75H3.30264C3.03343 7.75 2.89882 7.41173 3.08913 7.2136L5.99941 4.18363Z" fill="url(#paint1_linear)"/>
<path d="M18.4621 9.80863C18.3507 9.69265 18.1976 9.625 18.0351 9.625H3.30264C3.03343 9.625 2.89882 9.96327 3.08913 10.1614L5.99941 13.1914C6.11081 13.3073 6.26398 13.375 6.42644 13.375H21.1589C21.4281 13.375 21.5627 13.0367 21.3724 12.8386L18.4621 9.80863Z" fill="url(#paint2_linear)"/>
<defs>
<linearGradient id="paint0_linear" x1="-30.2979" y1="1.09163" x2="-30.7228" y2="21.6264" gradientUnits="userSpaceOnUse">
<stop stop-color="#00FFA3"/>
<stop offset="1" stop-color="#DC1FFF"/>
</linearGradient>
<linearGradient id="paint1_linear" x1="-34.7562" y1="-1.26885" x2="-35.181" y2="19.2659" gradientUnits="userSpaceOnUse">
<stop stop-color="#00FFA3"/>
<stop offset="1" stop-color="#DC1FFF"/>
</linearGradient>
<linearGradient id="paint2_linear" x1="-32.5412" y1="-0.0600842" x2="-32.9661" y2="20.4747" gradientUnits="userSpaceOnUse">
<stop stop-color="#00FFA3"/>
<stop offset="1" stop-color="#DC1FFF"/>
</linearGradient>
</defs>
</svg>
