<svg width="24" height="24" viewBox="0 0 24 24" fill="none" xmlns="http://www.w3.org/2000/svg">
<circle cx="12" cy="12" r="11" fill="#141414"/>
<path d="M12 8.98933L8.62493 16.643C8.51338 16.8885 8.45552 17.0876 8.21034 17.0876H5.98119C5.66159 17.0876 5.48532 17 5.64052 16.6433L11.0912 4.11157C11.2028 3.90319 11.2719 3.75 11.5174 3.75H12.4827C12.7279 3.75 12.7969 3.90302 12.9085 4.11157L18.3595 16.6433C18.5146 17 18.3385 17.0876 18.0189 17.0876H15.7897C15.544 17.0876 15.4865 16.8885 15.3751 16.643L12 8.98933Z" fill="white"/>
<path d="M12.0045 20.6178L9.77538 16.1593H14.1589L12.0045 20.6178Z" fill="white"/>
</svg>
