<svg width="24" height="24" viewBox="0 0 24 24" fill="none" xmlns="http://www.w3.org/2000/svg">
<g opacity="0.9">
<path d="M15.6567 14.4222C15.6567 12.5002 14.4932 11.8412 12.1662 11.5667C10.5041 11.347 10.1716 10.9077 10.1716 10.1388C10.1716 9.36994 10.7257 8.87583 11.8338 8.87583C12.8311 8.87583 13.3852 9.20532 13.6622 10.029C13.7176 10.1938 13.8838 10.3036 14.05 10.3036H14.9364C15.1581 10.3036 15.3243 10.1388 15.3243 9.91926V9.8643C15.1026 8.65613 14.1054 7.72262 12.8311 7.61283V6.29488C12.8311 6.07517 12.6649 5.91043 12.3879 5.85547H11.5568C11.3351 5.85547 11.1689 6.02021 11.1135 6.29488V7.55788C9.45131 7.77758 8.3987 8.87583 8.3987 10.2488C8.3987 12.0609 9.50676 12.7748 11.8338 13.0494C13.3852 13.3239 13.8838 13.6534 13.8838 14.5321C13.8838 15.4108 13.1081 16.0148 12.0554 16.0148C10.6148 16.0148 10.1162 15.4107 9.94996 14.5869C9.89464 14.3674 9.72843 14.2575 9.56221 14.2575H8.62023C8.3987 14.2575 8.23248 14.4222 8.23248 14.6419V14.6969C8.45402 16.0696 9.34054 17.0581 11.1689 17.3328V18.6507C11.1689 18.8703 11.3351 19.0351 11.6121 19.09H12.4432C12.6649 19.09 12.8311 18.9253 12.8865 18.6507V17.3328C14.5487 17.0581 15.6567 15.9049 15.6567 14.4222Z" fill="#2775CA"/>
<path fill-rule="evenodd" clip-rule="evenodd" d="M4.24331 9.64462C2.63647 13.8732 4.85272 18.6508 9.17433 20.1883C9.34055 20.2982 9.50676 20.5178 9.50676 20.6825V21.4514C9.50676 21.5612 9.50676 21.6162 9.45131 21.671C9.396 21.8907 9.17433 22.0005 8.95267 21.8907C5.85001 20.9022 3.46754 18.5408 2.47025 15.4656C0.808091 10.2488 3.68921 4.70228 8.95267 3.05483C9.00811 3 9.11888 3 9.17433 3C9.396 3.05483 9.50676 3.21957 9.50676 3.43928V4.20804C9.50676 4.4827 9.396 4.64745 9.17433 4.75723C6.90276 5.58096 5.07439 7.33819 4.24331 9.64462ZM14.5487 3.27464C14.604 3.05494 14.8256 2.94515 15.0473 3.05494C18.0945 4.04341 20.5324 6.40479 21.5297 9.53494C23.1919 14.7518 20.3108 20.2983 15.0473 21.9458C14.9919 22.0006 14.8811 22.0006 14.8256 22.0006C14.604 21.9458 14.4932 21.781 14.4932 21.5613V20.7926C14.4932 20.5179 14.604 20.3531 14.8256 20.2434C17.0972 19.4196 18.9256 17.6624 19.7567 15.356C21.3635 11.1274 19.1473 6.34983 14.8256 4.8123C14.6594 4.70239 14.4932 4.48281 14.4932 4.26311V3.49434C14.4932 3.38443 14.4932 3.3296 14.5487 3.27464Z" fill="#2775CA"/>
</g>
</svg>
