<svg width="24" height="24" viewBox="0 0 24 24" fill="none" xmlns="http://www.w3.org/2000/svg">
<path fill-rule="evenodd" clip-rule="evenodd" d="M20.405 6.63829L20.4049 6.63822L20.4049 6.63817C19.7333 5.97975 19.0237 5.28403 18.3975 4.72273L18.3341 4.67789C18.2285 4.5923 18.1095 4.52517 17.982 4.4793L17.4986 4.38823L17.4985 4.38822L17.4982 4.38817C14.1628 3.75969 3.35328 1.72296 3.13091 1.75027C3.06514 1.75957 3.00227 1.78365 2.94694 1.82074L2.88667 1.86879C2.81246 1.94489 2.7561 2.03683 2.72173 2.13784L2.70587 2.17949V2.4069V2.44214C3.4398 4.50585 5.34634 9.11462 7.10672 13.3701L7.10673 13.3701L7.10678 13.3702L7.1068 13.3703C8.59506 16.9679 9.97885 20.313 10.4613 21.6542L10.4615 21.6548C10.5249 21.8535 10.6455 22.2308 10.8705 22.25H10.9212C11.0417 22.25 11.5556 21.5645 11.5556 21.5645C11.5556 21.5645 20.7416 10.3153 21.6709 9.11736C21.7912 8.9698 21.8974 8.81107 21.9881 8.6433C22.0352 8.3763 21.9401 8.10392 21.7376 7.92581C21.342 7.55701 20.8834 7.10741 20.4056 6.63889L20.4052 6.63853L20.405 6.63829ZM13.9124 9.2359L17.8329 5.95274L20.1326 8.0924L13.9124 9.2359ZM5.63994 3.43505L12.3898 9.02123L16.561 5.46901L5.63994 3.43505ZM12.9989 10.4851L19.9074 9.36083L12.0092 18.9701L12.9989 10.4851ZM11.8252 10.0783L4.72325 3.99242L10.7975 18.9764L11.8252 10.0783Z" fill="white"/>
</svg>
