<svg width="24" height="24" viewBox="0 0 24 24" fill="none" xmlns="http://www.w3.org/2000/svg">
<path fill-rule="evenodd" clip-rule="evenodd" d="M12.9291 2.69684C12.3912 1.76772 11.5354 1.76772 10.9975 2.69684L1.22958 19.8977C0.691667 20.8391 1.13177 21.5848 2.20759 21.5848H7.10991C8.10015 21.5237 8.99259 20.998 9.53051 20.1667L15.4353 9.93417C15.8632 9.05396 15.8632 8.01481 15.4353 7.13459L13.6749 4.04161L12.9291 2.69684ZM19.4207 14.0174C18.8828 13.0883 18.0148 13.0883 17.4769 14.0174L14.0661 19.8977C13.5404 20.8269 13.9805 21.5848 15.0441 21.5848H21.7924C22.8682 21.5848 23.3083 20.8269 22.7704 19.8977L19.4207 14.0174Z" fill="white"/>
</svg>
