<svg width="24" height="24" viewBox="0 0 24 24" fill="none" xmlns="http://www.w3.org/2000/svg">
<path fill-rule="evenodd" clip-rule="evenodd" d="M23 12C23 18.0751 18.0751 23 12 23C5.92487 23 1 18.0751 1 12C1 5.92487 5.92487 1 12 1C18.0751 1 23 5.92487 23 12ZM11.7423 9.10225C11.9073 8.93722 12 8.71339 12 8.48C12 8.24661 12.0927 8.02278 12.2577 7.85775C12.4228 7.69271 12.6466 7.6 12.88 7.6H19.04V14.64H12.88C12.6466 14.64 12.4228 14.7327 12.2577 14.8977C12.0927 15.0628 12 15.2866 12 15.52C12 15.7534 11.9073 15.9772 11.7423 16.1423C11.5772 16.3073 11.3534 16.4 11.12 16.4H4.96V9.36H11.12C11.3534 9.36 11.5772 9.26729 11.7423 9.10225Z" fill="#00EF8B"/>
<path d="M12.0002 9.80344L9.8036 12L12.0002 14.1966L14.1967 12L12.0002 9.80344Z" fill="#16FF99"/>
</svg>
