<svg width="24" height="24" viewBox="0 0 24 24" fill="none" xmlns="http://www.w3.org/2000/svg">
<rect x="14.5522" y="9.3609" width="4.16418" height="4.19549" fill="#00EF8B"/>
<path d="M10.3541 15.1804C10.3541 16.0504 9.63956 16.7703 8.77612 16.7703C7.91268 16.7703 7.19811 16.0504 7.19811 15.1804C7.19811 14.3105 7.91268 13.5906 8.77612 13.5906H10.3541V9.3609H8.77612C5.59032 9.3609 3 11.9707 3 15.1804C3 18.3902 5.59032 21 8.77612 21C11.9619 21 14.5522 18.3902 14.5522 15.1804V13.5906H10.3541V15.1804Z" fill="#00EF8B"/>
<path d="M16.2201 7.2306H21V3H16.2201C13.0035 3 10.3881 5.61037 10.3881 8.82083V9.3609H14.6268V8.82083C14.6268 7.9507 15.3483 7.2306 16.2201 7.2306Z" fill="#00EF8B"/>
</svg>
