<svg width="24" height="24" viewBox="0 0 24 24" fill="none" xmlns="http://www.w3.org/2000/svg">
<path fill-rule="evenodd" clip-rule="evenodd" d="M14.841 12.2073V12.309C14.841 13.7657 16.0249 14.9577 17.4719 14.9577H18.9169C19.5151 14.9577 20 15.4459 20 16.048V20.5161H15.4887C14.8905 20.5161 14.4056 20.0279 14.4056 19.4256V17.5898C14.4056 16.133 13.2217 14.9411 11.7749 14.9411H11.6738C10.2269 14.9411 9.04305 16.133 9.04305 17.5898V20.5161H4V4H9.04305V6.96198C9.04305 8.41891 10.2269 9.61067 11.6739 9.61067H11.7749C13.2217 9.61067 14.4056 8.41891 14.4056 6.96198V5.09051C14.4056 4.48819 14.8905 4 15.4887 4H20V8.46814C20 9.07045 19.5151 9.55865 18.9169 9.55865H17.4719C16.0249 9.55865 14.841 10.7506 14.841 12.2073Z" fill="white"/>
</svg>
