<svg width="24" height="24" viewBox="0 0 24 24" fill="none" xmlns="http://www.w3.org/2000/svg">
<path d="M5.24936 16.3864C5.37005 16.2608 5.53598 16.1875 5.71198 16.1875H21.6721C21.9638 16.1875 22.1096 16.554 21.9034 16.7686L18.7506 20.0511C18.63 20.1767 18.464 20.25 18.288 20.25H2.32786C2.03621 20.25 1.89039 19.8835 2.09655 19.6689L5.24936 16.3864Z" fill="white"/>
<path d="M5.24936 4.19894C5.37507 4.07329 5.54101 4 5.71198 4H21.6721C21.9638 4 22.1096 4.36646 21.9034 4.58111L18.7506 7.86356C18.63 7.98921 18.464 8.0625 18.288 8.0625H2.32786C2.03621 8.0625 1.89039 7.69604 2.09655 7.4814L5.24936 4.19894Z" fill="white"/>
<path d="M18.7506 10.2927C18.63 10.167 18.464 10.0938 18.288 10.0938H2.32786C2.03621 10.0938 1.89039 10.4602 2.09655 10.6749L5.24936 13.9573C5.37005 14.083 5.53598 14.1562 5.71198 14.1562H21.6721C21.9638 14.1562 22.1096 13.7898 21.9034 13.5751L18.7506 10.2927Z" fill="white"/>
</svg>
