<svg width="24" height="24" viewBox="0 0 24 24" fill="none" xmlns="http://www.w3.org/2000/svg">
<path fill-rule="evenodd" clip-rule="evenodd" d="M23 12C23 18.0751 18.0751 23 12 23C5.92487 23 1 18.0751 1 12C1 5.92487 5.92487 1 12 1C18.0751 1 23 5.92487 23 12ZM12 8.98933L8.62494 16.643C8.61289 16.6695 8.60146 16.6955 8.59035 16.7207L8.59035 16.7207C8.4987 16.9292 8.42903 17.0876 8.21035 17.0876H5.9812C5.6616 17.0876 5.48533 17 5.64053 16.6433L11.0912 4.11157L11.1072 4.08175C11.2099 3.88874 11.2837 3.75 11.5174 3.75H12.4827C12.7161 3.75 12.7899 3.88872 12.8927 4.08201L12.9085 4.11157L18.3595 16.6433C18.5146 17 18.3385 17.0876 18.0189 17.0876H15.7897C15.5707 17.0876 15.5012 16.9293 15.4098 16.721C15.3987 16.6957 15.3872 16.6696 15.3751 16.643L12 8.98933ZM9.77539 16.1593L12.0045 20.6178L14.1589 16.1593H9.77539Z" fill="white"/>
</svg>
