<svg width="24" height="24" viewBox="0 0 24 24" fill="none" xmlns="http://www.w3.org/2000/svg">
<path d="M11.7252 19.1245C8.38532 19.1245 5.6731 16.4123 5.6731 13.0724C5.6731 9.82544 11.1518 4.09103 11.3843 3.8508L11.671 3.54858L11.9655 3.84305C12.2057 4.08328 17.7774 9.81769 17.7774 13.0646C17.7774 16.4123 15.0651 19.1245 11.7252 19.1245ZM11.6787 4.71871C11.1983 5.23791 10.1909 6.36154 9.19124 7.67891C7.41667 10.0192 6.47901 11.879 6.47901 13.0646C6.47901 15.9551 8.83477 18.3108 11.7252 18.3108C14.6157 18.3108 16.9714 15.9551 16.9714 13.0646C16.9714 11.879 16.0183 10.0192 14.2127 7.67891C13.1976 6.36929 12.1669 5.23791 11.6787 4.71871Z" fill="white"/>
<path d="M11.7253 21.0617C7.31597 21.0617 3.73584 17.4739 3.73584 13.0723C3.73584 8.76375 9.74923 2.75037 10.0049 2.50239C10.1599 2.34741 10.4234 2.34741 10.5784 2.50239C10.7334 2.65738 10.7334 2.92085 10.5784 3.07584C10.5164 3.13783 4.54951 9.10472 4.54951 13.0723C4.54951 17.0322 7.77318 20.2558 11.733 20.2558C15.6929 20.2558 18.9165 17.0322 18.9165 13.0723C18.9165 11.445 17.8626 9.19771 15.8634 6.55523C14.329 4.53269 12.7869 2.99834 12.7714 2.98284C12.6087 2.82786 12.6087 2.57214 12.7714 2.4094C12.9264 2.24667 13.1821 2.24667 13.3449 2.4094C13.6083 2.66513 19.7302 8.75601 19.7302 13.0723C19.7147 17.4739 16.1346 21.0617 11.7253 21.0617Z" fill="white"/>
<path d="M11.7253 22.9991C6.3628 22.9991 2 18.6362 2 13.2738C2 11.0575 3.11589 8.3298 5.30891 5.17587C6.9285 2.85111 8.51708 1.19278 8.58683 1.12304C8.74181 0.960303 8.99754 0.960303 9.16027 1.11529C9.323 1.27027 9.323 1.526 9.16802 1.68873C9.15252 1.70423 7.54843 3.37806 5.96759 5.64857C3.89856 8.61652 2.80592 11.2513 2.80592 13.2738C2.80592 18.1868 6.80451 22.1931 11.7253 22.1931C16.646 22.1931 20.6446 18.1945 20.6446 13.2738C20.6446 11.2513 19.5442 8.61652 17.4597 5.64857C15.8633 3.37806 14.2437 1.70423 14.2283 1.68873C14.0733 1.526 14.0733 1.27027 14.236 1.11529C14.3987 0.960303 14.6545 0.960303 14.8094 1.12304C15.0807 1.40201 21.4505 8.01983 21.4505 13.2738C21.4505 18.6362 17.0877 22.9991 11.7253 22.9991Z" fill="white"/>
</svg>
