<svg width="24" height="24" viewBox="0 0 24 24" fill="none" xmlns="http://www.w3.org/2000/svg">
<path fill-rule="evenodd" clip-rule="evenodd" d="M14.2361 6.10792V8.804L14.2376 8.80472C19.2397 9.03562 23 10.0273 23 11.2152C23 12.403 19.2397 13.3947 14.2376 13.6256V22.2623H9.77912V13.6264C4.76973 13.3947 1 12.4023 1 11.2134C1 10.0244 4.76792 9.032 9.77912 8.80182V6.10792H3.61308V2H20.4014V6.10792H14.2361ZM14.2376 12.892V12.8941L14.2383 12.8923C18.6554 12.6955 21.9539 11.9234 21.9539 11.0042C21.9539 10.085 18.6568 9.31325 14.2383 9.11643V12.1268C14.1114 12.1384 13.4202 12.1956 12.0453 12.1956C10.9006 12.1956 10.0713 12.1467 9.7813 12.1268V9.11643C5.3544 9.31289 2.04937 10.0828 2.04937 11.0053C2.04937 11.9278 5.35404 12.6988 9.7813 12.8949V12.8912C10.0666 12.9061 10.876 12.9387 12.0265 12.9387C13.4655 12.9387 14.1118 12.8999 14.2376 12.892Z" fill="white"/>
</svg>
