<svg xmlns="http://www.w3.org/2000/svg" width="22" height="22" viewBox="0 0 22 22">
    <g fill="none" fill-rule="evenodd">
        <g fill="#FFF" fill-rule="nonzero">
            <g>
                <path d="M11 0c6.075 0 11 4.925 11 11 0 1.711-.39 3.33-1.088 4.775v-.173l-.006-.162c-.083-1.234-1.11-2.21-2.366-2.21-1.255 0-2.282.976-2.366 2.21l-.005.162v.985c-.594.236-1.026.79-1.084 1.453l-.007.154v2.075c0 .311.082.604.226.856-1.321.564-2.776.875-4.304.875-6.075 0-11-4.925-11-11S4.925 0 11 0zm9.535 16.488c.826.13 1.457.844 1.457 1.706v2.075c0 .954-.774 1.728-1.729 1.728h-3.457c-.642 0-1.203-.35-1.501-.871.988-.42 1.9-.981 2.715-1.657l-.004-1.106c0-.287.23-.52.517-.52.255-.001.467.181.512.423l.008.093.001.133c-.215.231-.44.454-.675.666l-.345.3-.013.01v.64l.01.093c.044.242.256.425.511.424.255-.001.466-.185.509-.427l.008-.093-.005-1.612.008-.01c.563-.605 1.058-1.274 1.473-1.995zM9.616 9.28H8.45c-2.358 0-4.27 1.911-4.27 4.27 0 2.358 1.912 4.27 4.27 4.27 2.359 0 4.27-1.912 4.27-4.27v-1.164h3.107V9.28H12.72v3.104H9.616V9.28zm8.924 4.894c.743 0 1.353.566 1.422 1.29l.007.138-.001.863h-2.857v-.863l.007-.137c.07-.725.68-1.291 1.422-1.291zm-8.924-1.79v1.166c0 .644-.522 1.166-1.166 1.166-.644 0-1.166-.522-1.166-1.166 0-.644.522-1.166 1.166-1.166h1.166zM17.38 4.62h-3.494c-2.357.002-4.267 1.913-4.27 4.27v.39h3.104v-.39c.002-.643.523-1.164 1.166-1.164h3.494V4.62z" transform="translate(-276 -84) translate(276 84)"/>
            </g>
        </g>
    </g>
</svg>
