<svg xmlns="http://www.w3.org/2000/svg" xmlns:xlink="http://www.w3.org/1999/xlink" width="22" height="22" viewBox="0 0 22 22">
  <defs>
    <path id="ic_wallet_22_revv-a" d="M9.69510898,21.1875766 C10.1268364,21.2440738 10.5618423,21.2724391 10.9973211,21.2724897 C11.0202703,21.2724897 11.0431303,21.2716052 11.0660795,21.2716052 C11.2965619,21.3082182 11.5065177,21.4244697 11.6587409,21.5997588 C11.7651791,21.7310084 11.8872733,21.8490063 12.0223566,21.951175 C11.6833868,21.983725 11.3416487,22 10.9971425,22 C10.7716686,22 10.5473556,21.9922163 10.3241141,21.9784179 C10.1049049,21.8097349 9.92517006,21.5960348 9.79726428,21.3520072 C9.76785174,21.2944986 9.73368329,21.2395006 9.69510898,21.1875766 Z M7.61190892,20.6946387 C8.04832323,20.8507713 8.49539904,20.9759508 8.94975038,21.0692291 C9.16034521,21.1559449 9.33476609,21.3112408 9.44418557,21.5094502 C9.52143563,21.6600259 9.61652202,21.8009487 9.72743435,21.9292391 C9.16811504,21.8656258 8.6148264,21.7578142 8.0728579,21.6068349 C7.88766446,21.3925675 7.7517113,21.1409818 7.67441653,20.8695065 C7.65816062,20.8097089 7.6372625,20.7512455 7.61190892,20.6946387 Z M13.2232171,21.0309297 C13.4472529,21.0231205 13.6671094,21.0923784 13.8454357,21.2269374 C13.9795112,21.3352434 14.1267081,21.4265524 14.2836141,21.4987476 C13.7404611,21.6714962 13.1840405,21.8002621 12.6198401,21.8837753 C12.3697013,21.7654126 12.1489426,21.5939446 11.9732435,21.3815499 C11.9320752,21.3306708 11.8866402,21.2833285 11.8374234,21.2400281 C12.3037836,21.2030325 12.7668884,21.133156 13.2232171,21.0309297 Z M5.67354792,19.7729782 C6.07041911,20.0207542 6.48461398,20.2401971 6.91298454,20.4296392 C7.09727459,20.5594645 7.23298282,20.7460772 7.29892438,20.9603458 C7.34480385,21.127359 7.41075995,21.2883123 7.49537687,21.4397507 C6.96130524,21.2590326 6.44275801,21.0360965 5.94474165,20.7730948 C5.8037507,20.5215391 5.71991313,20.2425229 5.69908674,19.9555413 C5.69535021,19.8941245 5.68681168,19.8330873 5.67354792,19.7729782 Z M15.9080976,20.4076148 C16.0641923,20.4863354 16.2298125,20.544953 16.4009254,20.5820404 C15.9064245,20.866728 15.3893936,21.1111556 14.8549336,21.3129119 C14.5815974,21.2514005 14.3257861,21.1296189 14.1065389,20.9566308 C14.0573175,20.9168413 14.0048721,20.8811338 13.9497341,20.8498703 C14.4012013,20.7135815 14.8421106,20.5450836 15.2690019,20.3456991 C15.4829046,20.2932145 15.7085151,20.3150717 15.9080976,20.4076148 Z M11.0016966,1.07636144 C15.3541016,1.07636144 19.0615172,3.90591215 20.3859642,7.82518042 L20.3889221,7.82941502 L20.3914113,7.83199115 C20.564054,8.36049105 20.6974441,8.89994211 20.7921485,9.44641321 L20.8559321,9.85752136 L20.8559321,9.87211579 L20.8356618,9.87211579 C20.8886389,10.2484318 20.9192014,10.627511 20.9271908,11.0073857 L20.917904,11.473335 L20.917904,11.473335 L20.9086171,11.9336456 L20.895352,12.2321283 C20.843775,12.8264656 20.6508179,13.4047517 20.4766895,13.9619178 L20.4634178,13.9658981 L20.4634178,13.9658981 L20.4508828,13.9682863 L20.3644248,14.2292844 C19.0243988,18.1203545 15.3331033,20.9231155 11.0007144,20.9234617 C6.64786297,20.9234617 2.94348338,18.0945301 1.61957219,14.1746427 L1.62008564,14.170972 L1.62100093,14.168628 L1.63135934,14.168628 C1.45669521,13.6500923 1.35043942,13.112536 1.26097424,12.5601256 L1.19621707,12.1430978 L1.19621707,12.1285034 L1.16362382,12.1285034 C1.11794305,11.7517978 1.09596341,11.3726424 1.09770464,10.9932335 C1.09696634,9.99062259 1.24893513,8.99363035 1.5485814,8.03595939 L1.55055709,8.03275304 L1.55152819,8.03100613 L1.63736237,7.77000821 C2.97742541,3.87894564 6.66956981,1.07636144 11.0016966,1.07636144 Z M3.96851889,18.465494 C4.30313213,18.7883365 4.65963122,19.0881473 5.03552381,19.3628304 C5.19544178,19.5306161 5.29408261,19.7465801 5.31573649,19.9763273 C5.32675098,20.1510746 5.35891988,20.3238783 5.41155173,20.4910242 C4.92682739,20.2008999 4.46585959,19.8735084 4.03290173,19.5118705 C3.94403952,19.2336801 3.9178558,18.9395698 3.95619597,18.6502684 C3.96517597,18.5890909 3.96929625,18.5273099 3.96851889,18.465494 Z M17.7560904,19.1768178 C17.9258552,19.2211259 18.100684,19.2435418 18.276243,19.2435099 C17.851586,19.6263805 17.3970178,19.9753767 16.9167918,20.2872329 C16.6343842,20.2864088 16.3559524,20.2212505 16.103032,20.0967977 C16.0471839,20.0684904 15.9890608,20.0448223 15.9292609,20.0260368 C16.3395943,19.7977666 16.7331498,19.5410924 17.1069935,19.2579274 C17.30728,19.1570309 17.5367816,19.1283529 17.7560904,19.1768178 Z M10.9997321,2.61877174 C6.40729797,2.61877174 2.67103949,6.37838577 2.67103949,10.9996904 C2.67103949,15.621172 6.40729797,19.3806091 10.9997321,19.3806091 C15.5921663,19.3806091 19.328514,15.6207297 19.328514,10.9996904 C19.328514,6.37865112 15.5921663,2.61877174 10.9997321,2.61877174 Z M2.5295044,16.8390552 C2.78972462,17.2212862 3.07555046,17.5857868 3.385055,17.9300995 C3.51104468,18.1298364 3.56569641,18.3656849 3.54025247,18.5998512 C3.51521486,18.7744721 3.51161681,18.9514536 3.52953688,19.1269313 C3.40273572,19.0094683 3.27840511,18.8885851 3.15654503,18.7642818 C2.88309157,18.4851785 2.62463811,18.1920304 2.38225433,17.8860509 C2.3490988,17.5904995 2.38293058,17.2913441 2.48128425,17.010385 C2.50163525,16.9545419 2.51775334,16.8972731 2.5295044,16.8390552 Z M19.8817064,17.5399417 C19.5656778,17.9724249 19.2185113,18.3817221 18.8429192,18.7646356 C18.8141657,18.7940014 18.7847871,18.8224827 18.7556764,18.8514062 C18.4775321,18.9123199 18.1888849,18.9082012 17.9126273,18.8393768 C17.8514838,18.8233414 17.7890816,18.8124527 17.7260868,18.8068268 C17.9245633,18.6336985 18.117057,18.45202 18.3035678,18.2617911 C18.4464423,18.115552 18.5845246,17.9660696 18.7178147,17.8133441 C18.8938057,17.6671378 19.1164127,17.5874434 19.3461055,17.5884129 C19.5260149,17.5956837 19.7061058,17.5793857 19.8817064,17.5399417 Z M1.51759549,14.9571696 C1.69631324,15.3933882 1.90504326,15.8169437 2.14231441,16.2248507 C2.21774731,16.4402554 2.22041135,16.6741171 2.14990462,16.8911529 C2.08829702,17.0610432 2.04822373,17.2378532 2.03060438,17.4175254 C1.70381088,16.9574363 1.41318817,16.4731565 1.16130211,15.9689617 C1.18610607,15.6649559 1.28079469,15.3706001 1.43812152,15.1084209 C1.46830242,15.0599917 1.49486468,15.0094396 1.51759549,14.9571696 Z M21.0384544,15.5456347 C20.8034732,16.0718428 20.5270818,16.5789333 20.2118359,17.0622173 C19.9467263,17.1871412 19.6554582,17.2479233 19.3620002,17.2395618 C19.3006281,17.2368408 19.2391341,17.2391187 19.1781386,17.2463725 C19.4667367,16.8642708 19.7280867,16.462702 19.9602874,16.0445874 C20.1016091,15.8753706 20.2962498,15.7581157 20.5129439,15.7116575 C20.6948314,15.6798843 20.8715834,15.6240437 21.0384544,15.5456347 Z M9.33086821,9.92288672 L9.31667005,15.0061715 C9.23674517,15.6575342 8.67849358,16.1472503 8.01606527,16.1472503 C7.34900322,16.153507 6.78614881,15.657036 6.71546049,14.9999799 L6.71546049,14.9999799 L6.70251248,14.9999799 L6.70251248,9.92288672 L9.33086821,9.92288672 Z M11.6528784,5.81980665 C12.1146146,5.81964096 13.2727073,5.84063747 14.1626172,6.650196 C14.5693632,7.0202754 15.0541543,7.70532918 15.0541543,8.82299729 C15.0541543,10.1598472 14.5029265,10.9236225 14.0405488,11.3291708 C13.7871672,11.5500041 13.4971466,11.7257803 13.1833015,11.8487325 L13.1833015,11.8487325 L15.089873,14.4094803 C15.4477675,14.8903861 15.3443207,15.567621 14.858818,15.9221268 C14.3733154,16.2766327 13.689607,16.1741654 13.3317125,15.6932596 L13.3317125,15.6932596 L10.3199172,11.6476832 C10.0753785,11.3190102 10.0383271,10.8820142 10.2240965,10.5175444 C10.409866,10.1530746 10.7868527,9.92313558 11.1990421,9.92288672 L11.1990421,9.92288672 L12.0410196,9.92288672 C12.5199835,9.92447212 12.910637,9.54320331 12.9161262,9.06880289 L12.9161262,9.06880289 L12.9161262,8.86271183 C12.9134212,8.38145992 12.5266524,7.98865828 12.0410196,7.97395517 L12.0410196,7.97395517 L6.70251248,7.97395517 L6.70251248,6.99276711 C6.70251248,6.96941602 6.69911718,6.93571615 6.69911718,6.91201126 C6.69796998,6.31267472 7.18554473,5.82485646 7.79059139,5.81989937 L7.79059139,5.81989937 Z M0.91582579,12.8934285 C1.00098777,13.3624072 1.11847939,13.8250572 1.26747575,14.2781305 C1.29580576,14.5017655 1.25055409,14.7284872 1.13844218,14.9246196 C1.04049699,15.082368 0.96342769,15.2519323 0.909128546,15.4291446 C0.683390776,14.906611 0.498567166,14.3676511 0.35629338,13.8170349 C0.441963787,13.5228122 0.595657281,13.2524053 0.80518732,13.027255 C0.845408391,12.9854625 0.882392608,12.940727 0.91582579,12.8934285 Z M21.7533628,13.3532858 C21.6337468,13.9139186 21.4705319,14.4645473 21.2651784,15.0002453 C21.0280121,15.1850986 20.749581,15.31097 20.4532045,15.3673173 C20.3956096,15.377264 20.3388838,15.3916365 20.283541,15.4103046 C20.4858919,14.9766208 20.6576053,14.5295462 20.7974429,14.0723048 C20.9012174,13.8762758 21.0679606,13.7200746 21.2713399,13.6283687 C21.4436822,13.5583818 21.6057951,13.4658666 21.7533628,13.3532858 Z M22,11.062933 C21.9969922,11.6348469 21.9505759,12.2057273 21.8611438,12.7707468 C21.6665728,13.0030724 21.4189791,13.1861985 21.1388237,13.3049915 C21.0848565,13.3267295 21.0326703,13.3525755 20.9827333,13.3822977 C21.0895039,12.9219833 21.1649801,12.4550926 21.2086537,11.9847703 C21.2689973,11.7631484 21.4026236,11.5679702 21.5881641,11.4304473 C21.7411224,11.3263655 21.8795895,11.2028002 22,11.062933 Z M0.748126801,10.7478701 C0.746162276,10.8317218 0.745180014,10.9157208 0.745180014,10.9998673 C0.745300123,11.387821 0.766673429,11.7754824 0.809205666,12.1611418 C0.795392368,12.3921878 0.704276621,12.612094 0.550245566,12.7861373 C0.421605973,12.9205929 0.311199214,13.0710763 0.221812721,13.2337883 C0.108543449,12.6732658 0.0382746237,12.1050541 0.0116085562,11.5340235 C0.154835341,11.265329 0.359766056,11.0337079 0.609895685,10.8578149 C0.658750487,10.8247315 0.704963836,10.7879748 0.748126801,10.7478701 Z M21.7776515,8.76550407 C21.8909316,9.32605965 21.9612597,9.89429714 21.9880343,10.4653573 C21.8447867,10.7341106 21.6398638,10.9658138 21.3897471,11.1418313 C21.3408498,11.1749003 21.2945782,11.2116262 21.2513374,11.2516876 C21.2533615,11.167836 21.2543735,11.0838664 21.2543735,10.9997789 C21.2541765,10.6118273 21.2328034,10.22417 21.1903479,9.83850437 C21.2040331,9.60742945 21.2951653,9.38748367 21.449308,9.2135089 C21.5779571,9.07895152 21.6883362,8.92834595 21.7776515,8.76550407 Z M1.01699882,8.61717158 C0.910223974,9.07748146 0.834777209,9.54437435 0.791167756,10.014699 C0.730730576,10.236444 0.59701946,10.4317328 0.411389374,10.5693758 C0.258641992,10.6733158 0.120330582,10.796668 -9.88098492e-15,10.936271 C0.00306917227,10.3639125 0.0495448898,9.7925912 0.139034785,9.22713036 C0.333467402,8.99527618 0.580902228,8.81267761 0.860819093,8.69447784 C0.914802528,8.67271253 0.967016357,8.64686759 1.01699882,8.61717158 Z M21.0896213,6.57032466 C21.3156843,7.09278569 21.5007781,7.63172058 21.6432601,8.18234596 C21.5576083,8.47670022 21.4038818,8.74723266 21.1942769,8.97247965 C21.1540919,9.01424856 21.1171378,9.05895419 21.0837277,9.10621771 C20.9985778,8.63718679 20.8811164,8.17447909 20.7321671,7.72133883 C20.7038316,7.49778875 20.7490853,7.27114945 20.8612006,7.07511509 C20.958837,6.91722814 21.0356048,6.74757783 21.0896213,6.57032466 Z M1.7161018,6.58925319 C1.5138642,7.02288289 1.34218274,7.4698634 1.20228924,7.92698764 C1.09837359,8.12303746 0.931601417,8.27930039 0.728213662,8.37118906 C0.556048199,8.441123 0.394113197,8.5335801 0.246726468,8.64609508 C0.36639091,8.08499283 0.529756579,7.53391557 0.735357389,6.99780883 C0.972240776,6.81333974 1.25041197,6.6879631 1.54643828,6.63224043 C1.60403862,6.62231877 1.66076642,6.60794578 1.7161018,6.58925319 Z M19.9689491,4.58194391 C20.2959867,5.04237902 20.5867903,5.52704602 20.8387872,6.03165745 C20.8139219,6.33548884 20.7190049,6.62961741 20.5613427,6.89140215 C20.5311787,6.93981018 20.504617,6.99033168 20.4818687,7.04256508 C20.3031474,6.60620354 20.0943561,6.18252666 19.8569712,5.7745301 C19.7815697,5.55925811 19.7789993,5.32551804 19.8496489,5.10867022 C19.9112454,4.93865499 19.951318,4.76172934 19.9689491,4.58194391 Z M2.82177213,4.75309679 C2.53314193,5.13520724 2.27179053,5.53680773 2.03962333,5.95497035 C1.89826019,6.12430322 1.7035142,6.24162706 1.48669887,6.28807719 C1.3050008,6.31987541 1.12843314,6.37568501 0.961724236,6.45401146 C1.19645997,5.92810642 1.47255152,5.42128443 1.78744977,4.93822495 C2.05264319,4.81299831 2.34405871,4.75191424 2.63773187,4.75999598 C2.6991658,4.76270697 2.76072079,4.76039943 2.82177213,4.75309679 Z M18.4701952,2.87262639 C18.5970559,2.99003049 18.7214461,3.11091366 18.8433657,3.23527591 C19.116494,3.51398753 19.3746491,3.80672196 19.6167634,4.11226857 C19.6500933,4.4082849 19.6165412,4.70793851 19.5185372,4.98952659 C19.498124,5.04530413 19.481946,5.10251429 19.4701384,5.16067947 C19.2098784,4.77839763 18.9240234,4.41383889 18.6144985,4.06945824 C18.4885678,3.86979542 18.4339184,3.63405039 18.4593011,3.39997186 C18.4845077,3.22527799 18.488166,3.04819544 18.4701952,2.87262639 Z M4.08647969,3.16026937 C4.14765414,3.17630184 4.21008576,3.1871905 4.27310955,3.19281938 C4.074633,3.36600663 3.8821691,3.54768519 3.69571782,3.73785506 C3.55320047,3.88397628 3.41532654,4.03337019 3.28209603,4.18603679 C3.10586509,4.33210161 2.88323429,4.41185321 2.65344807,4.41123329 C2.47357761,4.40377938 2.29350359,4.41998934 2.11793644,4.45943914 C2.43387577,4.02710115 2.78095334,3.61795102 3.15645574,3.23518746 C3.18511994,3.20582169 3.21458782,3.17734044 3.24360921,3.14832848 C3.52169932,3.08751102 3.81025926,3.09159903 4.08647969,3.16026937 Z M16.5875553,1.50871042 C17.0722843,1.7988277 17.5332527,2.12621961 17.9662053,2.48786411 C18.0551785,2.76612384 18.081364,3.06034478 18.0429111,3.34973163 C18.0339902,3.41085586 18.0298702,3.47257353 18.0305881,3.53432908 C17.6960734,3.21142808 17.3396634,2.91155782 16.9638511,2.63681576 C16.804192,2.46893808 16.705617,2.25311162 16.6837277,2.02349583 C16.6727034,1.84869212 16.6404123,1.67584622 16.5875553,1.50871042 Z M5.08320818,1.71214795 C5.36556295,1.71293589 5.64394491,1.77809685 5.89678938,1.90258317 C5.952805,1.93092834 6.01110932,1.95459731 6.07109632,1.97334405 C5.66059255,2.20166715 5.26688611,2.45843121 4.89291716,2.74171877 C4.69258583,2.84267247 4.46301821,2.8713821 4.24364168,2.82291688 C4.07396324,2.77844026 3.89918671,2.75590441 3.72366765,2.75587094 C4.14838129,2.37302965 4.60297678,2.02403545 5.08320818,1.71214795 Z M14.5039981,0.559895467 C15.0380091,0.740621308 15.5564963,0.963557324 16.0544547,1.22655141 C16.1955443,1.47813543 16.2794162,1.75722461 16.3001989,2.04428184 C16.3039795,2.10565981 16.3124874,2.16666211 16.3256484,2.22675646 C15.9287685,1.97899523 15.5145748,1.75955287 15.0862118,1.57009549 C14.9018439,1.44038581 14.7661617,1.25372252 14.7004505,1.03938888 C14.6545884,0.872341664 14.5886317,0.711357041 14.5039981,0.559895467 Z M7.14488777,0.686999698 C7.4181661,0.748598487 7.6739295,0.870371828 7.89319316,1.04328073 C7.94247891,1.08315216 7.99505006,1.11886385 8.05035516,1.15004121 C7.59878561,1.2862857 7.15778406,1.4547846 6.7308195,1.65421248 C6.51688708,1.70669623 6.29124886,1.68483939 6.09163453,1.59229671 C5.93562753,1.51359022 5.77009772,1.45497273 5.59907456,1.41787114 C6.09352452,1.13320427 6.61049435,0.888777265 7.14488777,0.686999698 Z M12.2721192,0.0704955272 C12.8314639,0.134089394 13.3847814,0.241871273 13.9267849,0.392811338 C14.1119755,0.607114198 14.2479275,0.858727875 14.3252263,1.13022816 C14.3414372,1.1900396 14.3623365,1.24850644 14.3877339,1.30509599 C13.9512503,1.14889566 13.5040805,1.02371492 13.0496245,0.930505578 C12.839176,0.843675493 12.6648547,0.688443442 12.5553679,0.490372902 C12.4782102,0.339716372 12.383117,0.198753763 12.2721192,0.0704955272 Z M9.37998133,0.115959393 C9.63012531,0.234274111 9.85088788,0.405714903 10.0265779,0.618096291 C10.0677079,0.669008431 10.1131459,0.716353858 10.162398,0.759618052 C9.6961599,0.796601823 9.23317513,0.866448705 8.77696148,0.968628003 C8.55282314,0.976686328 8.33280902,0.907439867 8.15447498,0.772708815 C8.02039964,0.664471463 7.87323744,0.573195102 7.71638592,0.500987034 C8.25947782,0.328237188 8.81583918,0.199471202 9.37998133,0.115959393 Z M11.0025896,-1.10467191e-14 C11.2280635,-1.10467191e-14 11.4522872,0.00778369685 11.6755287,0.0215820685 C11.8947004,0.19030356 12.0744278,0.403994761 12.2023785,0.647992763 C12.2317906,0.705454671 12.2659278,0.760420974 12.3044445,0.812334908 C11.8727402,0.755916219 11.4377673,0.727580638 11.0023217,0.727510303 C10.9792832,0.727510303 10.9564233,0.728306362 10.9333847,0.728306362 C10.7030351,0.691471768 10.4932267,0.575218121 10.3409912,0.400064328 C10.2344248,0.268917653 10.112244,0.151012106 9.9771076,0.0489134586 C10.316137,0.0163044862 10.6579643,-1.10467191e-14 11.0025896,-1.10467191e-14 Z"/>
  </defs>
  <g fill="none" fill-rule="evenodd">
    <rect width="22" height="22"/>
    <mask id="ic_wallet_22_revv-b" fill="#fff">
      <use xlink:href="#ic_wallet_22_revv-a"/>
    </mask>
    <use fill="#FFF" fill-rule="nonzero" xlink:href="#ic_wallet_22_revv-a"/>
    <g mask="url(#ic_wallet_22_revv-b)">
      <rect width="22" height="22"/>
    </g>
  </g>
</svg>
