<svg xmlns="http://www.w3.org/2000/svg" xmlns:xlink="http://www.w3.org/1999/xlink" width="22" height="22" viewBox="0 0 22 22">
  <defs>
    <path id="ic_wallet_22_tusdt-a" d="M11,0 C17.0751322,0 22,4.92486775 22,11 C22,17.0751322 17.0751322,22 11,22 C4.92486775,22 0,17.0751322 0,11 C0,4.92486775 4.92486775,0 11,0 Z M11,1.5 C5.75329488,1.5 1.5,5.75329488 1.5,11 C1.5,16.2467051 5.75329488,20.5 11,20.5 C16.2467051,20.5 20.5,16.2467051 20.5,11 C20.5,5.75329488 16.2467051,1.5 11,1.5 Z M11,3 C15.418278,3 19,6.581722 19,11 C19,15.418278 15.418278,19 11,19 C6.581722,19 3,15.418278 3,11 C3,6.581722 6.581722,3 11,3 Z M15.1474561,6.42959905 L6.89745605,6.42959905 L6.89745605,8.71096269 L9.87662272,8.71096269 L9.87662272,10.0841445 C7.41399772,10.2264172 5.52245605,10.7941445 5.52245605,11.47369 C5.52245605,12.1532354 7.41399772,12.7214172 9.87662272,12.8623263 L9.87662272,16.429599 L12.1682894,16.429599 L12.1682894,12.8677809 C14.6767477,12.7359627 16.5224561,12.1614172 16.5224561,11.47369 C16.5224561,10.7855081 14.6762894,10.2118718 12.1682894,10.079599 L12.1682894,8.71096269 L15.1474561,8.71096269 L15.1474561,6.42959905 Z M12.1682894,10.3291445 C14.3284144,10.4241445 15.8968311,10.7905081 15.8968311,11.2282354 C15.8968311,11.73869 13.7147061,12.1518718 11.0224561,12.1518718 C8.33020605,12.1518718 6.14808105,11.7382354 6.14808105,11.2282354 L6.14808105,11.2277809 C6.14808105,10.7959627 7.76278939,10.43369 9.87662272,10.3327809 L9.87662272,11.6582354 C10.2574977,11.6791445 10.6085811,11.6900536 11.0224561,11.6900536 C11.4033311,11.6900536 11.8149144,11.6809627 12.1682894,11.6627809 L12.1682894,10.3291445 Z"/>
  </defs>
  <g fill="none" fill-rule="evenodd">
    <rect width="22" height="22"/>
    <mask id="ic_wallet_22_tusdt-b" fill="#fff">
      <use xlink:href="#ic_wallet_22_tusdt-a"/>
    </mask>
    <use fill="#FFF" xlink:href="#ic_wallet_22_tusdt-a"/>
    <g mask="url(#ic_wallet_22_tusdt-b)">
      <rect width="22" height="22"/>
    </g>
  </g>
</svg>
