<svg width="24" height="24" viewBox="0 0 24 24" fill="none" xmlns="http://www.w3.org/2000/svg">
<path fill-rule="evenodd" clip-rule="evenodd" d="M12 5.972L7.72741 10.2446L7.7275 10.2444L5.24159 7.7584L12 1L18.7606 7.76042L16.2746 10.2464L12 5.972ZM3.48609 9.51357L1 12L3.48591 14.4856L5.972 11.9995L3.48609 9.51357ZM7.72741 13.7557L12 18.028L16.2745 13.7536L18.7618 16.2383L18.7606 16.2396L12 23L5.24158 16.2416L5.23806 16.2381L7.72741 13.7557ZM20.5141 9.51496L18.028 12.0011L20.514 14.487L23 12.0009L20.5141 9.51496Z" fill="white"/>
<path d="M14.5214 11.9987H14.5224L12 9.47607L10.1355 11.34L9.92135 11.5543L9.47959 11.9961L9.47607 11.9996L9.47959 12.0032L12 14.5239L14.5226 12.0013L14.5238 11.9999L14.5216 11.9987" fill="white"/>
</svg>
