<svg width="24" height="24" viewBox="0 0 24 24" fill="none" xmlns="http://www.w3.org/2000/svg">
<path fill-rule="evenodd" clip-rule="evenodd" d="M4.76899 17.5872C4.29196 17.2825 4 16.7413 4 16.1585V12.9047C4 12.5184 4.30153 12.2053 4.67167 12.207C4.78973 12.207 4.90619 12.2403 5.0083 12.3019L12.0424 16.5831C12.4541 16.8329 12.7077 17.2925 12.7077 17.7904V21.1607C12.7093 21.6237 12.3504 22 11.9068 22C11.7585 22 11.6117 21.9567 11.4856 21.8768L4.76899 17.5872ZM15.254 11.411C15.6656 11.6608 15.9177 12.1221 15.9193 12.6183V19.4589C15.9193 19.6604 15.8156 19.8469 15.6465 19.9451L14.1069 20.8493C14.0877 20.861 14.067 20.8693 14.0447 20.876V17.0777C14.0447 16.5864 13.7974 16.1302 13.3921 15.8771L7.21474 12.0205V7.7326C7.21474 7.34627 7.51627 7.03322 7.88641 7.03488C8.00447 7.03488 8.12093 7.06818 8.22304 7.1298L15.254 11.411ZM18.3331 6.35881C18.7463 6.60859 19 7.06985 19 7.56774V17.5589C18.9984 17.7637 18.8899 17.9519 18.7176 18.0502L17.2578 18.8728V11.9172C17.2578 11.426 17.0105 10.9714 16.6085 10.7183L10.2939 6.76512V2.69871C10.2939 2.57549 10.3258 2.45393 10.3832 2.34735C10.5699 2.01431 10.9799 1.90108 11.299 2.09424L18.3331 6.35881Z" fill="white"/>
</svg>
