<svg width="24" height="24" viewBox="0 0 24 24" fill="none" xmlns="http://www.w3.org/2000/svg">
<path fill-rule="evenodd" clip-rule="evenodd" d="M22 12C22 17.5228 17.5228 22 12 22C6.47715 22 2 17.5228 2 12C2 6.47715 6.47715 2 12 2C17.5228 2 22 6.47715 22 12ZM17.9375 8.56313L11.9875 5.13625H11.9462L6.0625 8.56313V15.4381L11.9462 18.8631L11.9944 18.875L17.9375 15.4381V8.56313ZM6.6875 8.9225L11.9681 5.8475L12.6125 6.205L17.3125 8.92375V15.0769L12.6125 17.78L11.9675 18.1531L6.6875 15.0788V8.9225ZM9.06875 11.31L7.50562 12.4788H7.50625L9.6375 16.2037H10.4881L11.4956 15.26L11.4963 14.7875L10.4506 13.78V12.1925L9.06875 11.31ZM12.4431 14.7863L12.445 15.2613L13.4513 16.1931H14.2913L16.4119 12.4794L14.8519 11.2987L13.485 12.1925V13.78L12.4431 14.7863ZM10.455 10.8606L10.9637 12.1925L10.8075 13.6856L11.9606 13.6838L13.1275 13.6813L12.98 12.1925L13.4787 10.8606H10.455ZM9.08687 10.4944L11.9606 10.4956L14.8488 10.4975L14.2863 8.10687H9.62125L9.08687 10.4944Z" fill="white"/>
</svg>
