<svg width="24" height="24" viewBox="0 0 24 24" fill="none" xmlns="http://www.w3.org/2000/svg">
<path fill-rule="evenodd" clip-rule="evenodd" d="M3.62903 21.6341V21.697L3.626 21.6992V21.7098H10.9247C11.7508 21.7212 12.5739 21.6553 13.3856 21.5099C14.2405 21.3426 15.0735 21.0791 15.8678 20.7217C16.2122 20.5622 16.5426 20.3694 16.876 20.1749C16.9604 20.1256 17.045 20.0763 17.13 20.0273C17.5223 19.7479 17.8978 19.445 18.2553 19.1232C19.2336 18.2388 19.9908 17.1356 20.464 15.9051C20.4958 15.7673 20.6306 15.6787 20.7692 15.7052H22.7569C22.9151 15.7052 22.9674 15.6522 22.9674 15.4735V14.2006C22.978 14.0787 22.978 13.9553 22.9674 13.8334C22.9674 13.8015 22.9755 13.7697 22.9837 13.738C23 13.6748 23.0163 13.6117 22.9674 13.5487H21.3068C21.1061 13.5487 21.1061 13.5275 21.1061 13.3488C21.1637 12.7082 21.1637 12.0653 21.1061 11.4247C21.0955 11.2354 21.1379 11.2354 21.2848 11.2354H22.7364C22.9053 11.2354 22.9681 11.193 22.9681 11.0249V9.29997C22.9629 9.18571 22.9602 9.12779 22.9299 9.09844C22.8988 9.06826 22.8384 9.06826 22.716 9.06826H20.8335C20.6866 9.09325 20.5458 8.99406 20.5193 8.84716C20.3035 8.28304 20.0286 7.74315 19.6977 7.23809C19.3646 6.73985 18.989 6.27189 18.5725 5.83953C18.019 5.28677 17.3973 4.8067 16.7219 4.40916C15.7035 3.81778 14.5896 3.40359 13.4303 3.1893C12.8677 3.08556 12.2991 3.02272 11.7266 3H3.83953C3.62903 3 3.62903 3.0424 3.62903 3.2105V8.87896C3.62903 9.07886 3.58662 9.07886 3.42912 9.07886H1.1681C1 9.07886 1 9.10991 1 9.22576V11.0764C1 11.2445 1.05225 11.2445 1.1787 11.2445H3.46093C3.62903 11.2445 3.62903 11.2755 3.62903 11.402V13.379C3.62903 13.5577 3.57602 13.5577 3.43972 13.5577H1V15.556C1 15.7241 1.05225 15.7241 1.1787 15.7241H3.46093C3.62903 15.7241 3.62903 15.7446 3.62903 15.8816V18.3531V19.1838V21.6341ZM18.153 8.89866C18.1712 8.94561 18.1712 8.99786 18.153 9.04556H18.2038C18.1826 9.10841 18.0773 9.12961 18.0773 9.12961H5.94153C5.74163 9.12961 5.74163 9.08721 5.74163 8.92971V5.19667C5.74163 5.05962 5.76283 4.99677 5.92033 4.99677H11.5676C12.1688 4.99147 12.7685 5.05432 13.3554 5.18607C14.5184 5.4617 15.6005 6.00991 16.5106 6.78454C16.6924 6.92008 16.8544 7.07985 16.9945 7.25779C17.2913 7.55235 17.5518 7.88022 17.7729 8.23611C17.9198 8.44434 18.0463 8.6662 18.153 8.89866ZM18.6566 13.5464H12.2627H5.99453C5.86665 13.5464 5.80362 13.5464 5.77256 13.5149C5.74238 13.4843 5.74238 13.4239 5.74238 13.3048V11.433C5.74238 11.2854 5.78478 11.2331 5.94228 11.2331H18.6672C18.8042 11.2331 18.8671 11.2854 18.8671 11.4118C18.9193 12.063 18.9193 12.7172 18.8671 13.3677C18.8572 13.5464 18.7929 13.5464 18.6566 13.5464ZM18.153 15.734C17.9743 15.7143 17.7941 15.7143 17.6154 15.734H5.95288C5.79538 15.734 5.74238 15.734 5.74238 15.9445V19.5942C5.74238 19.7623 5.74238 19.8047 5.95288 19.8047H11.3374C11.5948 19.8244 11.8523 19.8062 12.1044 19.7525C12.8859 19.6964 13.6544 19.5268 14.3874 19.2474C14.654 19.155 14.9114 19.0346 15.1545 18.89H15.2279C16.4902 18.2335 17.5154 17.2022 18.1621 15.9361C18.1621 15.9361 18.2355 15.7771 18.153 15.7355V15.734Z" fill="white"/>
</svg>
