<svg width="24" height="24" viewBox="0 0 24 24" fill="none" xmlns="http://www.w3.org/2000/svg">
<g clip-path="url(#clip0)">
<path d="M14.3569 7.76675C14.3569 4.61002 12.8352 1.89037 11.6696 1.00001C11.6696 1.00001 11.5887 0.951444 11.5887 1.08095C11.4915 7.18397 8.39956 8.85137 6.68359 11.0692C2.74981 16.2171 6.40839 21.8506 10.1317 22.8867C12.22 23.4695 9.64606 21.8506 9.32229 18.4511C8.93377 14.323 14.3569 11.1825 14.3569 7.76675Z" fill="white"/>
<path d="M16.3967 9.85504C16.3805 9.83885 16.3481 9.83885 16.3157 9.85504C16.3157 9.85504 16.3157 9.85504 16.2995 9.87122C16.2348 10.6321 15.393 12.2833 14.3407 13.7888C10.7631 18.9043 12.8029 21.365 13.9522 22.6924C14.6159 23.4695 13.9522 22.6924 15.6196 21.8992C15.7491 21.8344 18.8573 20.1832 19.1973 16.4437C19.5372 12.8013 17.2223 10.5188 16.3967 9.85504Z" fill="white"/>
</g>
<defs>
<clipPath id="clip0">
<rect width="14.2458" height="22" fill="white" transform="translate(5 1)"/>
</clipPath>
</defs>
</svg>
