<svg width="24" height="24" viewBox="0 0 24 24" fill="none" xmlns="http://www.w3.org/2000/svg">
<path fill-rule="evenodd" clip-rule="evenodd" d="M22 12C22 17.5228 17.5228 22 12 22C6.47715 22 2 17.5228 2 12C2 6.47715 6.47715 2 12 2C17.5228 2 22 6.47715 22 12ZM7.07796 10.2933V15H6.16663V9.53333C6.16709 9.43471 6.19488 9.33815 6.24693 9.25437C6.29897 9.1706 6.37323 9.1029 6.46144 9.05879C6.54965 9.01469 6.64837 8.9959 6.74661 9.00453C6.84486 9.01316 6.93879 9.04886 7.01796 9.10767L11.3466 12.3667C11.4122 12.4161 11.4655 12.48 11.5022 12.5535C11.5389 12.6269 11.5581 12.7079 11.5583 12.79V15H10.6473V12.9797L7.07796 10.2933ZM16.9493 10.2933V15H17.8606V9.53333C17.8599 9.43482 17.8319 9.33843 17.7798 9.25485C17.7277 9.17127 17.6534 9.10377 17.5652 9.05982C17.4771 9.01588 17.3784 8.99721 17.2803 9.00589C17.1822 9.01457 17.0884 9.05026 17.0093 9.109L12.6806 12.3667C12.615 12.4161 12.5618 12.48 12.5251 12.5535C12.4883 12.6269 12.4691 12.7079 12.469 12.79V15H13.38V12.9797L16.9493 10.2933Z" fill="white"/>
</svg>
