<svg width="24" height="24" viewBox="0 0 24 24" fill="none" xmlns="http://www.w3.org/2000/svg">
<path fill-rule="evenodd" clip-rule="evenodd" d="M13.179 10.8173C12.7953 10.912 12.3941 10.9623 11.9811 10.9623C11.5825 10.9623 11.1949 10.9154 10.8234 10.827C10.3855 9.01311 8.95496 7.5864 7.1389 7.15411C7.0481 6.77796 7 6.38517 7 5.98113C7 3.23013 9.23013 1 11.9811 1C14.7321 1 16.9623 3.23013 16.9623 5.98113C16.9623 6.38865 16.9133 6.78473 16.821 7.16383C15.0272 7.60665 13.6163 9.02137 13.179 10.8173ZM13.1778 13.1778C13.0863 12.8002 13.0377 12.4058 13.0377 12C13.0377 11.5925 13.0867 11.1964 13.179 10.8173C14.9728 10.3745 16.3837 8.95976 16.821 7.16383C17.2047 7.06911 17.6059 7.01886 18.0189 7.01886C20.7699 7.01886 23 9.24899 23 12C23 14.751 20.7699 16.9811 18.0189 16.9811C17.6131 16.9811 17.2187 16.9326 16.8411 16.8411C16.4035 15.0361 14.9827 13.6154 13.1778 13.1778ZM10.8222 13.1778C10.9137 12.8002 10.9623 12.4058 10.9623 12C10.9623 11.596 10.9142 11.2032 10.8234 10.827C9.0073 10.3947 7.57673 8.96802 7.1389 7.15411C6.76738 7.06568 6.37972 7.01886 5.98113 7.01886C3.23013 7.01886 1 9.24899 1 12C1 14.751 3.23013 16.9811 5.98113 16.9811C6.3869 16.9811 6.78133 16.9326 7.15894 16.8411C7.06739 17.2187 7.01888 17.6131 7.01888 18.0189C7.01888 20.7699 9.249 23 12 23C14.751 23 16.9811 20.7699 16.9811 18.0189C16.9811 17.6131 16.9326 17.2187 16.8411 16.8411C15.0361 16.4035 13.6154 14.9827 13.1778 13.1778C12.8002 13.0863 12.4058 13.0378 12 13.0378C11.5942 13.0378 11.1998 13.0863 10.8222 13.1778ZM7.15894 16.8411C8.96387 16.4035 10.3846 14.9827 10.8222 13.1778C9.01727 13.6154 7.59654 15.0361 7.15894 16.8411Z" fill="white"/>
</svg>
