<svg width="24" height="24" viewBox="0 0 24 24" fill="none" xmlns="http://www.w3.org/2000/svg">
<path fill-rule="evenodd" clip-rule="evenodd" d="M12 23C18.0751 23 23 18.0751 23 12C23 5.92487 18.0751 1 12 1C5.92487 1 1 5.92487 1 12C1 18.0751 5.92487 23 12 23ZM3.27209 12.5645C3.00718 11.2399 3.74011 9.81819 4.88808 9.40315C5.32078 9.25303 6.18618 9.22654 6.63653 9.35017C7.79334 9.6769 8.57925 10.9485 8.45563 12.3084C8.35849 13.2974 7.92579 13.995 7.13987 14.4366C6.71601 14.6662 6.60121 14.6926 5.83295 14.6926C4.87042 14.6926 4.5172 14.5602 3.96971 13.9685C3.55467 13.5358 3.40455 13.2268 3.27209 12.5645ZM7.42245 12.5292C7.60789 11.7609 7.34298 10.8867 6.82197 10.507C6.29214 10.1361 5.3826 10.1273 4.87042 10.4981C4.25228 10.9308 4.04035 12.1759 4.44656 12.9707C5.11768 14.3041 7.06923 14.0127 7.42245 12.5292ZM16.8358 9.43847C15.1757 10.1008 14.7077 12.5468 15.9616 14.0304C16.6416 14.8428 18.2487 14.9929 18.964 14.3041L19.1583 14.1187L19.1848 14.3659C19.2113 14.5867 19.2378 14.6043 19.6528 14.6043H20.0943L20.1208 13.2091L20.1473 11.8227H18.9022H17.6659V12.2643V12.7058H18.4165C19.2289 12.7058 19.2554 12.7234 19.0258 13.2003C18.8669 13.527 18.3017 13.8538 17.8779 13.8538C16.8623 13.8538 16.253 13.1385 16.253 11.9817C16.2619 10.7012 17.0831 9.96831 18.2046 10.2332C18.6373 10.3392 19.0788 10.7189 19.0788 10.9927C19.0788 11.081 19.2113 11.1163 19.6086 11.1163H20.1296L20.006 10.7189C19.7323 9.7917 19.0523 9.32368 17.9308 9.28836C17.4363 9.27069 17.1626 9.30602 16.8358 9.43847ZM9.18857 14.6485V11.9993V9.35017H9.75372C10.0981 9.35017 10.3454 9.39432 10.3984 9.45613C10.4425 9.51795 10.7781 10.3833 11.1313 11.3812C11.4845 12.379 11.8024 13.2179 11.8377 13.2533C11.8642 13.2974 12.2086 12.4409 12.5972 11.3547L13.3036 9.39432H13.9217H14.5311L14.5575 12.0258L14.5752 14.6573L14.116 14.6308L13.648 14.6043L13.6215 12.8382L13.595 11.0721L12.9504 12.8382L12.3058 14.6043L11.8642 14.6308L11.4227 14.6573L10.7692 12.8647L10.1158 11.0721L10.0893 12.8647L10.0716 14.6485H9.6301H9.18857Z" fill="white"/>
</svg>
