<svg width="24" height="24" viewBox="0 0 24 24" fill="none" xmlns="http://www.w3.org/2000/svg">
<path d="M6 20.1833C6.65245 20.9266 7.44599 21.5329 8.33459 21.9671C9.22319 22.4013 10.1892 22.6547 11.1765 22.7127C12.356 22.6501 13.4689 22.1461 14.2941 21.301C15.9218 19.9069 17.6307 18.6105 19.4118 17.4186L20.4118 17.0068C20.8235 16.8304 21.5294 16.4186 22.1765 15.6539C22.8824 14.7127 23 13.7127 23 13.3598C22.9218 12.2466 22.557 11.1727 21.9412 10.2421C20.3341 13.1057 18.0309 15.5179 15.2445 17.2555C12.4582 18.9931 9.27864 20.0001 6 20.1833Z" fill="white"/>
<path d="M8.23529 3.47742C8.67441 3.01359 9.20335 2.64401 9.78991 2.39119C10.3765 2.13836 11.0083 2.00759 11.6471 2.00683C12.0517 1.97974 12.4578 2.03339 12.8415 2.16468C13.2253 2.29596 13.5791 2.50225 13.8823 2.77154C15.5697 3.9669 17.5795 4.62317 19.6471 4.65389C20.1765 4.71272 21.2353 4.88919 21.9412 5.77154C22.4706 6.47742 22.5294 7.24213 22.5294 7.59507C22.482 8.50401 22.2832 9.39867 21.9412 10.2421L8.23529 3.47742Z" fill="white"/>
<path d="M6 20.1833C5.47059 20.1245 4.76471 19.948 3.94118 19.5951C3.11765 19.2421 2.11765 18.8304 1.47059 17.7127C1.05882 17.0068 1 16.301 1 15.8304C1.01436 14.5824 1.3163 13.3545 1.88235 12.2421C2.44552 10.8673 2.82143 9.42298 3 7.94802L3.29412 6.77154C3.47059 6.18331 3.58824 5.59507 4 5.00684L4.64706 4.30096C5.71578 3.62903 6.98053 3.33876 8.23529 3.47743C6.55514 5.8809 5.47539 8.65199 5.08648 11.5586C4.69757 14.4652 5.01082 17.4227 6 20.1833Z" fill="white"/>
<path d="M8.23524 3.47742C8.17642 3.47742 11.4117 3.65389 13.4117 4.35977L15.0588 5.06565C14.4117 5.00683 10.2941 4.83036 7.17642 7.94801C3.23523 11.948 4.52935 17.4186 4.58818 17.7127C3.67485 16.5636 3.21443 15.1196 3.29406 13.6539C3.3715 11.7086 3.85043 9.80038 4.70077 8.04909C5.55111 6.2978 6.75447 4.74131 8.23524 3.47742Z" fill="white"/>
<path d="M16.1177 18.0068C17.2305 15.9839 17.7235 13.6781 17.5353 11.377C17.347 9.07577 16.4857 6.88085 15.0588 5.06567C16.7627 5.35055 18.3299 6.17541 19.5294 7.41861C20.2353 8.00685 21.1177 8.8892 21.9412 10.2421C20.7781 13.3316 18.7579 16.0252 16.1177 18.0068Z" fill="white"/>
<path d="M18 7.65389C17.0588 6.06565 15.7059 5.35977 15.1176 5.06565C14.6471 4.948 10.2353 4.24212 6.88235 7.47742C4.17647 10.0657 4 13.4186 4 14.0657C4.01245 16.2825 4.75691 18.4332 6.11765 20.1833C7.86629 20.52 9.66312 20.52 11.4118 20.1833C12.2941 20.0068 14.3529 19.6539 16.1176 18.1245C16.3529 17.8892 18.9412 15.4774 19.1176 11.6539C19.1176 11.0068 19.1176 9.35977 18 7.65389ZM15.8824 16.1833C15.3361 16.7775 14.6723 17.2517 13.9331 17.5757C13.1939 17.8998 12.3954 18.0666 11.5882 18.0657C11.2353 18.0657 8.88235 18.0068 7.23529 16.0657C7 15.7715 5.82353 14.3598 5.88235 12.2421C6 9.41859 8.23529 7.77153 8.70588 7.41859C9.11765 7.12448 10.1176 6.47742 11.5882 6.41859C11.9412 6.35977 13.1765 6.30095 14.4118 7.00683C17.1176 8.47742 17.2353 12.0068 17.2353 12.2421C17.2353 12.8892 17.2353 14.6539 15.8824 16.1833Z" fill="white"/>
</svg>
