<svg width="24" height="24" viewBox="0 0 24 24" fill="none" xmlns="http://www.w3.org/2000/svg">
<path fill-rule="evenodd" clip-rule="evenodd" d="M23 12C23 18.0751 18.0751 23 12 23C5.92487 23 1 18.0751 1 12C1 5.92487 5.92487 1 12 1C18.0751 1 23 5.92487 23 12ZM17.0154 8.60523C17.0154 6.06718 14.9917 4.00967 12.4953 4.00967C9.9989 4.00967 7.97518 6.06718 7.97518 8.60523L7.97504 9.29449L7.96985 9.29456V19.4048L8.02589 19.4044C9.87236 19.3744 11.3599 17.8657 11.3599 16.0091L11.3599 15.6971C11.7226 15.7925 12.1032 15.8433 12.4953 15.8433C14.9917 15.8433 17.0154 13.7857 17.0154 11.2477V8.60523ZM11.3653 8.60523C11.3653 7.97075 11.8712 7.45635 12.4953 7.45635C13.1194 7.45635 13.6253 7.97075 13.6253 8.60523V11.2477C13.6253 11.8822 13.1194 12.3966 12.4953 12.3966C11.8712 12.3966 11.3653 11.8822 11.3653 11.2477V8.60523Z" fill="white"/>
</svg>
