<svg width="24" height="24" viewBox="0 0 24 24" fill="none" xmlns="http://www.w3.org/2000/svg">
<path fill-rule="evenodd" clip-rule="evenodd" d="M23 12C23 18.0751 18.0751 23 12 23C5.92487 23 1 18.0751 1 12C1 5.92487 5.92487 1 12 1C18.0751 1 23 5.92487 23 12ZM8.01294 9.09537C8.15544 9.09537 8.28885 9.15601 8.37678 9.26516L9.49254 10.6326L10.963 8.84069L10.2081 7.91897C9.63808 7.27922 8.96195 6.95783 8.1797 6.95783H5.07496C5.0507 6.9548 5.02948 6.9639 5.01129 6.98209C4.99613 6.99725 4.98703 7.01544 4.98703 7.03666V9.01654C4.98703 9.03777 4.99613 9.05596 5.01129 9.07112C5.02948 9.08628 5.0507 9.09537 5.07496 9.09537H8.01294ZM15.8415 6.95783C15.0501 6.95783 14.371 7.27619 13.804 7.90987L10.5022 11.9454L8.37678 14.5408C8.28582 14.6469 8.15241 14.7106 8.01294 14.7106H5.07496C5.05373 14.7076 5.03251 14.7167 5.01735 14.7348C5.00522 14.75 4.99916 14.7682 4.99916 14.7894V16.7693C4.99613 16.7905 5.00219 16.8148 5.01735 16.833C5.02948 16.8481 5.05373 16.8603 5.07496 16.8572H8.17363C8.96498 16.8572 9.64414 16.5358 10.2111 15.8961L12.0121 13.6979L13.8131 15.8961C14.3771 16.5358 15.0501 16.8572 15.8415 16.8572H18.9341C18.9553 16.8603 18.9766 16.8512 18.9917 16.833C19.0038 16.8178 19.0099 16.7996 19.0099 16.7784V14.7985C19.0129 14.7773 19.0038 14.753 18.9917 14.7348C18.9796 14.7197 18.9553 14.7076 18.9341 14.7106H15.9961C15.8627 14.7136 15.7323 14.653 15.6444 14.5529L13.4705 11.8999L15.6353 9.26516C15.7263 9.15601 15.8597 9.09234 15.9992 9.09537H18.9371C18.9584 9.09841 18.9796 9.08931 18.9947 9.07112C19.0069 9.05596 19.0129 9.03777 19.0129 9.01654V7.03666C19.016 7.01241 19.0099 6.99118 18.9947 6.97602C18.9796 6.9639 18.9584 6.9548 18.9371 6.95783H15.8415Z" fill="white"/>
</svg>
