<svg width="24" height="24" viewBox="0 0 24 24" fill="none" xmlns="http://www.w3.org/2000/svg">
<path d="M8.43187 3.25808C8.1411 3.21654 8.12725 3.2027 8.26572 3.18885C8.5288 3.14731 9.13804 3.2027 9.56728 3.29962C10.5642 3.53501 11.4642 4.14425 12.4196 5.21042L12.6689 5.5012L13.0289 5.44581C14.5658 5.19658 16.1443 5.39043 17.4597 5.99967C17.8197 6.16582 18.3874 6.49814 18.4567 6.58121C18.4843 6.60891 18.5259 6.78891 18.5536 6.96891C18.6505 7.61969 18.609 8.10432 18.4013 8.47817C18.2905 8.68587 18.2905 8.74125 18.3597 8.92125C18.4151 9.05972 18.5813 9.15664 18.7336 9.15664C19.0659 9.15664 19.4121 8.63048 19.5782 7.89662L19.6474 7.60585L19.7721 7.74431C20.4782 8.53356 21.0321 9.62742 21.1152 10.4028L21.1429 10.6105L21.0182 10.4305C20.8105 10.112 20.6167 9.90435 20.3536 9.72434C19.8828 9.40588 19.3844 9.30895 18.069 9.23972C16.8782 9.17049 16.1997 9.07356 15.5351 8.85202C14.3997 8.47817 13.8181 7.99355 12.475 6.20736C11.8796 5.41812 11.5058 4.98888 11.1319 4.62887C10.315 3.83963 9.49804 3.42424 8.43187 3.25808Z" fill="white"/>
<path d="M18.7474 5.01657C18.7751 4.49041 18.8443 4.14425 18.9966 3.82578C19.052 3.70116 19.1074 3.59039 19.1212 3.59039C19.1351 3.59039 19.1074 3.68732 19.0659 3.79809C18.9551 4.10271 18.9412 4.53195 19.0105 5.01657C19.1074 5.63966 19.1489 5.72274 19.8136 6.40121C20.1182 6.71968 20.4782 7.12122 20.6167 7.28738L20.852 7.592L20.6167 7.37046C20.3259 7.09353 19.6612 6.56737 19.5089 6.49813C19.412 6.44275 19.3982 6.44275 19.3289 6.51198C19.2736 6.56737 19.2597 6.65044 19.2597 7.05199C19.2459 7.67508 19.1628 8.06277 18.9551 8.46432C18.8443 8.67202 18.8305 8.63048 18.9274 8.39509C18.9966 8.21509 19.0105 8.13201 19.0105 7.53661C19.0105 6.33198 18.872 6.0412 18.0274 5.55658C17.8197 5.43196 17.4597 5.25196 17.252 5.15503C17.0304 5.05811 16.8643 4.97503 16.8781 4.97503C16.9058 4.94734 17.7228 5.18273 18.0412 5.32119C18.5258 5.51504 18.6089 5.52889 18.6643 5.51504C18.7058 5.4735 18.7335 5.36273 18.7474 5.01657Z" fill="white"/>
<path d="M8.99963 7.07973C8.41808 6.27664 8.04423 5.03046 8.12731 4.10276L8.155 3.81198L8.29346 3.83967C8.5427 3.88121 8.97194 4.04737 9.17963 4.17199C9.73349 4.5043 9.98272 4.96123 10.2181 6.09663C10.2873 6.42895 10.3843 6.81665 10.4258 6.94126C10.495 7.14896 10.7581 7.63358 10.9797 7.9382C11.132 8.15975 11.035 8.27052 10.6889 8.24282C10.1627 8.18744 9.45656 7.70282 8.99963 7.07973Z" fill="white"/>
<path d="M18.0413 13.1029C15.2997 11.9952 14.3304 11.0398 14.3304 9.41975C14.3304 9.18436 14.3443 8.99051 14.3443 8.99051C14.3581 8.99051 14.4551 9.07359 14.5797 9.17051C15.1335 9.6136 15.7566 9.80745 17.4874 10.0567C18.4982 10.209 19.0798 10.3198 19.6059 10.4998C21.2813 11.0536 22.3198 12.189 22.569 13.726C22.6383 14.1691 22.5967 15.0137 22.486 15.4568C22.389 15.8029 22.1121 16.4399 22.0429 16.4537C22.029 16.4537 22.0013 16.3845 22.0013 16.2737C21.9736 15.6922 21.6829 15.1383 21.1983 14.7091C20.6167 14.2106 19.869 13.8367 18.0413 13.1029Z" fill="white"/>
<path d="M16.1028 13.5598C16.0751 13.3521 16.0059 13.089 15.9643 12.9782L15.8951 12.7705L16.0197 12.9228C16.1997 13.1305 16.3382 13.3798 16.4628 13.7259C16.5597 13.989 16.5597 14.0721 16.5597 14.5013C16.5597 14.9167 16.5459 15.0137 16.4628 15.249C16.3243 15.6229 16.1582 15.886 15.8812 16.1767C15.3828 16.6891 14.732 16.966 13.8043 17.0906C13.6381 17.1045 13.1674 17.146 12.752 17.1737C11.7135 17.2291 11.0212 17.3398 10.3981 17.5614C10.315 17.5891 10.2319 17.6168 10.2181 17.6029C10.1904 17.5752 10.6196 17.326 10.9658 17.1598C11.4504 16.9245 11.9489 16.7998 13.0427 16.606C13.5827 16.5229 14.1366 16.4121 14.2751 16.3568C15.6459 15.9275 16.3243 14.8613 16.1028 13.5598Z" fill="white"/>
<path d="M17.3628 15.7891C17.0028 14.9998 16.9197 14.2521 17.1136 13.546C17.1412 13.4767 17.1689 13.4075 17.1966 13.4075C17.2243 13.4075 17.3074 13.449 17.3905 13.5044C17.5566 13.6152 17.9028 13.809 18.789 14.2937C19.9105 14.9029 20.5475 15.3737 20.9905 15.9137C21.3782 16.3845 21.6136 16.9245 21.7244 17.5891C21.7936 17.963 21.7521 18.863 21.6552 19.2368C21.3505 20.4138 20.6582 21.3553 19.6474 21.8953C19.4951 21.9784 19.3705 22.0338 19.3567 22.0338C19.3428 22.0338 19.3982 21.8953 19.4813 21.7292C19.8136 21.023 19.8551 20.3445 19.6059 19.583C19.4536 19.1122 19.1351 18.5445 18.4982 17.5891C17.7366 16.4814 17.5566 16.1906 17.3628 15.7891Z" fill="white"/>
<path d="M7.04724 20.0261C8.07188 19.1676 9.3319 18.5584 10.495 18.3645C10.9935 18.2815 11.8242 18.3092 12.2812 18.4338C13.015 18.6276 13.6797 19.043 14.0258 19.5553C14.3581 20.0538 14.5104 20.483 14.6628 21.4384C14.7181 21.8123 14.7874 22.2 14.8012 22.2831C14.912 22.7815 15.1335 23.1692 15.4105 23.3769C15.8397 23.6954 16.5874 23.7092 17.3213 23.4323C17.4459 23.3908 17.5566 23.3492 17.5566 23.3631C17.5843 23.3908 17.2105 23.64 16.9613 23.7646C16.6151 23.9446 16.3382 24 15.9643 24C15.2997 24 14.732 23.6539 14.2751 22.9615C14.1781 22.8231 13.9843 22.4215 13.8181 22.0477C13.3335 20.9261 13.0843 20.5938 12.5166 20.22C12.0181 19.9015 11.3812 19.8323 10.8965 20.0676C10.2596 20.3723 10.0934 21.1892 10.5365 21.6877C10.7165 21.8954 11.0488 22.0615 11.3258 22.1031C11.8381 22.1723 12.2812 21.7707 12.2812 21.2584C12.2812 20.9261 12.1566 20.7323 11.8242 20.58C11.3812 20.3861 10.8965 20.6077 10.9104 21.0369C10.9104 21.2169 10.9935 21.3277 11.1735 21.4107C11.2842 21.4661 11.2842 21.4661 11.2012 21.4523C10.7996 21.3692 10.7027 20.8707 11.0212 20.5523C11.4089 20.1646 12.2258 20.3307 12.5027 20.8707C12.6135 21.0923 12.6273 21.5354 12.5304 21.8123C12.295 22.4215 11.6304 22.74 10.9519 22.56C10.495 22.4354 10.3011 22.3108 9.74729 21.7431C8.77804 20.7461 8.40419 20.5523 7.01955 20.3446L6.75647 20.303L7.04724 20.0261Z" fill="white"/>
<path fill-rule="evenodd" clip-rule="evenodd" d="M2.47139 0.595392C5.69759 4.51392 7.96114 7.75818 8.21038 8.09049C8.41807 8.36742 8.33499 8.6305 7.98883 8.82435C7.79498 8.93512 7.39344 9.04589 7.19959 9.04589C6.97804 9.04589 6.71496 8.93512 6.53496 8.75512C6.41034 8.6305 5.87033 7.84126 4.65185 5.9443C3.72414 4.49043 2.9349 3.2858 2.92105 3.27195C2.86567 3.24426 2.86567 3.24426 4.55493 6.26277C5.6211 8.15972 5.96726 8.8382 5.96726 8.92128C5.96726 9.10128 5.91187 9.1982 5.69033 9.44744C5.31648 9.86283 5.15032 10.3336 5.0257 11.3167C4.88724 12.4106 4.51339 13.186 3.44721 14.5014C2.82413 15.2768 2.7272 15.4152 2.57489 15.7337C2.38104 16.1214 2.32566 16.3429 2.29797 16.8414C2.27027 17.3676 2.32566 17.6999 2.47797 18.1984C2.61643 18.6414 2.76874 18.9322 3.14259 19.4999C3.46106 19.9984 3.65491 20.3722 3.65491 20.5107C3.65491 20.6215 3.6826 20.6215 4.18107 20.5107C5.37186 20.2338 6.35496 19.763 6.89497 19.1815C7.22728 18.8214 7.31036 18.6276 7.31036 18.1291C7.31036 17.8107 7.29651 17.7414 7.21343 17.5476C7.07497 17.243 6.81189 16.9937 6.24419 16.606C5.49648 16.0937 5.17801 15.6783 5.09493 15.1245C5.0257 14.6537 5.10878 14.3352 5.52417 13.4629C5.95341 12.5629 6.06418 12.189 6.13341 11.2752C6.17495 10.6936 6.24419 10.4582 6.41034 10.2782C6.59035 10.0844 6.74266 10.0151 7.17189 9.95976C7.87806 9.86283 8.33499 9.68283 8.695 9.33667C9.01347 9.04589 9.15193 8.75512 9.16578 8.32588L9.17962 8.00741L8.99962 7.81356C8.34884 7.06586 2.04215 -2.21672e-06 2.00061 -2.21672e-06C1.98676 -2.21672e-06 2.20831 0.263079 2.47139 0.595392ZM4.01492 17.4368C4.16723 17.1737 4.08415 16.8414 3.83491 16.6753C3.59953 16.5229 3.23952 16.5922 3.23952 16.7999C3.23952 16.8553 3.26721 16.9106 3.35029 16.9383C3.47491 17.0076 3.48875 17.0768 3.39183 17.2291C3.2949 17.3814 3.2949 17.5199 3.41952 17.6168C3.61337 17.7691 3.87645 17.686 4.01492 17.4368Z" fill="white"/>
<path fill-rule="evenodd" clip-rule="evenodd" d="M9.62267 10.1536C9.29036 10.2505 8.97189 10.6105 8.87497 10.9705C8.81958 11.1921 8.84728 11.5936 8.9442 11.7182C9.09651 11.9121 9.23498 11.9675 9.62267 11.9675C10.3842 11.9675 11.035 11.6352 11.1042 11.2336C11.1735 10.9013 10.8827 10.4444 10.4812 10.2367C10.2735 10.1259 9.84422 10.0844 9.62267 10.1536ZM10.5088 10.8459C10.6196 10.6798 10.5781 10.4998 10.3704 10.3751C9.99653 10.1398 9.42882 10.3336 9.42882 10.6936C9.42882 10.8736 9.7196 11.0675 9.99653 11.0675C10.1765 11.0675 10.4258 10.9567 10.5088 10.8459Z" fill="white"/>
</svg>
