<svg width="24" height="24" viewBox="0 0 24 24" fill="none" xmlns="http://www.w3.org/2000/svg">
<g opacity="0.9">
<path d="M16.0224 14.0645C16.0224 11.9503 14.7425 11.2254 12.1828 10.9234C10.3544 10.6818 9.98877 10.1985 9.98877 9.35276C9.98877 8.50697 10.5983 7.96346 11.8171 7.96346C12.9142 7.96346 13.5237 8.3259 13.8284 9.232C13.8894 9.41322 14.0722 9.53398 14.255 9.53398H15.2301C15.4739 9.53398 15.6567 9.35276 15.6567 9.11123V9.05078C15.4129 7.72178 14.3159 6.69492 12.9142 6.57416V5.1244C12.9142 4.88273 12.7313 4.70151 12.4267 4.64105H11.5125C11.2686 4.64105 11.0858 4.82227 11.0248 5.1244V6.5137C9.19642 6.75538 8.03855 7.96346 8.03855 9.47367C8.03855 11.4671 9.25742 12.2523 11.8171 12.5544C13.5237 12.8564 14.0722 13.2188 14.0722 14.1854C14.0722 15.1519 13.2189 15.8164 12.061 15.8164C10.4763 15.8164 9.92778 15.1518 9.74494 14.2457C9.68409 14.0042 9.50125 13.8832 9.31841 13.8832H8.28224C8.03855 13.8832 7.85571 14.0645 7.85571 14.3061V14.3666C8.0994 15.8767 9.07458 16.964 11.0858 17.2661V18.7159C11.0858 18.9574 11.2686 19.1386 11.5733 19.1991H12.4875C12.7313 19.1991 12.9142 19.0179 12.9752 18.7159V17.2661C14.8035 16.964 16.0224 15.6954 16.0224 14.0645Z" fill="white"/>
<path fill-rule="evenodd" clip-rule="evenodd" d="M3.46764 8.80909C1.70011 13.4605 4.138 18.7159 8.89177 20.4071C9.07461 20.5281 9.25745 20.7696 9.25745 20.9508V21.7966C9.25745 21.9174 9.25745 21.9778 9.19646 22.0381C9.13561 22.2798 8.89177 22.4006 8.64794 22.2798C5.23502 21.1925 2.6143 18.5949 1.51727 15.2122C-0.311101 9.47366 2.85813 3.37251 8.64794 1.56031C8.70894 1.5 8.83078 1.5 8.89177 1.5C9.13561 1.56031 9.25745 1.74153 9.25745 1.9832V2.82885C9.25745 3.13098 9.13561 3.3122 8.89177 3.43296C6.39304 4.33906 4.38183 6.27202 3.46764 8.80909ZM14.8035 1.80211C14.8644 1.56043 15.1082 1.43967 15.3521 1.56043C18.704 2.64775 21.3857 5.24528 22.4827 8.68845C24.3111 14.427 21.1419 20.5282 15.3521 22.3404C15.2911 22.4007 15.1692 22.4007 15.1082 22.4007C14.8644 22.3404 14.7425 22.1592 14.7425 21.9175V21.0718C14.7425 20.7697 14.8644 20.5885 15.1082 20.4677C17.607 19.5616 19.6182 17.6287 20.5324 15.0916C22.2999 10.4402 19.862 5.18482 15.1082 3.49354C14.9254 3.37263 14.7425 3.1311 14.7425 2.88943V2.04378C14.7425 1.92287 14.7425 1.86256 14.8035 1.80211Z" fill="white"/>
</g>
</svg>
