<svg width="24" height="24" viewBox="0 0 24 24" fill="none" xmlns="http://www.w3.org/2000/svg">
<path fill-rule="evenodd" clip-rule="evenodd" d="M11.9162 2.00285H11.222V6.58215C12.5444 6.61254 13.865 6.52327 14.7221 6.62108L14.6665 9.33618C14.6665 9.33618 11.9564 9.48243 10.836 9.49573C9.97417 9.50617 10.3093 9.97816 10.6694 10.0465C11.0295 10.1149 13.0951 10.5983 13.7807 10.9278C14.4664 11.2574 14.8944 11.5195 15.1137 13.132C15.333 14.7445 14.746 17.0931 11.3886 17.1567H11.222V22H11.9162C14.5906 22 17.1555 20.9464 19.0465 19.0711C20.9376 17.1957 22 14.6522 22 12C22 9.34783 20.9376 6.8043 19.0465 4.92893C17.1555 3.05357 14.5906 2 11.9162 2V2.00285Z" fill="white"/>
<path fill-rule="evenodd" clip-rule="evenodd" d="M6.72205 16.9832L6.83313 14.2292C6.83313 14.2292 10.0249 14.3517 11.0553 14.1798C11.7764 14.0848 11.3886 13.7392 11.3886 13.7392C11.3886 13.7392 8.89873 13.2928 8.05506 12.8579C7.21139 12.4229 6.24994 11.554 6.7728 8.70498C7.04477 7.24059 8.56356 6.66984 10.2729 6.58722V2.00317H3.91525C3.40729 2.00317 2.92014 2.20328 2.56096 2.55948C2.20178 2.91567 2 3.39877 2 3.90251V20.101C2 20.6047 2.20178 21.0878 2.56096 21.444C2.92014 21.8002 3.40729 22.0003 3.91525 22.0003H10.2777V17.1485C7.79842 17.0744 6.72205 16.9832 6.72205 16.9832Z" fill="white"/>
</svg>
