<svg width="24" height="24" viewBox="0 0 24 24" fill="none" xmlns="http://www.w3.org/2000/svg">
<path fill-rule="evenodd" clip-rule="evenodd" d="M23 12C23 5.9258 18.0742 1 12 1C5.9258 1 1 5.9258 1 12C1 18.0742 5.9258 23 12 23C18.0742 23 23 18.0742 23 12ZM11.5468 7.4856V16.6376H12.5433V7.4856H11.5468ZM16.6199 10.5348L13.5421 11.351L12.8558 8.15656L13.7709 7.94976L14.1317 9.46336C14.1317 9.46336 14.9633 8.09936 13.8545 6.68696C13.2189 5.98068 12.9081 5.93235 12.2171 5.82492L12.1584 5.81576C11.5138 5.72336 10.0156 5.94116 9.56896 7.69016C9.37977 8.81656 9.59317 9.65036 11.0452 10.7416L10.9638 11.956C10.9638 11.956 9.34237 10.8142 8.92437 10.0134C8.60097 9.37976 8.04657 8.12796 9.04757 6.38556C9.58657 5.51436 10.6492 4.67836 12.5214 4.76636C13.463 4.80596 15.7619 5.95656 15.4055 8.64496C15.3439 9.14876 15.0821 9.81976 15.0821 9.81976L16.3449 9.53816L16.6199 10.5348ZM11.3466 19.2225C13.2144 19.3589 14.299 18.5515 14.8622 17.6957C15.9072 15.982 15.3858 14.7148 15.0822 14.0702C14.6862 13.2584 13.0956 12.0748 13.0956 12.0748L12.9812 13.287C14.4024 14.4178 14.5938 15.2582 14.376 16.3779C13.8832 18.1137 12.3784 18.2941 11.7382 18.1841C11.7169 18.1802 11.696 18.1764 11.6754 18.1727C10.9874 18.0472 10.6792 17.9909 10.064 17.2689C8.99478 15.8258 9.86158 14.486 9.86158 14.486L10.1828 16.0106L11.1046 15.828L10.5018 12.616L7.40198 13.3508L7.65058 14.3518L8.91998 14.1054C8.91998 14.1054 8.64058 14.7676 8.56578 15.2692C8.13898 17.9465 10.405 19.1587 11.3466 19.2225Z" fill="white"/>
</svg>
