<svg width="24" height="24" viewBox="0 0 24 24" fill="none" xmlns="http://www.w3.org/2000/svg">
<path d="M18.0268 15.8207C18.8108 16.8741 19.6193 17.9521 20.4277 19.03C18.8108 20.9409 16.8019 22.1659 14.3765 22.6803C11.6816 23.2438 9.1337 22.8273 6.65931 21.4554C8.86421 19.814 11.0201 18.197 13.2005 16.5801C13.6905 17.0456 14.156 17.5111 14.6215 17.9521C15.1359 18.442 14.94 18.4665 15.6014 18.0991C16.5079 17.5846 17.2674 16.8741 17.8553 16.0166C17.8798 15.9676 17.9288 15.9186 17.9533 15.8697C17.9288 15.8697 17.9533 15.8697 18.0268 15.8207ZM8.39873 17.9766C7.78626 18.442 7.22278 18.8585 6.65931 19.2995C6.24282 19.618 5.82634 19.912 5.40986 20.2305C5.23837 20.3774 5.11587 20.3774 4.91988 20.206C3.05796 18.54 1.88201 16.4821 1.44103 14.0322C1.00005 11.5578 1.39203 9.20596 2.56798 6.97656C2.59248 6.92756 2.64148 6.85406 2.66598 6.80507C2.66598 6.78057 2.69048 6.78057 2.73947 6.75607C4.35641 8.88747 5.99784 11.0189 7.61477 13.1503C7.56577 13.2238 7.54127 13.2728 7.49227 13.3218C7.00229 13.8362 6.51231 14.3507 5.99784 14.8407C5.85084 14.9877 5.82634 15.1102 5.92434 15.2817C6.43882 16.2616 7.14929 17.0701 8.03125 17.7316C8.15374 17.8051 8.25174 17.8786 8.39873 17.9766ZM17.5368 2.76275C16.7529 3.32622 15.9689 3.8897 15.1849 4.42867C13.8375 5.38413 12.4901 6.36409 11.1671 7.31954C10.9956 7.44204 10.8731 7.46654 10.7261 7.29504C10.2852 6.82956 9.81967 6.41308 9.37869 5.9476C9.2562 5.82511 9.1337 5.80061 8.96221 5.87411C7.90875 6.41308 7.07579 7.17255 6.38982 8.128C6.34082 8.177 6.29182 8.2505 6.24283 8.324C5.85084 7.80952 5.48336 7.34404 5.11587 6.85406C4.72389 6.33959 4.35641 5.82511 3.98892 5.33513C3.86643 5.16364 3.84193 5.04115 4.01342 4.86965C5.89984 2.78725 8.22724 1.5623 11.0201 1.26832C13.225 1.02333 15.3319 1.46431 17.2919 2.51776C17.3653 2.56676 17.4388 2.59126 17.5123 2.64025C17.5123 2.71375 17.5123 2.73825 17.5368 2.76275ZM21.5302 17.4621C21.0157 16.8006 20.5502 16.1881 20.0847 15.5757C19.0068 14.1547 17.9288 12.7093 16.8264 11.2884C16.6794 11.0924 16.6794 10.9699 16.8509 10.7984C17.3164 10.3329 17.7573 9.86743 18.2228 9.40195C18.3453 9.27945 18.3943 9.15696 18.2963 8.98547C17.7573 7.95651 17.0224 7.09905 16.0669 6.41308C15.9934 6.36408 15.9199 6.29059 15.8219 6.24159C15.8954 6.16809 15.9689 6.1191 16.0179 6.0701C16.9489 5.35963 17.8798 4.67366 18.8108 3.96319C18.9578 3.8407 19.0803 3.7917 19.2518 3.96319C21.5792 6.0701 22.8286 8.69148 22.9511 11.8518C23.0001 13.6893 22.5836 15.4287 21.7507 17.0701C21.6772 17.1681 21.6037 17.2906 21.5302 17.4621Z" fill="white"/>
</svg>
