<svg xmlns="http://www.w3.org/2000/svg" xmlns:xlink="http://www.w3.org/1999/xlink" width="22" height="22" viewBox="0 0 22 22">
    <defs>
        <path id="gbjr7xfjga" d="M18.833 8.396l2.586 2.648-10.438 10.438-2.586-2.586 10.438-10.5zM14.907 4.47l2.586 2.648L7.055 17.556 4.47 14.97l10.438-10.5zM3.13 8.396l2.586 2.648L3.13 13.63.544 11.044 3.13 8.396zM10.98.544l2.586 2.649-6.512 6.511L4.47 7.118 10.981.544z"/>
    </defs>
    <g fill="none" fill-rule="evenodd">
        <g>
            <g>
                <path d="M0 0H22V22H0z" transform="translate(-405 -51) translate(405 51)"/>
                <g transform="translate(-405 -51) translate(405 51)">
                    <mask id="d1idyto3xb" fill="#fff">
                        <use xlink:href="#gbjr7xfjga"/>
                    </mask>
                    <use fill="#FFF" fill-rule="nonzero" xlink:href="#gbjr7xfjga"/>
                    <g mask="url(#d1idyto3xb)">
                        <path d="M0 0H22V22H0z"/>
                    </g>
                </g>
            </g>
        </g>
    </g>
</svg>
