<svg xmlns="http://www.w3.org/2000/svg" xmlns:xlink="http://www.w3.org/1999/xlink" width="22" height="22" viewBox="0 0 22 22">
    <defs>
        <path id="ocgn9scm1a" d="M11 0c6.075 0 11 4.925 11 11s-4.925 11-11 11S0 17.075 0 11 4.925 0 11 0zM5.213 11.216c-.258-.14-.59-.059-.74.18-.047.076-.073.162-.073.25v2.327c0 .416.235.804.62 1.022l5.417 3.067c.306.173.705.084.892-.2.062-.093.095-.203.095-.312v-2.41c0-.357-.205-.684-.537-.864zm2.593-3.698c-.258-.14-.59-.059-.739.18-.048.076-.074.162-.074.251v3.065l4.984 2.758c.326.182.526.507.526.859v2.715c.017-.005.034-.011.05-.019l1.242-.647c.136-.07.22-.203.22-.348v-4.89c0-.356-.204-.684-.536-.863zm2.483-3.6c-.257-.139-.59-.058-.739.18-.046.077-.072.163-.072.252v2.908l5.094 2.826c.325.181.524.506.524.857v4.973l1.177-.588c.14-.07.227-.206.227-.352V7.831c0-.356-.205-.686-.538-.864z"/>
    </defs>
    <g fill="none" fill-rule="evenodd">
        <g>
            <g transform="translate(-342 -14) translate(342 14)">
                <mask id="ol2m7a4qgb" fill="#fff">
                    <use xlink:href="#ocgn9scm1a"/>
                </mask>
                <use fill="#FFF" xlink:href="#ocgn9scm1a"/>
                <g mask="url(#ol2m7a4qgb)">
                    <path d="M0 0H22V22H0z"/>
                </g>
            </g>
        </g>
    </g>
</svg>
