<svg xmlns="http://www.w3.org/2000/svg" xmlns:xlink="http://www.w3.org/1999/xlink" width="22" height="22" viewBox="0 0 22 22">
    <defs>
        <path id="n1595zwxwa" d="M11 0c6.075 0 11 4.925 11 11s-4.925 11-11 11S0 17.075 0 11 4.925 0 11 0zm.001 2.64L3.757 6.823v8.365l7.245 4.182 7.244-4.182V6.823L11 2.64zm0 1.104l6.288 3.63v7.261l-6.288 3.63-6.287-3.63v-7.26l6.288-3.63zm-3.278 6.303L5.971 11.35c.006.027.006.038.01.046.783 1.358 1.564 2.716 2.35 4.072.025.043.102.078.155.08.241.008.483.01.724 0 .072-.003.156-.037.21-.085.27-.24.522-.503.8-.733.202-.166.29-.346.257-.608-.014-.116-.037-.204-.125-.286-.324-.302-.644-.608-.957-.92-.055-.056-.095-.154-.096-.233-.008-.507-.001-1.015-.005-1.523 0-.051-.024-.126-.062-.15-.5-.326-1.004-.643-1.509-.963zm6.551-.015c-.486.318-.959.632-1.437.938-.089.057-.114.12-.113.219.004.503.005 1.006-.004 1.509 0 .073-.04.164-.093.217-.26.26-.516.525-.798.759-.227.187-.333.393-.287.686.015.089.03.156.1.22.327.29.646.59.973.88.047.042.121.07.185.072.236.009.472-.001.709.006.097.003.15-.026.2-.114.556-.978 1.117-1.954 1.677-2.93l.646-1.132-1.758-1.33zm-1.566-.481H9.302c.023.064.04.115.06.165.157.408.316.815.471 1.223.02.05.04.107.034.159-.026.29-.06.58-.091.87-.027.246-.052.494-.078.74h2.623c-.044-.44-.08-.866-.13-1.289-.029-.238-.023-.46.076-.688.15-.345.272-.703.404-1.055.015-.04.024-.08.037-.125zm.929-3.095h-5.28l-.61 2.672h6.527l-.637-2.672z"/>
    </defs>
    <g fill="none" fill-rule="evenodd">
        <g>
            <g transform="translate(-373 -14) translate(373 14)">
                <mask id="nl26fn9hcb" fill="#fff">
                    <use xlink:href="#n1595zwxwa"/>
                </mask>
                <use fill="#FFF" xlink:href="#n1595zwxwa"/>
                <g mask="url(#nl26fn9hcb)">
                    <path d="M0 0H22V22H0z"/>
                </g>
            </g>
        </g>
    </g>
</svg>
