<svg xmlns="http://www.w3.org/2000/svg" xmlns:xlink="http://www.w3.org/1999/xlink" width="22" height="22" viewBox="0 0 22 22">
  <defs>
    <path id="ic_wallet_22_dai-a" d="M3.39659621,2.5 L10.2934414,2.5 C14.4886163,2.5 17.6685677,4.74790733 18.8516272,8.01888426 L21,8.01888426 L21,9.99591234 L19.3040179,9.99591234 C19.3372109,10.3083473 19.3541695,10.6266183 19.3541695,10.9500032 L19.3541695,10.998556 C19.3541695,11.3626123 19.3327449,11.7205317 19.290801,12.0710509 L21,12.0710509 L21,14.0480609 L18.8107093,14.0480609 C17.5965087,17.2735474 14.4411805,19.5 10.2934414,19.5 L3.39659621,19.5 L3.39659621,14.0480609 L1,14.0480609 L1,12.0710509 L3.39659621,12.0710509 L3.39659621,9.99591234 L1,9.99591234 L1,8.01888426 L3.39659621,8.01888426 L3.39659621,2.5 Z M5.32468203,14.0480609 L5.32468203,17.7264668 L10.2934414,17.7264668 C13.3596313,17.7264668 15.6376982,16.2532153 16.6981246,14.0480609 L5.32468203,14.0480609 Z M17.2887793,12.0710509 L5.32468203,12.0710509 L5.32468203,9.99591234 L17.2918571,9.99591234 C17.3362151,10.322486 17.3588467,10.6572421 17.3588467,10.998556 L17.3588467,11.0471089 C17.3588467,11.3963045 17.3351891,11.73816 17.2887793,12.0710509 Z M10.2934414,4.27060922 C13.3737534,4.27060922 15.65864,5.78272709 16.7126692,8.01888426 L5.32468203,8.01888426 L5.32468203,4.27060922 L10.2934414,4.27060922 Z"/>
  </defs>
  <use fill="#FFF" fill-rule="evenodd" xlink:href="#ic_wallet_22_dai-a"/>
</svg>
