<svg xmlns="http://www.w3.org/2000/svg" xmlns:xlink="http://www.w3.org/1999/xlink" width="22" height="22" viewBox="0 0 22 22">
    <defs>
        <path id="1za9dub45a" d="M14.378 0c-3.87 0-7.157 2.976-7.57 6.807C2.975 7.221 0 10.508 0 14.377c.002 4.209 3.413 7.62 7.622 7.623 3.87 0 7.17-2.976 7.57-6.807C19.024 14.779 22 11.492 22 7.623 21.998 3.414 18.587.003 14.378 0zm5.836 8.476c-.39 2.566-2.404 4.58-4.97 4.97v-4.97h4.97zM1.786 13.524c.385-2.57 2.4-4.59 4.97-4.983v4.97h-4.97v.013zm11.673 1.72c-.427 2.894-2.912 5.038-5.837 5.035-2.925.003-5.41-2.14-5.836-5.034h11.673v-.001zm.065-6.768v5.035H8.476V8.476h5.048zm6.69-1.72H8.541c.427-2.894 2.912-5.038 5.837-5.035 2.925-.003 5.41 2.14 5.836 5.034v.001z"/>
    </defs>
    <g fill="none" fill-rule="evenodd">
        <g>
            <g transform="translate(-405 -14) translate(405 14)">
                <mask id="y2qq1qdi0b" fill="#fff">
                    <use xlink:href="#1za9dub45a"/>
                </mask>
                <use fill="#FFF" fill-rule="nonzero" xlink:href="#1za9dub45a"/>
                <g mask="url(#y2qq1qdi0b)">
                    <path d="M0 0H22V22H0z"/>
                </g>
            </g>
        </g>
    </g>
</svg>
