<svg xmlns="http://www.w3.org/2000/svg" xmlns:xlink="http://www.w3.org/1999/xlink" width="23" height="22" viewBox="0 0 23 22">
    <defs>
        <path id="uyvk27s4ba" d="M21.774 8.156c-.5 1.367-1.155 2.527-1.8 3.689l-.257.466c-.561 1.01-1.16 2.002-2.225 2.697l4.33 2.09c-5.196 6.506-16.609 6.465-21.75-.177l4.087-1.866c-.02-.073-.017-.117-.035-.13-1.082-.72-1.651-1.833-2.216-2.94-.52-1.02-.997-2.063-1.486-3.1-.077-.163-.118-.344-.191-.561 5.487 2.686 17.258 2.3 21.543-.168zm-4.908 3.152c-.774.993-1.748 1.617-2.975 1.667-1.255.051-2.19-.632-2.909-1.629-1.633 2.099-4.11 2.245-5.88-.009-.005.082-.027.147-.007.195.487 1.205.974 2.41 1.477 3.608.056.136.188.257.313.344 1.747 1.214 3.61 1.904 5.753 1.196 1.344-.445 2.652-.949 3.183-2.46.125-.354.3-.69.442-1.04.123-.305.24-.613.342-.927.1-.31.175-.63.261-.945zM8.933.926c1.648-1.091 2.428-1.134 4.03.023 1.336.964 2.58 2.056 3.876 3.076.226.178.501.317.775.406 1.014.33 2.046.607 3.052.958.358.125.703.363.978.628.384.37.315.71-.139.985-1.146.693-2.418 1.045-3.713 1.307-5.066 1.025-10.116.989-15.128-.332-.738-.194-1.448-.513-2.145-.832-.616-.283-.688-.789-.193-1.266.254-.245.594-.4.895-.596.077-.049.156-.094.25-.152l-.228-.298-.121-.16c.805-.827 1.774-.794 2.92-.494-.44-.408-.783-.705-1.103-1.028-.562-.567-.596-1.532-.093-2.158.256-.318 1.274-.192 1.496.238.235.455.381.956.545 1.443.084.247.12.51.24.79C5.413 1.837 6.229.79 7.96.614c.054.167.1.281.127.4.026.121.032.247.056.443.286-.192.538-.363.791-.53z"/>
    </defs>
    <g fill="none" fill-rule="evenodd">
        <g>
            <g transform="translate(-171 -84) translate(172 84)">
                <mask id="egxjgdqxlb" fill="#fff">
                    <use xlink:href="#uyvk27s4ba"/>
                </mask>
                <use fill="#FFF" xlink:href="#uyvk27s4ba"/>
                <g mask="url(#egxjgdqxlb)">
                    <path d="M0 0H22V22H0z"/>
                </g>
            </g>
        </g>
    </g>
</svg>
