<svg xmlns="http://www.w3.org/2000/svg" xmlns:xlink="http://www.w3.org/1999/xlink" width="22" height="22" viewBox="0 0 22 22">
    <defs>
        <path id="wk16wo9cza" d="M11.193 8.844l.02.01c.812.664 3.088 2.944 2.754 6.583-.334 3.735-3.39 5.385-3.517 5.45-1.64.792-.987 1.568-1.64.792-1.13-1.326-3.134-3.784.383-8.895 1.034-1.503 1.862-3.153 1.925-3.913l.016-.016c.032-.016.064-.016.08 0zM6.487.09c0-.13.08-.081.08-.081 1.146.89 2.642 3.606 2.642 6.76 0 3.412-5.332 6.55-4.95 10.673.319 3.396 2.849 5.013.796 4.43-3.66-1.034-7.257-6.662-3.39-11.804C3.352 7.852 6.392 6.186 6.487.09z"/>
    </defs>
    <g fill="none" fill-rule="evenodd">
        <g>
            <g>
                <g transform="translate(-435 -14) translate(435 14) translate(3)">
                    <mask id="gphie68g1b" fill="#fff">
                        <use xlink:href="#wk16wo9cza"/>
                    </mask>
                    <use fill="#FFF" fill-rule="nonzero" xlink:href="#wk16wo9cza"/>
                    <g mask="url(#gphie68g1b)">
                        <path d="M0 0H22V22H0z" transform="translate(-3)"/>
                    </g>
                </g>
            </g>
        </g>
    </g>
</svg>
