<svg xmlns="http://www.w3.org/2000/svg" width="22" height="22" viewBox="0 0 22 22">
    <g fill="none" fill-rule="evenodd">
        <g fill="#FFF" fill-rule="nonzero">
            <g>
                <path d="M14.193 8.844l.02.01c.812.664 3.088 2.944 2.754 6.583-.334 3.735-3.39 5.385-3.517 5.45-1.64.792-.987 1.568-1.64.792-1.13-1.326-3.134-3.784.383-8.895 1.034-1.503 1.862-3.153 1.925-3.913l.016-.016c.032-.016.064-.016.08 0zM9.487.09c0-.13.08-.081.08-.081 1.146.89 2.642 3.606 2.642 6.76 0 3.412-5.332 6.55-4.95 10.673.319 3.396 2.849 5.013.796 4.43-3.66-1.034-7.257-6.662-3.39-11.804C6.352 7.852 9.392 6.186 9.487.09z" transform="translate(-435 -14) translate(435 14)"/>
            </g>
        </g>
    </g>
</svg>
