<svg xmlns="http://www.w3.org/2000/svg" width="22" height="22" viewBox="0 0 22 22">
    <g fill="none" fill-rule="evenodd">
        <g fill="#FFF">
            <g>
                <path d="M11 0c6.075 0 11 4.925 11 11s-4.925 11-11 11S0 17.075 0 11 4.925 0 11 0zm-.553 12.07l1.46 6.683.02.06c.036.078.1.138.18.168.1.037.211.02.296-.052l4.005-3 .046-.04c.055-.062.084-.143.079-.228-.007-.105-.067-.2-.158-.25l-5.928-3.34zm.103-8.767c-.103-.068-.236-.067-.337.005L6.316 6.355l-.08.072c-.15.154-.237.364-.236.584v7.733l.006.11c.025.22.136.421.31.558l3.878 3.035.064.035c.09.034.191.025.273-.03.103-.069.155-.194.131-.317L9.16 10.877l1.52-7.257.006-.073c-.004-.098-.054-.189-.136-.244zm6.294 4.27c-.097-.056-.217-.054-.312.006L10.68 11l5.85 3.418.06.028c.083.028.175.02.253-.025.097-.056.157-.162.156-.275V7.849l-.006-.067c-.018-.087-.072-.164-.15-.209zm-4.49-4.54c-.074-.037-.161-.044-.242-.016-.1.035-.177.12-.205.224l-1.46 6.682 5.926-3.341.05-.034c.063-.052.103-.129.109-.213.007-.104-.04-.206-.124-.269l-4-3z" transform="translate(-94 -84) translate(94 84)"/>
            </g>
        </g>
    </g>
</svg>
