<svg xmlns="http://www.w3.org/2000/svg" width="22" height="22" viewBox="0 0 22 22">
    <g fill="none" fill-rule="evenodd">
        <g fill="#FFF" fill-rule="nonzero">
            <g>
                <path d="M11 0C4.925 0 0 4.925 0 11s4.925 11 11 11 11-4.925 11-11v-.007C21.997 4.922 17.073 0 11 0zM7.507 18.989l-1.344-1.352 3.151-3.15-3.151-3.151 1.346-1.348 4.498 4.497-4.5 4.504zm5.069-5.074L8.078 9.417l1.343-1.342 4.496 4.499-1.341 1.34zm3.264-3.255l-1.349 1.345-4.498-4.498 4.498-4.497 1.349 1.346-3.15 3.15 3.15 3.154z" transform="translate(-342 -51) translate(342 51)"/>
            </g>
        </g>
    </g>
</svg>
