<svg xmlns="http://www.w3.org/2000/svg" xmlns:xlink="http://www.w3.org/1999/xlink" width="22" height="22" viewBox="0 0 22 22">
    <defs>
        <path id="m2zz5vme6a" d="M11 0c6.075 0 11 4.925 11 11s-4.925 11-11 11S0 17.075 0 11 4.925 0 11 0zM4.412 7.304c-.453-.363-1.112-.04-1.112.524v7.022h1.194V8.797l4.694 3.43v2.583h1.194v-2.825c0-.202-.123-.404-.288-.525zm14.281.427c-.07-.503-.678-.77-1.105-.427l-5.64 4.156-.08.067c-.123.122-.21.29-.21.458v2.825h1.195v-2.583l4.653-3.43v6.053H18.7V7.828z"/>
    </defs>
    <g fill="none" fill-rule="evenodd">
        <g>
            <g transform="translate(-134 -51) translate(134 51)">
                <mask id="tvwh3ej56b" fill="#fff">
                    <use xlink:href="#m2zz5vme6a"/>
                </mask>
                <use fill="#FFF" xlink:href="#m2zz5vme6a"/>
                <g mask="url(#tvwh3ej56b)">
                    <path d="M0 0H22V22H0z"/>
                </g>
            </g>
        </g>
    </g>
</svg>
