<svg xmlns="http://www.w3.org/2000/svg" width="22" height="22" viewBox="0 0 22 22">
    <g fill="none" fill-rule="evenodd">
        <g fill="#FFF">
            <g>
                <path d="M14.397 3.238c.201 1.233-.177 2.27-1.077 3.115-.761.716-.797 1.884-.055 2.595.74.708 1.881.632 2.57-.146.938-1.06 2.127-1.416 3.473-1.046 1.343.367 2.165 1.305 2.42 2.672.386 2.068-1.252 3.971-3.52 3.953-.842-.02-1.68-.4-2.349-1.145-.52-.581-1.274-.764-1.98-.476-.69.281-1.132.975-1.087 1.736.027.462.219.86.559 1.177.619.578 1.075 1.247 1.198 2.107.199 1.389-.27 2.515-1.406 3.317-1.968 1.39-4.693.318-5.216-2.036-.29-1.3.122-2.392 1.068-3.297.509-.487.698-1.076.527-1.746-.172-.67-.62-1.118-1.303-1.27-.654-.146-1.246.012-1.695.53-.896 1.035-2.024 1.458-3.35 1.17-1.347-.295-2.21-1.166-2.568-2.504-.523-1.953.96-4.004 2.975-4.155 1.158-.087 2.105.314 2.887 1.153.342.366.764.56 1.271.559.74-.002 1.392-.437 1.649-1.106.272-.708.091-1.47-.48-1.966-.81-.707-1.226-1.592-1.218-2.668C7.705 2.057 9.076.588 10.772.45c1.762-.141 3.346 1.077 3.625 2.787zm-3.194 13.077c-1.094 0-2.01.927-1.999 2.02.012 1.109.917 2.007 2.018 2.004 1.106-.003 2.007-.905 2.007-2.01 0-1.117-.903-2.014-2.026-2.014zm.018.634c.736-.004 1.371.637 1.372 1.385 0 .734-.618 1.35-1.364 1.359-.758.008-1.372-.6-1.373-1.364-.002-.757.61-1.375 1.365-1.38zM3.884 9.142c-1.094 0-1.997.896-2 1.986-.003 1.128.884 2.026 2.006 2.03 1.106.004 2.005-.888 2.017-1.999.012-1.11-.898-2.016-2.023-2.017zm14.536-.15c-1.115-.016-2.029.884-2.033 2.002-.005 1.109.888 2.01 1.995 2.015 1.126.006 2.025-.889 2.022-2.012-.003-1.103-.88-1.99-1.984-2.005zM3.906 9.79c.766.001 1.35.599 1.348 1.378-.002.747-.61 1.349-1.363 1.347-.759-.002-1.378-.622-1.37-1.372.008-.76.616-1.354 1.385-1.353zm14.504-.148c.76.003 1.345.597 1.344 1.363 0 .77-.603 1.369-1.373 1.364-.746-.005-1.35-.615-1.353-1.37-.004-.758.61-1.36 1.382-1.357zM11.09 1.814c-1.115-.01-2.03.895-2.032 2.01-.003 1.099.913 2.016 2.008 2.013 1.112-.003 2.01-.893 2.015-2 .007-1.107-.887-2.014-1.991-2.023zm-.014.633c.732-.001 1.38.652 1.375 1.387-.006.736-.624 1.35-1.37 1.36-.75.01-1.373-.609-1.378-1.366-.005-.746.626-1.38 1.373-1.381z" transform="translate(-135 -84) translate(135 84)"/>
            </g>
        </g>
    </g>
</svg>
