<svg xmlns="http://www.w3.org/2000/svg" xmlns:xlink="http://www.w3.org/1999/xlink" width="22" height="22" viewBox="0 0 22 22">
    <defs>
        <path id="nazop0d4sa" d="M11 0c2.751 0 4.981 2.23 4.981 4.981 0 .407-.049.802-.14 1.18.377-.093.771-.142 1.178-.142C19.769 6.019 22 8.249 22 11s-2.23 4.981-4.981 4.981c-.407 0-.801-.049-1.18-.14.093.376.142.771.142 1.178 0 2.75-2.23 4.981-4.981 4.981s-4.981-2.23-4.981-4.981c0-.407.049-.802.14-1.18-.376.093-.771.142-1.178.142C2.231 15.981 0 13.751 0 11s2.23-4.981 4.981-4.981c.407 0 .802.049 1.18.14-.093-.376-.142-.771-.142-1.178C6.019 2.231 8.249 0 11 0zm1.589 12.658c.263 1.52 1.377 2.612 3.019 2.849-.564-1.804-1.554-2.712-3.02-2.849zM9.58 12.36c-1.734.544-2.702 1.553-3.289 3.125 1.58-.08 2.694-1.136 3.29-3.125zm2.362-2.49l-1.973.093v2.054h1.973zm3.523-3.515c-1.575.481-2.516 1.498-3.105 3.092 1.774-.25 3.076-1.595 3.105-3.092zm-9.03.004c.36 1.845 1.68 3.054 3.15 2.978-.583-1.438-1.412-2.56-3.15-2.978z"/>
    </defs>
    <g fill="none" fill-rule="evenodd">
        <g>
            <g transform="translate(-172 -51) translate(172 51)">
                <mask id="o5nki9s8rb" fill="#fff">
                    <use xlink:href="#nazop0d4sa"/>
                </mask>
                <use fill="#FFF" xlink:href="#nazop0d4sa"/>
                <g mask="url(#o5nki9s8rb)">
                    <path d="M0 0H22V22H0z"/>
                </g>
            </g>
        </g>
    </g>
</svg>
