<svg xmlns="http://www.w3.org/2000/svg" width="22" height="22" viewBox="0 0 22 22">
    <g fill="#FFF" fill-rule="evenodd">
        <path d="M11 0c6.075 0 11 4.925 11 11s-4.925 11-11 11S0 17.075 0 11 4.925 0 11 0zm7.096 8.74c-.495-.222-1.016-.26-1.545-.176-.808.128-1.395.573-1.747 1.322-.326.695-.376 1.428-.221 2.174.124.6.402 1.117.888 1.494.562.435 1.2.542 1.881.411.403-.077.741-.273.984-.622.003-.005.013-.005.028-.01v.547h.888v-2.8h-2.385v.906h1.465c-.056.423-.234.749-.602.948-.247.133-.513.172-.789.16-.599-.024-1.044-.299-1.292-.863-.229-.52-.24-1.061-.106-1.608.099-.405.297-.747.658-.969.342-.211.717-.247 1.104-.18.261.044.498.145.693.336.163.159.249.357.28.58h.98c-.098-.77-.46-1.337-1.162-1.65zm-11.51.082c-.507-.279-1.054-.352-1.62-.277-.898.12-1.55.597-1.935 1.432-.282.611-.332 1.256-.211 1.916.095.522.31.986.675 1.369.502.526 1.127.748 1.836.748.076 0 .15.004.226 0 .08-.006.16-.018.24-.032.718-.118 1.29-.475 1.678-1.105.449-.726.533-1.52.35-2.346-.166-.75-.566-1.335-1.239-1.705zm3.107-.177c-.339.003-.677.002-1.016.002h-.099v5.23h.877v-3.602c.027.031.04.065.053.1.409 1.14.818 2.28 1.225 3.421.023.064.049.092.121.09.226-.006.451-.005.677 0 .07.001.104-.019.13-.09.403-1.137.81-2.272 1.216-3.407.014-.04.032-.078.047-.117l.017.004v3.608h.1c.231 0 .463-.003.694.002.082.002.108-.019.108-.106-.003-1.678-.002-3.356-.003-5.035 0-.03-.002-.062-.004-.09-.019-.004-.027-.008-.036-.008-.373 0-.746.001-1.12-.002-.06 0-.068.037-.083.079l-1.306 3.674c-.024.07-.05.14-.084.227l-.036-.092c-.45-1.266-.9-2.531-1.348-3.798-.026-.073-.06-.09-.13-.09zm-4.34.817c.832 0 1.415.566 1.551 1.408.07.433.038.858-.132 1.264-.29.688-.905.99-1.577.936-.869-.069-1.338-.714-1.434-1.459-.015-.114-.02-.229-.028-.343.001-.351.065-.687.231-.996.3-.556.774-.81 1.389-.81z" transform="translate(-209 -51) translate(209 51)"/>
    </g>
</svg>
