<svg xmlns="http://www.w3.org/2000/svg" width="22" height="22" viewBox="0 0 22 22">
    <g fill="none" fill-rule="evenodd">
        <g fill="#FFF" fill-rule="nonzero">
            <g>
                <path d="M20.49 8.917c.587.888.935 1.914 1.01 2.976 0 .337-.112 1.291-.786 2.19-.566.669-1.18 1.055-1.58 1.244l-.105.047-.954.393c-1.7 1.138-3.331 2.376-4.885 3.706-.788.807-1.85 1.288-2.976 1.348-1.904-.112-3.683-.981-4.941-2.415l.107-.006.005.006-.209-.278.097.278c-.506-.056-1.18-.224-1.966-.561-.786-.337-1.74-.73-2.358-1.797C.556 15.374.5 14.701.5 14.251c.014-1.19.302-2.363.842-3.425.538-1.312.897-2.69 1.067-4.099l.28-1.123c.17-.561.282-1.123.675-1.684l.617-.674c.942-.592 2.043-.874 3.149-.81l.276.024c.848-.895 2.025-1.402 3.257-1.404.78-.052 1.549.21 2.134.73 1.61 1.141 3.529 1.768 5.502 1.797.506.056 1.517.224 2.19 1.067.506.674.562 1.403.562 1.74-.039.744-.184 1.478-.43 2.18l-.132.347zM13.301 5.83c-1.179-.674-2.358-.618-2.695-.562-1.404.057-2.358.674-2.751.955-.45.337-2.583 1.909-2.696 4.604-.056 2.022 1.067 3.37 1.292 3.65 1.572 1.853 3.818 1.909 4.155 1.909 1.558.002 3.045-.65 4.099-1.797 1.291-1.46 1.291-3.144 1.291-3.762V10.8c-.008-.384-.184-3.606-2.695-4.971z" transform="translate(-243 -51) translate(243 51)"/>
            </g>
        </g>
    </g>
</svg>
