<svg xmlns="http://www.w3.org/2000/svg" width="22" height="22" viewBox="0 0 22 22">
  <path fill="#FFF" fill-rule="evenodd" d="M11,0 C17.0751322,0 22,4.92486775 22,11 C22,17.0751322 17.0751322,22 11,22 C4.92486775,22 0,17.0751322 0,11 C0,4.92486775 4.92486775,0 11,0 Z M11.1789648,3.88235294 C8.84125894,3.88235294 6.94616492,5.80843385 6.94616492,8.18436733 L6.94616492,8.18436733 L6.94603535,8.82953963 L6.94117647,8.82966916 L6.94117647,18.2941176 L6.99371719,18.2937291 C8.72276697,18.2656218 10.1157764,16.8533278 10.1157764,15.1152095 L10.1157764,15.1152095 L10.1157764,14.8231917 C10.4555095,14.9125651 10.8117628,14.9600366 11.1789648,14.9600366 C13.5166707,14.9600366 15.4117647,13.0339751 15.4117647,10.6580675 L15.4117647,10.6580675 L15.4117647,8.18436733 C15.4117647,5.80843385 13.5166707,3.88235294 11.1789648,3.88235294 Z M11.1789648,7.10884268 C11.7633913,7.10884268 12.2371648,7.59035805 12.2371648,8.18436733 L12.2371648,8.18436733 L12.2371648,10.6580675 C12.2371648,11.252012 11.7633913,11.7335274 11.1789648,11.7335274 C10.5945383,11.7335274 10.1207648,11.252012 10.1207648,10.6580675 L10.1207648,10.6580675 L10.1207648,8.18436733 C10.1207648,7.59035805 10.5945383,7.10884268 11.1789648,7.10884268 Z"/>
</svg>
