<svg xmlns="http://www.w3.org/2000/svg" width="22" height="22" viewBox="0 0 22 22">
    <g fill="none" fill-rule="evenodd">
        <g fill="#FFF">
            <g>
                <path d="M11.163 9.26c-1.525-1.124-2.9-2.277-4.24-3.244-.063.018-.16.002-.162.083-.305 1.265.126 2.317.734 2.994.965 1.074 2.672 2.007 4.157 3.077 1.131.816 2.184 1.523 3.18 2.246.318.231.598.708.978.582-.011-3.205-2.616-4.244-4.647-5.739m5.706-5.49c-.617.314-1.292.568-1.875.916-1.243-1.652-4.676-3.097-6.766-1.248 1.936 1.577 3.881 3.175 5.951 4.824 1.995 1.59 4.295 2.95 4.32 6.404.039 5.176-5.598 8.824-10.597 6.737-1.915-.8-3.27-2.36-4.402-4.242.766-.41 1.472-.882 2.201-1.33 1.13 1.209 2.466 3.158 4.647 3.41 1.793.207 3.067-.658 4.157-1.58-1.911-1.426-4.08-3.143-6.195-4.658-2.263-1.62-4.377-3.033-4.402-6.487C3.88 2.925 6.336.635 9.533.11c3.479-.57 6.195 1.128 7.336 3.66" transform="translate(-277 -51) translate(277 51)"/>
            </g>
        </g>
    </g>
</svg>
