<svg xmlns="http://www.w3.org/2000/svg" xmlns:xlink="http://www.w3.org/1999/xlink" width="23" height="22" viewBox="0 0 23 22">
    <defs>
        <path id="zunxe83zqa" d="M0 15.998v-3.505h1v.003l1.514.001c.673.001 1.346.003 2.019.01.383.004.674-.103.922-.413 1.617-2.03 3.287-4.02 4.855-6.087.928-1.22 1.96-2.355 2.847-3.6.584-.819 1.193-1.572 2.12-2.013.477-.23.978-.375 1.51-.376C18.525.017 20.264.022 22 .024v3.483c-1.55-.007-3.1-.01-4.65-.021-.306-.003-.54.11-.727.345-1.034 1.3-2.065 2.6-3.108 3.892-.162.2-.149.333.008.529 1.028 1.279 2.05 2.566 3.067 3.854.212.268.46.405.814.401 1.532-.014 3.064-.01 4.596-.013v3.482c-1.72.004-3.439.023-5.158.004-1.308-.013-2.316-.651-3.117-1.64-.785-.97-1.567-1.946-2.308-2.951-.328-.442-.504-.379-.803.022-.723.97-1.486 1.915-2.241 2.862-.933 1.17-2.24 1.725-3.65 1.725H0zM5.434.041c1.43.066 2.43.943 3.225 2.072.042.059.1.128.14.189.562.82.562.789-.11 1.61-.541.661-1.075 1.323-1.612 1.984-.585-.72-1.159-1.427-1.735-2.132-.196-.24-.463-.28-.755-.279-.897.005-1.793 0-2.689 0L1 3.494.957 3.49l-.402.005c-.053 0-.102 0-.147-.003H0V.01L.323.009C.346.007.37.006.396.007c1.68.018 3.363-.045 5.038.034z"/>
    </defs>
    <g fill="none" fill-rule="evenodd">
        <g>
            <g>
                <path d="M0.001 0H22.001V22H0.001z" transform="translate(-433 -51) translate(433.999 51)"/>
                <g transform="translate(-433 -51) translate(433.999 51) translate(0 3)">
                    <mask id="y3t13cphqb" fill="#fff">
                        <use xlink:href="#zunxe83zqa"/>
                    </mask>
                    <use fill="#FFF" xlink:href="#zunxe83zqa"/>
                    <g mask="url(#y3t13cphqb)">
                        <path d="M0 0H22V22H0z" transform="translate(0 -3)"/>
                    </g>
                </g>
            </g>
        </g>
    </g>
</svg>
