<svg xmlns="http://www.w3.org/2000/svg" width="22" height="22" viewBox="0 0 22 22">
    <g fill="none" fill-rule="evenodd">
        <g fill="#FFF" fill-rule="nonzero">
            <g>
                <path d="M14.049.102c.22.316 6.451 6.908 6.451 12.19C20.5 17.62 16.258 22 11 22c-5.214 0-9.5-4.38-9.5-9.708 0-2.212 1.105-4.921 3.226-8.082C6.316 1.908 7.863.237 7.95.147c.133-.18.398-.18.575 0 .176.135.176.406 0 .587 0 0-.106.111-.29.316l-.152.17c-.58.657-1.648 1.927-2.696 3.487-2.032 2.98-3.093 5.599-3.093 7.63 0 4.922 3.933 8.895 8.705 8.895s8.705-4.063 8.705-8.94c0-2.031-1.06-4.65-3.093-7.63C15.065 2.404 13.474.734 13.474.689c-.132-.181-.132-.407 0-.587.177-.136.398-.136.575 0zM12.635 1.41c.265.27 6.23 6.366 6.23 10.656-.044 4.425-3.535 7.991-7.865 7.991s-7.82-3.566-7.82-7.991c0-4.29 5.876-10.295 6.14-10.566.178-.135.399-.135.575 0 .133.18.133.407 0 .587-.088.045-5.92 6.005-5.92 9.979 0 3.973 3.137 7.179 7.025 7.179 3.888 0 7.026-3.206 7.026-7.18 0-1.625-1.017-3.882-2.96-6.501-1.503-2.032-3.006-3.567-3.006-3.567-.176-.136-.176-.406 0-.587.133-.18.398-.18.575 0zM10.912 2.54l.265.316c.22.226 5.7 5.96 5.7 9.21.044 3.342-2.607 6.051-5.877 6.051-3.27 0-5.92-2.71-5.92-6.05 0-3.251 5.346-8.985 5.567-9.211l.265-.316zm.044 1.174c-.486.542-1.458 1.625-2.43 2.98-1.724 2.348-2.652 4.199-2.652 5.373 0 2.89 2.298 5.237 5.126 5.237 2.828 0 5.126-2.348 5.126-5.237 0-1.174-.928-3.025-2.696-5.373-.972-1.31-1.988-2.438-2.474-2.98z" transform="translate(-209 -84) translate(209 84)"/>
            </g>
        </g>
    </g>
</svg>
