<svg xmlns="http://www.w3.org/2000/svg" width="22" height="22" viewBox="0 0 22 22">
    <g fill="none" fill-rule="evenodd">
        <g fill="#FFF" fill-rule="nonzero">
            <g>
                <path d="M11.589 17.449c.603.155 1.142.502 1.422.916.274.405.392.757.514 1.541.048.31.1.62.117.69.092.407.27.732.492.895.352.259.958.275 1.555.041.1-.04.189-.067.195-.06.021.02-.279.223-.49.33-.286.143-.512.198-.814.198-.546 0-1-.28-1.377-.85-.075-.111-.242-.447-.372-.745-.4-.916-.597-1.195-1.06-1.5-.404-.267-.925-.314-1.317-.121-.514.253-.658.914-.29 1.333.147.167.42.31.644.338.417.053.776-.267.776-.691 0-.275-.105-.433-.37-.553-.362-.164-.75.028-.749.37 0 .146.064.237.21.303.093.043.095.046.019.03-.332-.07-.41-.472-.143-.739.32-.32.983-.18 1.21.259.096.184.108.55.024.771-.186.495-.73.756-1.282.614-.376-.096-.53-.2-.982-.67-.787-.816-1.093-.974-2.228-1.152l-.217-.034.247-.21c.831-.706 1.866-1.207 2.808-1.36.406-.067 1.082-.04 1.458.056zm4.007-4.123c.017 0 .087.038.156.085.137.093.412.25 1.145.65.914.502 1.435.89 1.79 1.334.31.388.503.83.595 1.37.052.305.022 1.04-.056 1.348-.246.97-.817 1.732-1.632 2.177-.12.065-.227.119-.238.119-.012 0 .031-.111.096-.247.274-.577.306-1.137.098-1.761-.127-.382-.385-.848-.908-1.636-.607-.916-.756-1.16-.906-1.483-.297-.643-.366-1.264-.203-1.843.018-.062.046-.113.063-.113zM1 0c.006 0 .214.226.561.605l.251.274c.764.838 1.969 2.165 3.172 3.494l.424.469c1.69 1.867 3.273 3.625 3.508 3.9l.146.172-.012.266c-.017.352-.127.585-.388.828-.302.28-.668.429-1.244.508-.353.048-.482.102-.625.26-.137.152-.189.34-.227.82-.058.741-.145 1.055-.494 1.79-.337.71-.405.98-.346 1.36.072.464.332.8.941 1.22.466.32.677.526.793.774.07.152.08.208.079.473-.002.405-.067.568-.343.864-.445.477-1.238.867-2.213 1.088-.408.093-.426.093-.426-.002 0-.12-.152-.424-.415-.833-.305-.475-.424-.713-.538-1.072-.13-.41-.168-.688-.149-1.118.018-.406.062-.586.223-.908.128-.256.21-.372.716-1.006.863-1.082 1.175-1.715 1.286-2.61.099-.8.235-1.186.542-1.53.183-.205.224-.284.224-.434 0-.074-.292-.624-1.158-2.181C3.91 4.99 3.91 4.989 3.95 5.027c.018.017.655 1.003 1.417 2.191.407.636.72 1.12.955 1.476l.145.22c.246.369.38.556.434.607.15.144.358.233.543.233.163 0 .488-.091.646-.182.285-.162.347-.37.181-.6-.138-.193-2.097-2.614-4.162-5.151l-.753-.924-.187-.23-.372-.456c-.493-.604-.97-1.189-1.409-1.723C1.167.219.993 0 1 0zm3.227 16.103c0 .05.028.087.09.12.105.054.113.115.03.24-.084.126-.077.237.019.312.155.122.373.055.488-.149.12-.213.056-.487-.144-.62-.19-.127-.483-.068-.483.097zm10.317-3.302l.106.12c.147.165.263.378.362.66.075.216.083.28.083.63 0 .344-.01.417-.08.61-.109.307-.245.524-.472.757-.41.419-.935.65-1.694.747-.132.016-.517.044-.855.062-.852.045-1.413.137-1.917.315-.072.025-.137.04-.144.034-.02-.02.323-.226.606-.363.4-.194.798-.3 1.689-.448.44-.074.895-.164 1.01-.2 1.09-.335 1.651-1.203 1.472-2.276-.028-.168-.077-.383-.109-.477l-.057-.171zm-1.276-3.107c.008 0 .095.065.193.144.454.366.963.523 2.37.73.83.12 1.295.219 1.726.362 1.367.456 2.212 1.381 2.414 2.642.059.366.024 1.052-.07 1.414-.076.286-.305.801-.365.821-.017.006-.034-.06-.038-.148-.023-.473-.26-.933-.66-1.279-.454-.392-1.064-.704-2.556-1.308-2.24-.907-3.029-1.694-3.029-3.022 0-.196.007-.356.015-.356zm-3.842.962c.172-.053.527-.02.694.066.324.165.56.543.508.815-.062.332-.597.597-1.213.601-.315.003-.43-.04-.55-.201-.075-.1-.103-.423-.054-.608.082-.302.344-.59.615-.673zm-.161.444c0 .145.242.304.465.304.148 0 .35-.089.416-.182.095-.136.053-.283-.108-.382-.308-.189-.773-.032-.773.26zm.117-6.057c.81.194 1.545.689 2.33 1.569l.21.233.298-.048c1.258-.203 2.537-.042 3.608.455.294.137.758.41.816.48.019.022.053.165.076.318.08.53.04.936-.122 1.24-.087.165-.092.217-.033.358.047.113.178.196.308.196.266 0 .552-.432.685-1.034l.052-.239.105.12c.572.651 1.022 1.54 1.1 2.174l.02.165-.097-.15c-.166-.258-.332-.434-.545-.576-.384-.255-.79-.342-1.866-.4-.971-.05-1.521-.134-2.066-.313-.928-.304-1.396-.71-2.497-2.163-.49-.645-.792-1.003-1.093-1.29-.684-.654-1.356-.997-2.216-1.131-.236-.037-.246-.041-.135-.058.213-.033.716.012 1.062.094zm7.778.24c.007 0-.013.076-.045.169-.085.252-.099.598-.04 1 .074.512.117.585.654 1.137.251.259.544.585.65.725l.193.255-.193-.182c-.236-.223-.779-.657-.899-.72-.08-.04-.092-.04-.142.01-.045.045-.055.114-.061.439-.01.506-.079.831-.244 1.157-.09.175-.104.138-.023-.06.06-.149.067-.214.066-.704 0-.985-.117-1.222-.799-1.628-.173-.102-.458-.25-.633-.329-.175-.078-.314-.147-.309-.152.02-.02.685.176.952.28.398.154.464.174.513.155.032-.012.048-.107.063-.386.025-.433.083-.718.2-.979.047-.103.09-.188.097-.188zm-8.938.174l.11.02c.204.038.557.17.723.27.454.278.65.643.85 1.58.059.275.135.585.17.69.058.17.273.565.448.822.126.185.042.273-.236.247-.426-.038-1.002-.438-1.373-.952-.48-.664-.776-1.681-.712-2.442l.02-.235z" transform="translate(-17 -50) translate(17 50)"/>
            </g>
        </g>
    </g>
</svg>
