<svg xmlns="http://www.w3.org/2000/svg" xmlns:xlink="http://www.w3.org/1999/xlink" width="22" height="22" viewBox="0 0 22 22">
    <defs>
        <path id="q3bykfjf8a" d="M11 0c6.075 0 11 4.925 11 11s-4.925 11-11 11S0 17.075 0 11 4.925 0 11 0zM8.938 3.585c0-.26-.203-.406-.453-.328-3.326 1.061-5.737 4.18-5.737 7.86 0 3.68 2.411 6.798 5.737 7.86.25.077.453-.07.453-.329v-.647c0-.172-.134-.37-.298-.431-2.631-.966-4.516-3.494-4.516-6.458 0-2.963 1.885-5.491 4.516-6.457.164-.057.298-.26.298-.432zm4.577-.32c-.25-.081-.453.07-.453.328v.639c0 .172.134.37.298.431 2.631.966 4.516 3.494 4.516 6.458 0 2.963-1.885 5.491-4.516 6.457-.182.065-.298.242-.298.432v.638c0 .26.203.406.453.328 3.326-1.065 5.733-4.18 5.737-7.85 0-3.68-2.411-6.8-5.737-7.86zm-2.17 2.343h-.686c-.19 0-.345.155-.345.345v1.065c-1.363.195-2.243 1.1-2.243 2.265 0 1.51.91 2.092 2.834 2.351 1.303.216 1.674.496 1.674 1.238s-.63 1.238-1.519 1.238c-1.203 0-1.596-.522-1.742-1.203-.035-.164-.173-.28-.337-.28h-.785c-.198 0-.354.176-.32.37.2 1.143.933 1.985 2.434 2.187v1.087c0 .19.155.345.345.345h.686c.19 0 .345-.155.345-.345h.004v-1.087c1.42-.228 2.325-1.216 2.325-2.437 0-1.609-.975-2.148-2.864-2.407-1.398-.203-1.665-.53-1.665-1.182 0-.617.47-1.057 1.38-1.057.824 0 1.299.285 1.493.95.047.15.177.254.332.254h.725c.202 0 .358-.186.315-.384-.229-1.044-.932-1.674-2.04-1.872V5.953c0-.19-.156-.345-.346-.345z"/>
    </defs>
    <g fill="none" fill-rule="evenodd">
        <g>
            <g>
                <path d="M0 0H22V22H0z" transform="translate(-242 -14) translate(242 14)"/>
                <g transform="translate(-242 -14) translate(242 14)">
                    <mask id="zv292c4vib" fill="#fff">
                        <use xlink:href="#q3bykfjf8a"/>
                    </mask>
                    <use fill="#FFF" fill-rule="nonzero" xlink:href="#q3bykfjf8a"/>
                    <g mask="url(#zv292c4vib)">
                        <path d="M0 0H22V22H0z"/>
                    </g>
                </g>
            </g>
        </g>
    </g>
</svg>
