<svg xmlns="http://www.w3.org/2000/svg" width="22" height="22" viewBox="0 0 22 22">
    <g fill="none" fill-rule="evenodd">
        <g fill="#FFF">
            <g>
                <path d="M9.112 0v5.012c-1.886.09-3.556.72-3.856 2.33-.597 3.124.481 4.063 1.409 4.56.927.496 3.67.993 3.67.993s.427.387-.366.497c-1.547.109-3.099.127-4.648.054l-.12 3.03s1.183.1 3.931.184V22h-7.02C.944 22 0 21.064 0 19.909V2.09C0 .944.933.011 2.091 0h7.02zm1.785 0c3.967 0 7.632 2.096 9.616 5.499 1.983 3.402 1.983 7.595 0 10.997-1.984 3.403-5.65 5.499-9.616 5.499h-.742v-5.31h.186c3.695-.07 4.337-2.652 4.097-4.426-.241-1.773-.712-2.061-1.47-2.424-1.114-.417-2.26-.749-3.425-.993-.396-.075-.757-.606.186-.606 1.213-.015 4.222-.174 4.222-.174l.06-2.98c-.947-.11-2.402-.01-3.856-.045V0z" transform="translate(-308 -51) translate(308 51)"/>
            </g>
        </g>
    </g>
</svg>
