<svg xmlns="http://www.w3.org/2000/svg" width="22" height="22" viewBox="0 0 22 22">
    <g fill="none" fill-rule="evenodd">
        <g fill="#FFF">
            <g>
                <path d="M11 0c6.074 0 11 4.926 11 11s-4.926 11-11 11S0 17.074 0 11 4.926 0 11 0zm1.096 11.075l-.115 1.212c1.421 1.13 1.613 1.971 1.395 3.091-.493 1.736-1.998 1.916-2.638 1.806-.732-.134-1.04-.171-1.674-.915-.993-1.34-.316-2.591-.215-2.763l.013-.02.32 1.525.923-.183-.603-3.212-3.1.735.249 1 1.269-.246s-.28.663-.354 1.164c-.427 2.678 1.839 3.89 2.78 3.954 1.868.136 2.953-.671 3.516-1.527 1.045-1.714.524-2.981.22-3.626-.396-.812-1.986-1.995-1.986-1.995zm-.553-4.59h-.996v9.153h.996V6.486zm-.022-2.719c-1.872-.088-2.934.748-3.473 1.62C7.047 7.128 7.6 8.38 7.924 9.013c.418.801 2.04 1.943 2.04 1.943l.081-1.214C8.593 8.65 8.38 7.817 8.57 6.69c.447-1.749 1.945-1.967 2.59-1.874.732.114 1.042.145 1.696.871 1.03 1.312.386 2.581.289 2.756l-.012.02-.361-1.513-.915.207.686 3.194 3.078-.816-.275-.997-1.263.282s.262-.671.324-1.175c.356-2.688-1.943-3.839-2.885-3.879z" transform="translate(-375 -51) translate(375 51)"/>
            </g>
        </g>
    </g>
</svg>
