<svg xmlns="http://www.w3.org/2000/svg" xmlns:xlink="http://www.w3.org/1999/xlink" width="22" height="22" viewBox="0 0 22 22">
    <defs>
        <path id="k7qk3aea0a" d="M17.001 14.806c.796 1.067 1.616 2.158 2.436 3.25-1.64 1.936-3.678 3.176-6.138 3.697-2.734.571-5.318.15-7.828-1.24 2.237-1.663 4.424-3.3 6.635-4.938.497.471.97.943 1.441 1.39.522.496.323.52.994.148.92-.52 1.69-1.24 2.286-2.109.025-.05.075-.099.1-.149-.025 0 0 0 .074-.05zm-9.765 2.183c-.622.472-1.193.893-1.765 1.34-.422.323-.844.62-1.267.943-.174.149-.298.149-.497-.025C1.82 17.56.626 15.476.18 12.994c-.448-2.506-.05-4.888 1.143-7.146.024-.05.074-.124.099-.173 0-.025.025-.025.075-.05C3.136 7.784 4.8 9.942 6.44 12.101c-.05.075-.075.124-.125.174-.497.52-.994 1.042-1.516 1.538-.149.15-.173.273-.074.447.522.992 1.242 1.811 2.137 2.481.124.075.224.149.373.248zM16.504 1.58c-.795.571-1.59 1.142-2.385 1.688-1.367.967-2.734 1.96-4.075 2.928-.174.124-.299.149-.448-.025-.447-.472-.92-.893-1.366-1.365-.125-.124-.249-.149-.423-.074-1.068.546-1.913 1.315-2.609 2.282-.05.05-.1.125-.149.199-.398-.521-.77-.993-1.143-1.489-.398-.52-.77-1.042-1.143-1.538-.124-.174-.15-.298.025-.472C4.7 1.605 7.062.364 9.895.067c2.236-.248 4.373.198 6.36 1.265.075.05.15.075.225.124 0 .075 0 .1.024.124zm4.05 14.888c-.521-.67-.993-1.29-1.465-1.91-1.094-1.44-2.187-2.904-3.305-4.343-.15-.198-.15-.322.025-.496.472-.471.92-.943 1.391-1.414.124-.124.174-.248.075-.422-.547-1.042-1.292-1.91-2.262-2.605-.074-.05-.149-.124-.248-.174.075-.075.15-.124.199-.174.944-.72 1.888-1.414 2.833-2.134.149-.124.273-.173.447 0 2.36 2.134 3.628 4.79 3.752 7.99.05 1.861-.373 3.623-1.218 5.285-.074.1-.149.223-.223.397z"/>
    </defs>
    <g fill="none" fill-rule="evenodd">
        <g>
            <g transform="translate(-56 -51) translate(56 51)">
                <use fill="#FFF" fill-rule="nonzero" xlink:href="#k7qk3aea0a"/>
            </g>
        </g>
    </g>
</svg>
