<svg width="24" height="24" viewBox="0 0 24 24" fill="none" xmlns="http://www.w3.org/2000/svg">
<path d="M17.1436 8.32319C16.7781 8.11647 16.3081 8.11647 15.8903 8.32319L12.9661 10.0287L10.9817 11.114L8.10966 12.8195C7.74413 13.0262 7.27415 13.0262 6.8564 12.8195L4.61097 11.4758C4.24543 11.269 3.98433 10.8556 3.98433 10.3905V7.80638C3.98433 7.39293 4.19321 6.97948 4.61097 6.72107L6.8564 5.42903C7.22193 5.2223 7.69191 5.2223 8.10966 5.42903L10.3551 6.77275C10.7206 6.97948 10.9817 7.39293 10.9817 7.85806V9.56355L12.9661 8.42656V6.66939C12.9661 6.25593 12.7572 5.84248 12.3394 5.58407L8.16188 3.15504C7.79634 2.94832 7.32637 2.94832 6.90862 3.15504L2.62663 5.63576C2.20888 5.84248 2 6.25593 2 6.66939V11.5274C2 11.9409 2.20888 12.3544 2.62663 12.6128L6.8564 15.0418C7.22193 15.2485 7.69191 15.2485 8.10966 15.0418L10.9817 13.388L12.9661 12.251L15.8381 10.5972C16.2037 10.3905 16.6736 10.3905 17.0914 10.5972L19.3368 11.8892C19.7024 12.0959 19.9634 12.5094 19.9634 12.9745V15.5586C19.9634 15.9721 19.7546 16.3855 19.3368 16.6439L17.1436 17.936C16.7781 18.1427 16.3081 18.1427 15.8903 17.936L13.6449 16.6439C13.2794 16.4372 13.0183 16.0237 13.0183 15.5586V13.9048L11.0339 15.0418V16.7473C11.0339 17.1607 11.2428 17.5742 11.6606 17.8326L15.8903 20.2616C16.2559 20.4683 16.7258 20.4683 17.1436 20.2616L21.3734 17.8326C21.7389 17.6259 22 17.2124 22 16.7473V11.8375C22 11.4241 21.7911 11.0106 21.3734 10.7522L17.1436 8.32319Z" fill="white"/>
</svg>
