<svg width="24" height="24" viewBox="0 0 24 24" fill="none" xmlns="http://www.w3.org/2000/svg">
<path fill-rule="evenodd" clip-rule="evenodd" d="M12.7602 3.57014C12.3201 2.80995 11.6199 2.80995 11.1798 3.57014L3.18784 17.6436C2.74773 18.4138 3.10782 19.0239 3.98803 19.0239H7.99902C8.80922 18.9739 9.5394 18.5438 9.9795 17.8637L14.8107 9.49159C15.1608 8.77142 15.1608 7.92121 14.8107 7.20103L13.3703 4.67041L12.7602 3.57014ZM18.0715 12.8324C17.6314 12.0722 16.9212 12.0722 16.4811 12.8324L13.6904 17.6436C13.2603 18.4038 13.6204 19.0239 14.4906 19.0239H20.012C20.8922 19.0239 21.2523 18.4038 20.8122 17.6436L18.0715 12.8324Z" fill="#E84142"/>
</svg>
