<svg width="24" height="24" viewBox="0 0 24 24" fill="none" xmlns="http://www.w3.org/2000/svg">
<path fill-rule="evenodd" clip-rule="evenodd" d="M22.7564 10.3431C20.8263 6.40593 16.7369 3 11.9983 3C7.25963 3 3.17021 6.40593 1.24018 10.3431C0.794648 11.2561 0.980401 12.3506 1.7024 13.0665L6.10584 16.965C6.41602 16.7617 6.77304 16.6406 7.14319 16.6131C7.46113 16.5865 7.78129 16.6163 8.0888 16.7011C7.39775 14.9532 7.95784 12.9602 9.45917 11.825C10.9605 10.6898 13.036 10.6898 14.5374 11.825C16.0387 12.9602 16.5988 14.9532 15.9077 16.7011C16.2152 16.6163 16.5354 16.5865 16.8533 16.6131C17.2236 16.64 17.5808 16.7612 17.8907 16.965L22.3047 13.0665C23.0231 12.3481 23.2046 11.2539 22.7564 10.3431Z" fill="white"/>
<path fill-rule="evenodd" clip-rule="evenodd" d="M12.0018 16.5604C12.9086 16.5604 13.3673 16.972 13.8507 17.5104C14.8563 16.7228 15.2506 15.3861 14.8328 14.181C14.415 12.9759 13.2769 12.1675 11.9983 12.1675C10.7196 12.1675 9.58158 12.9759 9.16377 14.181C8.74596 15.3861 9.14026 16.7228 10.1459 17.5104C10.6293 16.972 11.0915 16.5604 11.9947 16.5604H12.0018Z" fill="white"/>
<path fill-rule="evenodd" clip-rule="evenodd" d="M12.0088 22C12.4233 21.9969 12.8237 21.8501 13.1415 21.5848L16.998 18.3161C16.0065 17.1655 14.5281 18.4005 14.5281 18.4005C14.3294 18.5813 14.0735 18.687 13.8048 18.6996C13.5722 18.6976 13.352 18.5948 13.2014 18.4181C12.9365 18.0271 12.4926 17.7946 12.0194 17.7989H11.9877C11.5132 17.7934 11.0678 18.0261 10.8021 18.4181C10.651 18.5941 10.4311 18.6967 10.1988 18.6996C9.92841 18.6956 9.66828 18.5958 9.46487 18.4181C9.46487 18.4181 7.97942 17.1831 6.995 18.3337L10.8551 21.5848C11.1772 21.8455 11.5798 21.9872 11.9947 21.9859L12.0088 22Z" fill="white"/>
</svg>
