<svg width="24" height="24" viewBox="0 0 24 24" fill="none" xmlns="http://www.w3.org/2000/svg">
<path d="M2.5423 15.9569C2.51921 16.0092 2.49221 16.0598 2.46153 16.1082C2.30161 16.3704 2.20534 16.6648 2.18011 16.9689C2.43612 17.4727 2.73144 17.9567 3.06348 18.4165C3.08139 18.2368 3.12213 18.06 3.18475 17.8901C3.25637 17.6731 3.25367 17.4393 3.17707 17.2239C2.93601 16.8162 2.72392 16.3929 2.5423 15.9569Z" fill="white"/>
<path d="M1.74094 9.37132C1.94766 9.27943 2.11716 9.12315 2.22277 8.92706C2.36488 8.46962 2.53933 8.02232 2.74488 7.58838C2.6887 7.60711 2.63111 7.62152 2.57263 7.63149C2.2718 7.6872 1.98912 7.81256 1.74839 7.99702C1.53948 8.53309 1.37348 9.08412 1.25189 9.64519C1.40166 9.53306 1.56613 9.44095 1.74094 9.37132Z" fill="white"/>
<path d="M9.1458 1.77303C9.32706 1.90775 9.55068 1.97696 9.77847 1.96884C10.242 1.86668 10.7125 1.79684 11.1863 1.75987C11.1362 1.71666 11.09 1.66937 11.0482 1.61851C10.8697 1.40613 10.6453 1.23469 10.3911 1.11639C9.81787 1.20014 9.25256 1.32914 8.70074 1.50212C8.86005 1.57408 9.00955 1.66508 9.1458 1.77303Z" fill="white"/>
<path d="M7.08833 2.59188C7.2912 2.68427 7.52045 2.70597 7.73776 2.65337C8.17159 2.45395 8.61968 2.28545 9.07851 2.14921C9.02233 2.11807 8.96891 2.0824 8.91883 2.04257C8.69602 1.86965 8.43609 1.7479 8.15838 1.68634C7.61537 1.88811 7.09007 2.13252 6.58765 2.41717C6.7615 2.45435 6.92977 2.51306 7.08833 2.59188Z" fill="white"/>
<path d="M2.51094 7.28817C2.73079 7.24162 2.92824 7.12449 3.07168 6.95554C3.30753 6.53715 3.57307 6.13532 3.86635 5.75299C3.80458 5.7603 3.7423 5.76265 3.68014 5.76003C3.38172 5.75188 3.08558 5.81293 2.8161 5.93814C2.49629 6.42147 2.21595 6.92855 1.97766 7.45471C2.14697 7.37618 2.32633 7.32017 2.51094 7.28817Z" fill="white"/>
<path d="M5.24505 3.82301C5.46794 3.87145 5.70118 3.84273 5.90472 3.74178C6.28471 3.45853 6.68475 3.20181 7.10185 2.97351C7.0409 2.95483 6.98165 2.93123 6.92472 2.90295C6.66776 2.77848 6.38485 2.71334 6.09792 2.71259C5.60993 3.02447 5.148 3.37346 4.71643 3.7563C4.89485 3.75621 5.07254 3.77863 5.24505 3.82301Z" fill="white"/>
<path d="M3.69638 5.41151C3.92983 5.41213 4.15602 5.33243 4.3351 5.18643C4.47041 5.03381 4.61054 4.88444 4.75548 4.73831C4.94495 4.54818 5.14056 4.36666 5.34229 4.19377C5.27822 4.1881 5.21476 4.17717 5.15258 4.16109C4.87187 4.09238 4.57861 4.08826 4.29599 4.14907C4.26643 4.17811 4.23664 4.20647 4.20754 4.23597C3.8259 4.61904 3.47319 5.02852 3.15216 5.4612C3.33051 5.42125 3.51351 5.40454 3.69638 5.41151Z" fill="white"/>
<path d="M1.41805 11.5695C1.60688 11.4316 1.74277 11.2359 1.80399 11.0138C1.84832 10.5436 1.925 10.0768 2.0335 9.61658C1.9827 9.6463 1.92962 9.67216 1.87475 9.69395C1.59029 9.81217 1.33885 9.99481 1.14129 10.2267C1.05036 10.7921 1.00313 11.3634 1 11.9357C1.12233 11.7963 1.26288 11.6732 1.41805 11.5695Z" fill="white"/>
<path d="M18.755 20.1765C18.5321 20.128 18.2989 20.1567 18.0953 20.2575C17.7154 20.5407 17.3156 20.7973 16.8986 21.0256C16.9594 21.0444 17.0185 21.068 17.0753 21.0964C17.3323 21.2208 17.6152 21.2859 17.9021 21.2867C18.3901 20.9749 18.852 20.6259 19.2836 20.243C19.1052 20.2431 18.9275 20.2208 18.755 20.1765Z" fill="white"/>
<path d="M22.5817 12.4303C22.3932 12.5678 22.2574 12.763 22.196 12.9846C22.1516 13.4549 22.075 13.9218 21.9665 14.3821C22.0172 14.3523 22.0702 14.3265 22.125 14.3047C22.4097 14.1859 22.6612 14.0028 22.8589 13.7706C22.9498 13.2056 22.9969 12.6347 23 12.0627C22.8777 12.2026 22.7371 12.3262 22.5817 12.4303Z" fill="white"/>
<path d="M14.854 22.2267C14.6728 22.0922 14.4494 22.0229 14.2218 22.0307C13.7581 22.1329 13.2875 22.2029 12.8135 22.2399C12.8635 22.2831 12.9097 22.3303 12.9516 22.381C13.1301 22.5935 13.3545 22.765 13.6087 22.8834C14.182 22.7996 14.7474 22.6706 15.2993 22.4976C15.1399 22.4257 14.9903 22.3347 14.854 22.2267Z" fill="white"/>
<path d="M10.4609 22.5092C10.3498 22.3111 10.1726 22.1558 9.95862 22.0691C9.49695 21.9758 9.04268 21.8506 8.59924 21.6945C8.6251 21.7511 8.64642 21.8096 8.66302 21.8694C8.74162 22.1408 8.87981 22.3924 9.06804 22.6066C9.61876 22.7576 10.181 22.8654 10.7493 22.929C10.6364 22.8007 10.5396 22.6598 10.4609 22.5092Z" fill="white"/>
<path d="M21.4337 14.9681C21.4337 14.9681 21.457 14.9649 21.4596 14.9618C21.6623 14.3117 21.8906 13.6331 21.8906 12.9335C21.8906 12.6263 21.9093 12.3221 21.9093 12.0074C21.9012 11.6278 21.8707 11.249 21.8178 10.8729H21.838V10.8584C21.744 10.1717 21.5898 9.49411 21.3772 8.83309H21.3744C21.3744 8.83309 21.3695 8.82946 21.369 8.82628C20.0478 4.90576 16.3468 2.0766 12.0007 2.0766C7.5802 2.0766 3.82725 5.00491 2.56727 9.03094C2.56727 9.03094 2.56564 9.03298 2.56425 9.03593C2.265 9.99451 2.11337 10.9911 2.1143 11.9931C2.11247 12.3722 2.13439 12.751 2.17994 13.1275H2.21253V13.1421C2.29773 13.828 2.44304 14.5056 2.64688 15.1673H2.63664C2.63664 15.1673 2.63478 15.1705 2.63524 15.1735C3.95691 19.0933 7.65469 21.9225 11.9998 21.9225C16.4217 21.9227 20.174 18.9941 21.4337 14.9681ZM3.68596 11.9999C3.68596 7.37869 7.41563 3.61926 12 3.61926C16.5844 3.61926 20.3141 7.37892 20.3141 11.9999C20.3141 16.6208 16.5844 20.3805 12 20.3805C7.41563 20.3805 3.68596 16.621 3.68596 11.9999Z" fill="white"/>
<path d="M8.31689 21.9602C8.24988 21.7459 8.11197 21.5593 7.92468 21.4295C7.48936 21.24 7.06846 21.0206 6.66516 20.7728C6.67855 20.8326 6.68718 20.8933 6.691 20.9543C6.71224 21.2411 6.79739 21.5198 6.94053 21.7712C7.44657 22.0342 7.97347 22.2571 8.51614 22.4378C8.43043 22.2869 8.36353 22.1266 8.31689 21.9602Z" fill="white"/>
<path d="M6.33278 20.9761C6.3106 20.7467 6.2104 20.5311 6.04811 20.3635C5.66614 20.0888 5.30388 19.789 4.96387 19.4661C4.96464 19.5279 4.96043 19.5897 4.9513 19.6508C4.91226 19.9403 4.93888 20.2346 5.02928 20.513C5.46927 20.8746 5.93772 21.202 6.43032 21.4921C6.37668 21.3245 6.34393 21.1513 6.33278 20.9761Z" fill="white"/>
<path d="M15.6829 2.03961C15.7497 2.25394 15.8875 2.4406 16.0749 2.57032C16.5102 2.75976 16.9311 2.9792 17.3344 3.22695C17.3211 3.16717 17.3124 3.10649 17.3086 3.04544C17.2873 2.75868 17.2021 2.47991 17.0588 2.22862C16.5526 1.96497 16.0255 1.74144 15.4825 1.56018C15.5688 1.71159 15.636 1.87255 15.6829 2.03961Z" fill="white"/>
<path d="M22.2598 14.6284C22.0531 14.7201 21.8837 14.8763 21.7782 15.0723C21.6361 15.5297 21.4616 15.977 21.2559 16.4109C21.312 16.3923 21.3696 16.378 21.4281 16.3681C21.7293 16.3117 22.0123 16.1858 22.2533 16.0009C22.4619 15.4653 22.6278 14.9147 22.7493 14.3541C22.5994 14.4664 22.4348 14.5587 22.2598 14.6284Z" fill="white"/>
<path d="M20.3034 18.5883C20.07 18.5873 19.8438 18.6669 19.6649 18.8131C19.5294 18.9659 19.3892 19.1153 19.2443 19.2615C19.0548 19.4516 18.8592 19.6331 18.6575 19.806C18.7215 19.8116 18.7848 19.8225 18.8469 19.8385C19.1276 19.9073 19.4209 19.9114 19.7035 19.8505C19.7331 19.8217 19.7629 19.7931 19.7922 19.7638C20.1739 19.3807 20.5267 18.9712 20.8478 18.5386C20.6694 18.5784 20.4863 18.5952 20.3034 18.5883Z" fill="white"/>
<path d="M19.4023 4.40027C19.3765 4.63437 19.432 4.87015 19.5599 5.06984C19.8744 5.4142 20.1649 5.77873 20.4293 6.16098C20.4413 6.10284 20.4577 6.04566 20.4784 5.9899C20.578 5.70834 20.6121 5.40872 20.5783 5.11273C20.3323 4.8072 20.07 4.51447 19.7924 4.23577C19.6683 4.11144 19.5419 3.99042 19.4133 3.87274C19.4316 4.04837 19.4279 4.22551 19.4023 4.40027Z" fill="white"/>
<path d="M21.4889 16.7114C21.2686 16.7578 21.0708 16.875 20.9272 17.0442C20.6913 17.4626 20.4258 17.8644 20.1325 18.2468C20.1943 18.2396 20.2566 18.2373 20.3187 18.24C20.6169 18.2482 20.9129 18.1874 21.1823 18.0625C21.5027 17.5793 21.7836 17.0722 22.0224 16.546C21.8529 16.6241 21.6735 16.6797 21.4889 16.7114Z" fill="white"/>
<path d="M11.328 1.40024C11.4827 1.57542 11.6959 1.6917 11.9299 1.72856C11.9532 1.72856 11.9765 1.72856 11.9998 1.72856C12.4422 1.72865 12.8842 1.75699 13.3228 1.81342C13.2837 1.76152 13.2491 1.70658 13.2193 1.64915C13.0892 1.40513 12.9066 1.19142 12.6839 1.02269C12.4572 1.00885 12.2293 1 12.0002 1C11.65 1 11.3026 1.01626 10.9581 1.04878C11.0955 1.15097 11.2197 1.26898 11.328 1.40024Z" fill="white"/>
<path d="M12.672 22.5993C12.5173 22.424 12.304 22.3078 12.0698 22.2712C12.0465 22.2712 12.0233 22.2712 12 22.2712C11.5575 22.2712 11.1154 22.2428 10.6767 22.1863C10.7159 22.2383 10.7506 22.2933 10.7805 22.3508C10.9105 22.5949 11.0931 22.8086 11.3159 22.9773C11.5426 22.9911 11.7707 23 11.9998 23C12.3498 23 12.6971 22.9837 13.0416 22.9512C12.9043 22.8489 12.7802 22.7307 12.672 22.5993Z" fill="white"/>
<path d="M1.55901 13.786C1.71555 13.612 1.80818 13.3922 1.82227 13.1612C1.77901 12.7755 1.75725 12.3878 1.75709 11.9999C1.75709 11.9158 1.7581 11.8318 1.76012 11.748C1.71652 11.7882 1.66983 11.8249 1.62046 11.8581C1.36636 12.034 1.15819 12.2656 1.0127 12.5342C1.03975 13.1052 1.1111 13.6734 1.22615 14.2339C1.31669 14.0712 1.42858 13.9206 1.55901 13.786Z" fill="white"/>
<path d="M4.59744 19.5995C4.62326 19.3653 4.56769 19.1295 4.43962 18.9297C4.12511 18.5855 3.83466 18.221 3.57022 17.8388C3.55832 17.897 3.54198 17.9543 3.52134 18.0101C3.42139 18.2911 3.38704 18.5903 3.42078 18.8859C3.66707 19.1919 3.92968 19.4851 4.20755 19.7642C4.33169 19.8886 4.45801 20.0096 4.5865 20.1273C4.56824 19.9516 4.57192 19.7744 4.59744 19.5995Z" fill="white"/>
<path d="M17.6661 3.02391C17.6885 3.25329 17.7886 3.46884 17.9507 3.63653C18.3327 3.91129 18.695 4.21119 19.035 4.53413C19.0343 4.47234 19.0385 4.41059 19.0476 4.34944C19.0867 4.05994 19.0601 3.7656 18.9696 3.48723C18.5296 3.12562 18.0611 2.79826 17.5685 2.50818C17.6223 2.67563 17.655 2.8488 17.6661 3.02391Z" fill="white"/>
<path d="M13.5391 1.49054C13.6503 1.6886 13.8274 1.84385 14.0412 1.93072C14.503 2.02393 14.9574 2.14911 15.401 2.30532C15.3751 2.24872 15.3538 2.19023 15.3372 2.13039C15.2586 1.85888 15.1204 1.60727 14.9322 1.39298C14.3815 1.24201 13.8193 1.13419 13.2509 1.07056C13.3638 1.19883 13.4606 1.33983 13.5391 1.49054Z" fill="white"/>
<path d="M2.15686 15.9245C2.27075 15.7283 2.31671 15.5016 2.28791 15.278C2.13654 14.8252 2.01716 14.3627 1.93061 13.894C1.89663 13.9413 1.85905 13.986 1.81818 14.0278C1.6053 14.253 1.44918 14.5234 1.36218 14.8177C1.50693 15.3679 1.69486 15.9065 1.92432 16.4286C1.97937 16.2516 2.05753 16.0821 2.15686 15.9245Z" fill="white"/>
<path d="M22.3801 12.1419C22.6344 11.9659 22.8427 11.7343 22.9884 11.4655C22.9612 10.8945 22.8898 10.3262 22.7747 9.76562C22.6839 9.92843 22.5717 10.079 22.4409 10.2135C22.2843 10.3875 22.1917 10.6075 22.1779 10.8386C22.221 11.2243 22.2426 11.6119 22.2428 11.9999C22.2428 12.084 22.2418 12.1679 22.2398 12.2517C22.2836 12.2117 22.3305 12.175 22.3801 12.1419Z" fill="white"/>
<path d="M21.4577 8.04285C21.4808 7.99063 21.5078 7.94013 21.5384 7.89174C21.6986 7.62996 21.7951 7.33585 21.8203 7.03203C21.564 6.52743 21.2683 6.04279 20.9358 5.5824C20.9179 5.76215 20.8771 5.93904 20.8145 6.10902C20.7427 6.32589 20.7453 6.55966 20.822 6.77496C21.0634 7.18289 21.2758 7.60652 21.4577 8.04285Z" fill="white"/>
<path d="M21.8432 8.07531C21.7293 8.27135 21.6833 8.49798 21.7121 8.72151C21.8634 9.17438 21.9828 9.63681 22.0694 10.1056C22.1034 10.0583 22.141 10.0137 22.1818 9.97193C22.3948 9.7467 22.551 9.4762 22.6381 9.18188C22.4934 8.63163 22.3054 8.09305 22.0759 7.57092C22.0208 7.74807 21.9426 7.91758 21.8432 8.07531Z" fill="white"/>
<path d="M16.9116 21.4072C16.7088 21.3148 16.4795 21.2931 16.2622 21.3457C15.8284 21.545 15.3804 21.7134 14.9217 21.8497C14.9777 21.881 15.0309 21.9167 15.0809 21.9565C15.3037 22.1295 15.5636 22.2512 15.8414 22.3127C16.3845 22.111 16.9098 21.8666 17.4123 21.5819C17.2385 21.5447 17.0702 21.486 16.9116 21.4072Z" fill="white"/>
<path d="M16.1559 15.4092L14.2185 12.8484C14.5374 12.7255 14.832 12.5497 15.0893 12.3289C15.5591 11.9234 16.1193 11.1597 16.1193 9.82279C16.1353 9.41869 16.0628 9.0159 15.9066 8.64126C15.7504 8.26661 15.5141 7.92871 15.2134 7.65004C14.2556 6.79306 12.9932 6.82029 12.5882 6.82029H8.73891C8.44348 6.82239 8.16092 6.93846 7.95306 7.14312C7.7452 7.34777 7.62896 7.62435 7.62976 7.91234C7.62976 7.93503 7.63326 7.96974 7.63326 7.99311V8.9742H13.0568C13.2942 8.98137 13.5194 9.07799 13.6852 9.24374C13.851 9.40949 13.9444 9.63146 13.9457 9.86295V10.069C13.943 10.2968 13.8481 10.5144 13.6816 10.6744C13.5151 10.8343 13.2906 10.9237 13.0568 10.923H12.2011C11.9958 10.9232 11.7945 10.9788 11.6197 11.0838C11.4448 11.1887 11.3033 11.3389 11.2107 11.5175C11.1181 11.6962 11.0782 11.8964 11.0953 12.0959C11.1125 12.2953 11.186 12.4862 11.3078 12.6474L14.3682 16.693C14.4547 16.8073 14.5634 16.9039 14.6882 16.9773C14.8129 17.0507 14.9513 17.0994 15.0954 17.1207C15.2395 17.1419 15.3864 17.1353 15.5279 17.1012C15.6694 17.0671 15.8026 17.0062 15.9199 16.9219C16.0372 16.8376 16.1363 16.7316 16.2116 16.61C16.2869 16.4884 16.3368 16.3535 16.3586 16.2131C16.3805 16.0726 16.3737 15.9294 16.3387 15.7915C16.3037 15.6536 16.2412 15.5238 16.1547 15.4094L16.1559 15.4092Z" fill="white"/>
<path d="M7.63318 10.9228V16H7.64645C7.68114 16.3171 7.83572 16.6102 8.08006 16.8223C8.3244 17.0343 8.64099 17.1501 8.96811 17.147C9.29342 17.147 9.60749 17.0309 9.85099 16.8207C10.0945 16.6104 10.2506 16.3205 10.2898 16.0057L10.3042 10.9232L7.63318 10.9228Z" fill="white"/>
</svg>
