<svg width="24" height="24" viewBox="0 0 24 24" fill="none" xmlns="http://www.w3.org/2000/svg">
<path fill-rule="evenodd" clip-rule="evenodd" d="M12 23C18.0751 23 23 18.0751 23 12C23 5.92487 18.0751 1 12 1C5.92487 1 1 5.92487 1 12C1 18.0751 5.92487 23 12 23ZM13.3418 10.2881V8.58895H17.2274V6H6.64685V8.58895H10.5329V10.2867C7.37467 10.4318 5 11.0573 5 11.8066C5 12.5559 7.37581 13.1814 10.5329 13.3273V18.77H13.3428V13.3269C16.4953 13.1814 18.8652 12.5563 18.8652 11.8077C18.8652 11.0591 16.4953 10.4341 13.3428 10.2886L13.3418 10.2881ZM13.3428 12.8659V12.8645C13.2635 12.8695 12.8562 12.894 11.9493 12.894C11.2242 12.894 10.7141 12.8734 10.5343 12.864V12.8663C7.7441 12.7427 5.66138 12.2568 5.66138 11.6755C5.66138 11.0941 7.74433 10.6088 10.5343 10.485V12.3823C10.7171 12.3948 11.2397 12.4257 11.9612 12.4257C12.8277 12.4257 13.2633 12.3896 13.3433 12.3823V10.485C16.128 10.6091 18.2059 11.0954 18.2059 11.6748C18.2059 12.2541 16.1271 12.7407 13.3433 12.8647L13.3428 12.8659Z" fill="white"/>
</svg>
