<?xml version="1.0" encoding="UTF-8"?>
<svg width="24px" height="24px" viewBox="0 0 24 24" version="1.1" xmlns="http://www.w3.org/2000/svg" xmlns:xlink="http://www.w3.org/1999/xlink">
    <title>Icon/22/Wallet/Single Color/Avalanche@1.5x</title>
    <g id="Symbols" stroke="none" stroke-width="1" fill="none" fill-rule="evenodd">
        <g id="avalanche-avax-logo" fill="#FFFFFF" transform="translate(1.000000, 1.000000)">
            <path d="M11,0 C17.0751322,0 22,4.92486775 22,11 C22,17.0751322 17.0751322,22 11,22 C4.92486775,22 0,17.0751322 0,11 C0,4.92486775 4.92486775,0 11,0 Z M16.2574803,11.2858268 C15.876378,10.6275591 15.2614173,10.6275591 14.880315,11.2858268 L14.880315,11.2858268 L12.4637795,15.4519685 C12.0913386,16.1102362 12.4031496,16.6472441 13.1566929,16.6472441 L13.1566929,16.6472441 L17.9377953,16.6472441 C18.7,16.6472441 19.011811,16.1102362 18.6307087,15.4519685 L18.6307087,15.4519685 Z M11.6582677,3.26535433 C11.2771654,2.60708661 10.6708661,2.60708661 10.2897638,3.26535433 L10.2897638,3.26535433 L3.36929134,15.4519685 C2.98818898,16.1188976 3.3,16.6472441 4.06220472,16.6472441 L4.06220472,16.6472441 L7.53543307,16.6472441 C8.23700787,16.603937 8.86929134,16.2314961 9.2503937,15.6425197 L9.2503937,15.6425197 L13.4338583,8.39291339 C13.7370079,7.76929134 13.7370079,7.03307087 13.4338583,6.40944882 L13.4338583,6.40944882 L12.1866142,4.21811024 Z" id="Combined-Shape"></path>
        </g>
    </g>
</svg>