<svg fill="none" height="24" viewBox="0 0 24 24" width="24" xmlns="http://www.w3.org/2000/svg"><path clip-rule="evenodd" d="m19.512 7.56046-.0001-.00011c-.6265-.61427-1.2885-1.26335-1.8728-1.78701l-.0592-.04183c-.0984-.07986-.2095-.14248-.3284-.18527l-.4509-.08494v-.00001l-.0003-.00005c-3.1116-.5863-13.19631-2.48646-13.40377-2.46099-.06136.00868-.12001.03115-.17163.06575l-.05623.04482c-.06923.071-.12181.15677-.15387.25101l-.0148.03885v.21216.03287c.6847 1.9253 2.46336 6.22494 4.10566 10.19499h.00001l.00008.0002c1.38844 3.3563 2.6794 6.4771 3.12945 7.7283l.0002.0005c.0592.1854.1717.5374.3816.5553h.0473c.1125 0 .5919-.6395.5919-.6395s8.5698-10.4947 9.4368-11.61229c.1123-.13767.2113-.28575.2959-.44226.044-.2491-.0448-.50321-.2337-.66937-.3692-.3442-.7972-.76384-1.2432-1.20112zm-6.0572 2.42332 3.6576-3.06295 2.1454 1.99614zm-7.71755-5.41172 6.29715 5.21149 3.8914-3.31396zm6.86535 6.57714 6.4451-1.0489-7.3684 8.9647zm-1.0949-.3795-6.62566-5.67768 5.66686 13.97898z" fill="#ff060a" fill-rule="evenodd"/></svg>